/* XPM */
static char *dae7806de5634e73cc1d922fbefac1eeSPsA9CmTZbcOtHwd[] = {
/* columns rows colors chars-per-pixel */
"50 50 216 2 ",
"   c #020202",
".  c #090706",
"X  c #0A0806",
"o  c #0C0B0A",
"O  c #110D0D",
"+  c #12110D",
"@  c #1A140E",
"#  c #151412",
"$  c #1B1711",
"%  c #1C1B14",
"&  c #221614",
"*  c #251B16",
"=  c #2C1D12",
"-  c #271D19",
";  c #2B1F19",
":  c #321F1A",
">  c #2C2417",
",  c #24221A",
"<  c #2C241C",
"1  c #2C291D",
"2  c #33221D",
"3  c #312819",
"4  c #3A2A1D",
"5  c #36321F",
"6  c #242422",
"7  c #2D2D22",
"8  c #332C23",
"9  c #3B2A23",
"0  c #392924",
"q  c #353424",
"w  c #3B3424",
"e  c #3D3B26",
"r  c #35342C",
"t  c #3A372A",
"y  c #3C3A2A",
"u  c #3A3932",
"i  c #45331F",
"p  c #422B23",
"a  c #443926",
"s  c #4D3926",
"d  c #43342B",
"f  c #4C332B",
"g  c #443C2A",
"h  c #4C3B2B",
"j  c #52362D",
"k  c #573A28",
"l  c #483D31",
"z  c #553C32",
"x  c #593C32",
"c  c #603F34",
"v  c #484127",
"b  c #45422F",
"n  c #4A4329",
"m  c #4B4A2E",
"M  c #51432C",
"N  c #51492D",
"B  c #5D482C",
"V  c #464330",
"C  c #4D4232",
"Z  c #4E4C33",
"A  c #45443B",
"S  c #534433",
"D  c #5B4236",
"F  c #524C34",
"G  c #5D4A37",
"H  c #534D39",
"J  c #5D4C39",
"K  c #565233",
"L  c #545139",
"P  c #5D573A",
"I  c #68472B",
"U  c #634236",
"Y  c #624D32",
"T  c #6A4538",
"R  c #644A3C",
"E  c #69493A",
"W  c #744C3E",
"Q  c #6A5536",
"!  c #655B36",
"~  c #645D3B",
"^  c #705332",
"/  c #715A35",
"(  c #6D6238",
")  c #7B623E",
"_  c #73683E",
"`  c #4D4C45",
"'  c #514F43",
"]  c #555448",
"[  c #59564B",
"{  c #6C4C41",
"}  c #744E41",
"|  c #695743",
" . c #615D41",
".. c #625C4D",
"X. c #745245",
"o. c #7C5243",
"O. c #785B49",
"+. c #655F50",
"@. c #686643",
"#. c #6D6A43",
"$. c #7C6E40",
"%. c #766448",
"&. c #7C654B",
"*. c #787247",
"=. c #696557",
"-. c #6F6E63",
";. c #797667",
":. c #82663C",
">. c #956339",
",. c #98683E",
"<. c #835D4F",
"1. c #815D50",
"2. c #84694B",
"3. c #857B4A",
"4. c #917245",
"5. c #9B754E",
"6. c #866051",
"7. c #8B6354",
"8. c #866E53",
"9. c #936C53",
"0. c #8C7359",
"q. c #977959",
"w. c #A27B48",
"e. c #B27543",
"r. c #857C68",
"t. c #927B63",
"y. c #807D71",
"u. c #95864F",
"i. c #878454",
"p. c #8F8853",
"a. c #8D8A56",
"s. c #928652",
"d. c #9C8C51",
"f. c #A7844E",
"g. c #BA864D",
"h. c #AD865A",
"j. c #B48659",
"k. c #A29256",
"l. c #A59559",
"z. c #AD9C5B",
"x. c #B5A25E",
"c. c #85826E",
"v. c #9C8369",
"b. c #898675",
"n. c #8B8873",
"m. c #918C74",
"M. c #95927B",
"N. c #A78764",
"B. c #A79E62",
"V. c #BE9164",
"C. c #B79169",
"Z. c #AD9173",
"A. c #B69876",
"S. c #A7A365",
"D. c #ACA767",
"F. c #B7A763",
"G. c #BAB06C",
"H. c #BBB772",
"J. c #C38B52",
"K. c #C49159",
"L. c #C69E5D",
"P. c #C79463",
"I. c #CA9663",
"U. c #CD9966",
"Y. c #C6986A",
"T. c #CD9C6A",
"R. c #D09B66",
"E. c #D09D6A",
"W. c #CD9F71",
"Q. c #C1AD67",
"!. c #C2AE68",
"~. c #C5B167",
"^. c #C5B169",
"/. c #C7B76A",
"(. c #C8B66A",
"). c #CBBC6D",
"_. c #CEA273",
"`. c #C4A17B",
"'. c #CEA67B",
"]. c #D2A373",
"[. c #D1A679",
"{. c #D4AB7D",
"}. c #D9AD7E",
"|. c #C2BE77",
" X c #CDBE70",
".X c #CDC174",
"XX c #CECA7D",
"oX c #D1C575",
"OX c #D3C977",
"+X c #D3CB7A",
"@X c #D8D27F",
"#X c #9D9A87",
"$X c #A6A38E",
"%X c #A7A493",
"&X c #CAA884",
"*X c #D6AD81",
"=X c #D9AE81",
"-X c #D9B184",
";X c #D5B188",
":X c #DDB589",
">X c #DFB88C",
",X c #E0B68D",
"<X c #E1B98D",
"1X c #E4BD93",
"2X c #E5BD93",
"3X c #E5BE94",
"4X c #DBD481",
"5X c #DDD884",
"6X c #E7C195",
"7X c #EAC297",
"8X c #E7C298",
"9X c #EBC39A",
"0X c #ECC399",
"qX c #EBC499",
"wX c #EBC59A",
"eX c #ECC499",
/* pixels */
"2XeXqXqX{.{.}.{.{.*X{.{.].T.E.U.T.*X{.{.{.9XqXqX8X8X0XqXqXT.U.U.E.].-X*X{.}.{.-X{.-X7XqXeX6X-X-X-X*X",
"2XeXqXqX{.{.=X*X[.}.{.*X].U.T.U.U.*X{.{.{.qXqXqX8X8X0XqXqXT.U.U.W._.=X*X{.{.*X{.{.-XqXqXqX2XqXqXqX3X",
"3XeXeXqX{.{.*X=X{.{.{.{.].U.T.I.T.*X*X{.*X9XeXqX6X7X9X0XqXT.U.T.T._.*X*X{.-X{.{.{.-X9X9XeX2X7X0XqX3X",
"3XeXqXqX{.{.*X=X*X3X<X3X{.U.R.U.T.*XS 4.4.4.4./ 0.3X0XqXqXT.U.T.T._.*X*X{.}.{.-X{.-X9XqXqX2X0X0XwX3X",
"3X9XwXwX{.*X*X=X:XeXeXeX}.U.U.U.T.C k.J.i i ^ g.) l l l l 9 w j.T.W.=X{.{.*X{.*X{.].}.}.}.].0X0XqX3X",
"3X9XwXwX=X*X}.*X:XqXeXeX}.U.I.U.W.o L.> v e a ^ :.K S.S.S.S.S.M V._.=X*X{.{.*X*X{._.T.I.R.R.7X7XqX3X",
"3X9XwXwX]._._._.-XeXeX7X-XT.T.T.W.O P.o K K e M :.( +X5X5X).(.H.w ].-X{.{.{.*X*X=X_.T.R.R.T.9X0XqX3X",
"3X0XqXqXT.U.U.I.}.eXqX0X<X*X{.=X'.O L.o K K e i J./ p.5X).(.5 |.|.@ q {.{.{.*X*X*X_.T.I.R.T.9X9XwX3X",
"2X0X7X0XT.T.T.I.}.eXeX0X<X{.{.}.'.o L.. K K K e Q / i..X/.a D.5X5X.Xk.g *X:X2X>X,X{.U.T.U.T.qX9XqX8X",
"2X0XqXqXT.T.T.I.}.eXqXeX<X=X{.}.{.+ L.o K K K 5 Y / *. XQ.5 |.5X5X~.G.H.w >X8X8X9X=XE.U.U.T.7X9XqX3X",
"2XeXqXqXT.E.E.I.=XeXeXqX<X{.{.*X}.+ L.o K K K e Y / _ ~.5 D.5X@X/.z.q H.. o # # # # 2.V.P.T.8XqXqX3X",
"2XeXqXqXE.E.E.I.=XwXqXqX<X{.{.=X;Xo L.o K K K q Y / _ x.K D.@X/.z.w @XH.y ;.c.#X#X%X] 6 6 0.&XqXqX3X",
"6XqXqXqXT.E.E.I.=XwXqXqX<X{.{.=X-Xo L.o K K K e Y / #.v B.@X~.k.e 5X5XOXk., # y t +.y.b.$X` 6 A.8X8X",
"-X:X>X>X_.T.E.I.-X9XeXeX<X{.{.=X-Xo g.o K K K 5 Y / N ( S.).u.m @X5X@X~.~.d.&.&X9X0.$ 7 r.$XM.o qX3X",
"{.{.{.*XT.T.T.K.=X9XeXeX<X{.{.*X-Xo e.+ K K K q B ^   a.(.i.P XX5XOXOXx.$.u._ &.0XN...y.;.=.[ D -X{.",
"{.{.{.}.T.U.T.I.=XeXeXeX>X{.{.=X-X+ e.o K K K w s I e x.3.#.XXOX.X~.( _ @.@.O.A.A.=.b.-.R Y E I.T.I.",
"{.{.{.*XT.E.T.L.}.eXqX7X<X{.}.}.%.X M o K m 1 % M I *.u.( G..X/.( ~ #.i.@Xp.| A.+.b.=.{ j.I.I.E.T.I.",
"{.{.{.*XT.T.I.U.T.].W.].[.{.{.| ;.-.' o N u -.=.F ^ ~ *.G./.Y n a.a.5X@X.X3.< =.b.+.J h.U.P.I.R.T.I.",
"[.{.*X*Xs s v s s s s s h M z ;.M.#Xn.] 1 ;.$XM.;.H ~ F./.! a.a./..XoX X~.F.v [ ;.| C._.].T.I.E.R.U.",
"'.{.=XS 4.4.,.B               q y r r 8 o A r r q % 3 n v # b K n v s h v v  .b.` 8 S N.=X].I.E.U.U.",
"[.{.*XN.5 4 B g.f.f.f.f.f.f.f.f.f.f.f.f.f.f.w.>.>.>.>.>.5.f.f.,.>.>.>.>.>.I ` $XA k 4 0.}.].I.E.T.T.",
"{.{.*X'.@ d.) 3 > 3 3 3 3 2 3 3 3 3 3 3 3 3 > = = = = = 3 3 3 = = = = = = $ u M.Z @ %._.}.'.L.T.T.U.",
"[.{.*X'., 4XOXz.z.z.z.z.x.z.z.z.z.z.z.z.z.z.z.z.z.z.z.z.z.z.z.z.z.z.z.z.z.z.$.$ ~ v 2.{.-X'.K.T.T.P.",
"[.{.{.&X, 5X5X4XOX^.^.~.OX@X@X4X/.^.(.5X+X/.~.~.~.~./././.~.~.~.^.^.^.^.^.^.Q.F.F.N 2.{.}.[.R.E.T.I.",
"[.{.{.-XA.q 5X5X5X+X^.^.^.~.^.~.^.^./.^./.^.!.!.^.!.^.!.!.!.|.^.^.!.^.~.^.^.^.~.~.N 2.{.}._.U.U.U.U.",
"[.{.{.-X'.q 5X5X5X5XoX~.^.^.^.^.^.!.^.^.!.^.^.!.^.^.~.^.!.!./.!.Q.Q.^.^.~.^.^.~.x.F q.{.-X'.I.U.U.P.",
"{.{.{.;X`.L H.5X5X5X+X(.^.^.~.~.^.^.(.!.!.!.~.^.~.^.~.!.!.l.d.d.d.d.d.~.^.~.(.^.! 2.{.{.-X].P.U.U.P.",
"_._._.[.>XA.e 5X5X5X5XoX~.^.^.^.^.^.^.^.^.^.!.(.^.^.^.z.s.d - - - ; w u.k.!.!.~.! &.{.-X}.'.U.U.U.I.",
"I.U.I.T.>X;XL S.5X5X5X X^.^.^.^.^.^.^.^.^.~.^.~.~.~.k.F 0 } { { R R 6.8 a u.~.l.Q 5.*X{.-X'.T.Y.U.Y.",
"I.U.R.R.>XqXZ.F 5X5X4X).^.^.^.^.^.^.^.!.^.~.^.^.~.k.G { { x * # $ % j { <.S d.( Q _.{.{.{.[.{.{.{.{.",
"I.U.U.T.>XqX*X%.B.5XoX~.^.^.^.^.^.^.^.^.^.^.^.^.l.J { U 1 % V H K Z % - x o.J ~ 4._.*X{.*X{.*X*X{.'.",
"I.R.T.T.:X;X&.A K @X).~.^.^.^.^.^.^.^.^.^.^.~.k.K W U 1 V Z ( [ [ H V y < x X.D 5.T.{.*X{.{.*X{.{.{.",
"I.T.I.E.&X| z j S p.^.^.~.~.~.^.!.^.^.~.~.~.~.3.d { < b P ( L L L b b b y < D f E E.-X-X-X{.*X=X{.[.",
"P.T.I.T.J R } 9 % * N N N N N Z N Z N N N Z N J W p 1 L [ L , % % % b b b 7 2 E z N.eXeXqX<X*X*X[.{.",
"I.T.U.h X.} 8 g % 6 r $ 7 7 7 7 X +.  8 7 7 , 9 { 1 V ~ H , -.;.y.+.% b b y 3 j 4 8.0X0X9X<X*X-X{.{.",
"P.E.I.o 7.; Z r u -.# X + + + + y.7   + + O o 0 x , L L V # $X#X#Xn.. V b b 7 9 p 8.9X0XqX2X*X-X{.'.",
"P.U.U.X 1.@ r u ;.d 1.&.<.<.& =.r h.h.j.N.&X0.0 D , L Z V + #X#Xn.n.X b b b 1 0 p 8.9XeXeX,X*X=X{.[.",
"P.U.U.X W   7 ..9 1.f o O D 7.; N._.T.W.[.qXZ.2 f , V V V + r.n.m.n.X b b b 1 9 0 8.0XqXeX2X*X*X{.[.",
"P.U.I.X o.c   0 7.j q H V $ U 9.% o o O X o X 2 o.9 1 V b V o .   X b b V 7 3 o.p 8.9XqX9X2X{.=X{.[.",
"P.R.I.Y.> W c 0 { 6 7 o o 8 O T o ;.%X%X%X#Xr.[ 0 p 7 g b b V V V V b V b 7 0 p Q *XqX9X7X<X*X{.{.[.",
"P.U.I.T.C.; x 0 D , 8 [ A 7 + T o $ $ $ @ % % % p } 0 8 V b V V b b b V q 2 W d &.;XqX0XqX,X{.{.[.{.",
"Y.I.P.T.'.C.+ ; z ; , X X 7 * E X *X{.=X*XeXeXeXv.p W 4 8 t l V b b y r : X.j &.{.-XqXqXqX3X{.=X{.{.",
"3X9XqXqX*X;XC.f c j < q q ; U T 4 *X{.{.*X9X9XeX7Xq.z E 4 & q 8 q q & 2 W f &.}.*X-XeXqX9X3X{.{.{.{.",
"3X9XeXqX*X*X=Xq.z T j * * x U d Y.{.{.-X*X9X9XeX6X9Xt.D x W : * & * o.x x &.{.;X{.*X7XqX9X3XeXqXqX3X",
"2XeXeXqX*X=X{.{.q.D x j j j D V.W.{.{.-X*XqXeXqX8X3XqXt.H f j j j j z S O.{.-X*X{.-X9XeX9X3X9XqXqX3X",
"2X9XeXqX*X=X{.{.=X:X:X:X[.I.T.U.T.{.{.*X{.:X:X:X;X8XeXqXqXT.T.U.E.].{.*X*X}.-X[.{.-X0XeXqX3XqXqXqX3X",
"2X0XqXeX*X=X*X{.:XqX9X9X=XL.I.R.T.{.{.}.[.*X{.*X*X2XeXeXqXT.E.U.R._.{.}.{.=X}.{.{.{.=X-X-X-XqXqXqX3X",
"2XeXqXqX*X=X{.{.<XwX9X9X}.U.U.T.T.{.{.*X{.*X{.=X{.9X9XqXqXT.U.U.E.W.{.*X*X=X}.{.{.W.E.I.U.T.9XqXqX2X",
"2XqX7XqX'.{.'.].:XeXqXwX=XP.K.I.T.*X{.*X{.{.{.-X{.8XqXqXqXI.Y.P.I.W.{.{.*X*X=X{.{.].T.I.U.T.eXeXeX8X",
"2XqXqXqXT.U.I.U.=XeXeXqX9XwXqX9X:X{.{.*X[.*X{.{.{.9XqXqXqX*X{.*X{.{.{.*X*X*X{.{.*X].T.U.U._.0XeX9X2X"
};
