/* XPM */
static char *Group_1bb_1bibe511676372864[] = {
/* columns rows colors chars-per-pixel */
"51 51 128 2 ",
"   c #172122",
".  c #1B2424",
"X  c #1F2827",
"o  c #2B3331",
"O  c #333A36",
"+  c #363E3A",
"@  c #3B433E",
"#  c #494F48",
"$  c #5B6055",
"%  c #5F6458",
"&  c #606458",
"*  c #696F65",
"=  c #6D7163",
"-  c #6D7368",
";  c #727466",
":  c #73776D",
">  c #7B7E6E",
",  c #767B72",
"<  c #C97E23",
"1  c #957451",
"2  c #987552",
"3  c #9A7957",
"4  c #9C7F5F",
"5  c #A37D56",
"6  c #7F8273",
"7  c #CE8327",
"8  c #CB822B",
"9  c #D6892D",
"0  c #C9873B",
"q  c #DD8F32",
"w  c #DD9034",
"e  c #E19336",
"r  c #8F8772",
"t  c #AC8761",
"y  c #A88B6D",
"u  c #B68B60",
"i  c #A78E71",
"p  c #AC9173",
"a  c #BB9C7B",
"s  c #D39347",
"d  c #DC9A4D",
"f  c #CD9658",
"g  c #E39A41",
"h  c #EA9C40",
"j  c #E6A356",
"k  c #E8A557",
"l  c #C69463",
"z  c #CA9663",
"x  c #CD9966",
"c  c #C79B6C",
"v  c #CE9B6A",
"b  c #D19D67",
"n  c #D09D6B",
"m  c #CD9F70",
"M  c #CEA06F",
"N  c #D7A061",
"B  c #D1A06F",
"V  c #DFA768",
"C  c #CFA273",
"Z  c #CEA579",
"A  c #D2A474",
"S  c #D7A876",
"D  c #DAAA74",
"F  c #D2A779",
"G  c #D5AB7D",
"H  c #D8AB7D",
"J  c #3A6D8F",
"K  c #427497",
"L  c #447799",
"P  c #6D8692",
"I  c #5183A5",
"U  c #7F98A4",
"Y  c #9F9F89",
"T  c #AAAA91",
"R  c #A8AB9D",
"E  c #B1B097",
"W  c #B6B59B",
"Q  c #BAB89D",
"!  c #8FA5A4",
"~  c #97ACAC",
"^  c #BEBBA1",
"/  c #A7BBBB",
"(  c #CDA980",
")  c #D6AD80",
"_  c #D9AE81",
"`  c #D2B083",
"'  c #DBB285",
"]  c #D4B68D",
"[  c #DEB58A",
"{  c #DFB88D",
"}  c #D7B790",
"|  c #D2BB99",
" . c #E0B487",
".. c #E6B987",
"X. c #E0B68B",
"o. c #E2BA8E",
"O. c #E8BE8E",
"+. c #E5BD93",
"@. c #E8BF95",
"#. c #C0BEA2",
"$. c #D5C19B",
"%. c #DCC39F",
"&. c #E7C095",
"*. c #E9C296",
"=. c #EBC499",
"-. c #C6C3A7",
";. c #CCC3A4",
":. c #CAC7AA",
">. c #CECAAD",
",. c #D4C5A3",
"<. c #D9C9A5",
"1. c #D3CCAD",
"2. c #DBCFAC",
"3. c #D5D1B2",
"4. c #DBD5B6",
"5. c #DDD9B9",
"6. c #E9CCA4",
"7. c #E0D0AC",
"8. c #E5D5B1",
"9. c #E1DCBD",
"0. c #ADC1C1",
"q. c #E6E1C3",
"w. c #EEE9CB",
"e. c #F5EBCC",
"r. c #F3EDD0",
"t. c #F7F2D4",
"y. c #F8F2D5",
"u. c #FDF7DA",
/* pixels */
"+.=.=.=.' G H ) G ) G G A v v x x F ) G G { =.=.*.*.*.=.=.[ v z v v G ) ) G ) G G G ' =.=.=.+.[ _ ' ) ",
"+.=.=.=.H G ) ) G H G ) A v v x x F ) F G o.*.=.*.&.=.=.=.[ v x v A F ) G G G ) ) G ' =.=.=.+.=.=.=.+.",
"+.=.=.=.) G H ) G ) G ) F v v x x A ) ) G { =.=.*.*.*.=.=.' v z v B F ) ) G G ) G G ' =.=.=.@.=.=.=.+.",
"+.=.=.=.) H H ` ) { o.o._ b v z x Z ) ) Z G ) G ) ' *.=.=.[ v v v v F ) G G G ) G ) ' =.=.=.@.=.=.=.+.",
"+.=.=.=.` G ) _ _ =.=.*.' v x x c G ) ( G G G G G [ =.=.=. .v z x v F ) G G ) G G G G H H _ _ =.=.@.+.",
"+.=.=.=.' H H ) [ =.=.=. .n z z c Z ) G F G _ G ) [ &.=.=. .x x z v F ) G G G ) G G C v b n B =.@.6.+.",
"@.=.=.=.G A C Z _ =.=.=. .A x v v F ) G F G G G ) [ *.*.=.[ c v z m G _ Z ) H ) ) G m x x b B @.=.=.+.",
"+.=.=.=.C x x x H *.=.=.o.) G G G ) ) G G G G G G [ @.=.=.o.G G F G G ` G G H ) ) ) m v x x A =.=.=.+.",
"+.=.=.=.B b x x F @.=.=.o.' G H ) Z G G G G G G G { *.=.=.o.G G G G G ) G ) [ [ X. .S x x x B =.=.=.@.",
"+.=.=.=.A x v x H @.=.=.o._ G _ ) ' ' ' ) G G G ) [ *.=.=.+.) G ) ) G ) G _ o.=.@.@.) n v x A =.=.=.@.",
"+.=.=.=.A x v z H =.=.=.o._ G _ ) ] &.&.o.' G ) _ [ =.=.=.+.G G ) G G H G _ o.=.@.@.H x x v B =.=.=.@.",
"+.=.=.=.A b n x G =.=.=.o._ G ) _ +.=.=.+.' G ) ) [ *.*.*.{ G G ) ) G _ G _ o.=.6.@._ n n x A @.=.=.@.",
"+.=.=.=.C v v x H @.=.=.+._ G ) _ +.=.=.&.' G ) ) ' *.=.=.+.G G ) G C A A F ..=.@.=._ n v v B =.=.=.@.",
"' +.{ +.C v v f _ @.=.=.+._ G ) _ o.=.=.{ ' G ) ) ' o.o.{ ] G G ) F m x x B  .=.=.@._ n v n A =.=.=.@.",
") ) ) _ v v v z H @.=.=.o._ G ) ` o.=.=.+.' G H ) ) ` _ ` ) Z G ) G v v z n  .@.@.@._ x v v v  .]  .[ ",
"G G H ) m v v z H @.=.=.o._ G ) H o.=.=.&.' G S V V S H H ) Z H _ F v x x b  .=.=.@._ n b v z n n n x ",
"F G _ ) v v v z H *.=.=.+._ ) G ' o.=.=.+.' G D j k D G ) G Z ) ) F v v v v  .=.=.&.H b x x z z v v l ",
"G G G ) m v v z n H _ _ G G G ) ' +.=.=.+.A f s e g j V H H G ) H F v v v v ' *.=.&.H b z x l z v v z ",
"F G _ ) v x x z x v v v B G G ) ' +.=.=.+.x 0 7 q e h k D G Z ) ) G v x v v ' =.=.@._ A v n v z v v z ",
"G F _ ) m x z z l x v v n G ) ) ` o.=.O.N s 8 < 7 9 w g d N G G H G v n v v  .=.=.*.[ F G F C f b x z ",
"Z G ) ) m n v v x x b b B G _ ) _ +.=...s < < < < < 9 w w d A G G F v v x n  .=.=.=.[ H G H C z v v x ",
"G G ) ) ' X.X.X.n v n v F  .+.+.o.+.=.} r * * - , , : , 6 Y ] o.+._ A x v n  .=.=.*.' G H ` Z z v b v ",
"Z G ) ) X.@.=.=.S x v v S @.=.=.+.&.=.| P J J K I L L L I U | =.=.o.A x n v H o.o.[ _ G G G Z x v v x ",
"G G ) ) X.@.6.@.S v v v H @.=.=.O.o.X.} R ! ! ~ 0.0./ / 0.-.%.=.=...B n v x b B A B A H G H Z f x v l ",
"Z G ) _ { =.=.=.F b v v S @.=.=.X.S A ' <.4.4.9.r.u.u.u.u.e.6.=.=. .A n v z z x v x M G H ` C z x x z ",
"F F ) ) { @.=.=.S v v b H +.=.=. .A ` | 2.4.4.5.q.w.y.u.u.r.8.6.=.o.n x x z z x v x M H G H C z x x x ",
"G G G ) { =.=.=.H x v x H @.=.=.X.A $.3.-.^ #.-.3.9.r.u.u.r.9.2.=.o.F A A B b x v z v G G ) Z l x x l ",
"Z Z F G [ =.=.=.F x x v S @.=.=.X.A $.-.6 $ $ > ^ 9.r.u.u.r.9.7.=.&.X.{ .. .A b v v A G H ` Z z x x l ",
"v v m B ' @.=.6.F x x x H +.=.=.X.A $.Q # . o $ E q.r.u.u.r.9.7.=.*.&.=.=.+.S x b x M H ) G Z z z z l ",
"z x z x _ =.=.@.S x x x D &.=.=.X.A $.Q # o * Y #.9.r.u.u.r.9.7.=.=.&.=.=.+.S x v v C G G ) Z C C C m ",
"z x z n  .@.=.=.F v z x H +.=.=.X.A $.Q # + > ^ 3.9.r.u.u.e.9.2.=.&.&.=.=.&.S z M v C G G G G ) G G G ",
"z x x b  .=.=.=.H v x x H @.=.=.X.A $.Q # X @ ; ^ 9.r.u.u.e.9.7.=.&.O.=.=.O.D z v v M G G G G ` G G Z ",
"z v x n  .*.=.=._ F C Z _ &.=.=.o.A $.Q # . o % E 9.t.u.u.r.5.7.=.=.+.=.=.+.S z v x n ) ) ) G ) H G Z ",
"l x z n ' @.=.=.' _ ) G [ *.=.=.X.A $.Q # O ; T :.9.r.u.u.r.9.7.=.=.*.=.=.@.S x b v A o.o.{ ) ) H G G ",
"z x x b _ @.@.@.' ) G G { +.*.*.' A $.Q # O > W >.q.r.u.u.r.5.7.*.+.+.=.=.@.S z x v F =.=.=.{ ) ) G G ",
"l x x v ) o.] [ ) ) ) G ) _ _ ' F C $.Q # . + = W 9.r.u.u.r.9.2.' ' +.=.@.@.S z x x H =.=.@.o.) ) G F ",
"l v x b A G ) G G ) G G A x x x z c $.Q #   o & E 9.t.u.u.r.5.$.c A  .=.=.=.S z z v H @.=.=.o.) _ F F ",
"l v x n m ) G G Z ) G G A x b x x c $.Q # O 6 ^ 1.9.t.u.u.w.9.$.v A o.=.=.+._ m m n ) @.=.=.{ ) ) G F ",
"l x z n F ) ) G G H H G A v v x v C ,.#.* & T 4.5.5.w.y.u.r.5.$.C A ..=.=.=.[ G ) ) ' 6.=.=.X.) ) F F ",
"l x z n m ) ) ) Z ) H F A x v x v G <.4.>.>.3.4.4.4.5.q.t.r.5.$.M A o.=.=.=.[ G ) G [ @.=.@.{ ) ) F F ",
"l x z v Z ) ) G G ) ) G A v v x v G | 1.,.-.:.;.,.#.#.,.4.4.<.} v A [ +.+.+.' ) G G _ =.=.=.[ ) H G F ",
"l x f v Z ) ( G G ) G G A x v x x F _ ( y i i i i 4 1 1 3 t c v b B ) ' ' ' ' ) ) G ] *.=.=.X.) H G G ",
"c v v m Z H G G Z G G G C v v x v G G ) Z m a p y 4 2 5 u l z x x B F ) ) ) ) ) G ) _ =.=.=.X.) ) ( G ",
"+.=.=.=.' ` G G G H G ) A z v v v A G ) ) +.=.=.@.@.=.=.@.[ x x v n A G ) H ) ) ) ) ' *.=.@.{ ) ) ) ) ",
"+.=.=.=.' _ ) G G H G ) A x v x v F G ) ( +.=.=.=.@.=.=.=. .v v v n F G G ) G ) ) G ' @.=.=.+.=.=.=.+.",
"+.=.=.=._ ) G G Z H ) ) A v x v v A G ) _ +.@.=.@.@.=.=.=. .v v v n F G ) G _ ) G G ' =.=.=.+.=.=.=.+.",
"+.=.=.=._ ) G H ` { { [ G v z v v F G ) ) _ ' ' ' o.=.=.=.[ v v v v A G ) ) H ) G G ' =.=.@.+.@.@.=.@.",
"+.=.=.=._ ) G H [ =.=.=.[ v x x v A G ) G G ) ) ) { @.=.=. .v x v v A G ) ) ) _ G G ( ' _ _ [ =.6.=.+.",
"+.=.=.=._ ) G H ' =.=.=. .v z x v A G G G G G ) H { &.=.=.[ v x x v F G ) ) ) ) G G m v l b A =.=.=.+.",
"+.=.=.=.) F Z G ' =.=.=. .c l l x Z G H G G G G G { &.=.=.[ z z z v m G ) ) G _ G G m v z x B =.=.=.@.",
"@.=.*.=.A x z z G *.=.=.=.=.=.=.o._ G G G G G G G [ &.=.=.o.G ` ) ( G G ) ) ) H G ) m x x b A =.=.=.@."
};
