/* XPM */
static char *_5d490f49c914e49d5180d7c72595048Ys3KBIOL0ZCkuCHP[] = {
/* columns rows colors chars-per-pixel */
"50 50 130 2 ",
"   c #111B1D",
".  c #2A3230",
"X  c #363E39",
"o  c #434A43",
"O  c #5C6156",
"+  c #757869",
"@  c #C97E23",
"#  c #8B6948",
"$  c #906D49",
"%  c #947552",
"&  c #9A7B5B",
"*  c #A2794F",
"=  c #C9822D",
"-  c #D28629",
";  c #D4882B",
":  c #D48A31",
">  c #DD8F31",
",  c #DF9134",
"<  c #DC933B",
"1  c #E6993D",
"2  c #9B8264",
"3  c #A08567",
"4  c #BB8E62",
"5  c #A78F72",
"6  c #A79072",
"7  c #AD9172",
"8  c #BC9D7B",
"9  c #CB8F4F",
"0  c #C89154",
"q  c #C7925F",
"w  c #EFA143",
"e  c #EBA24A",
"r  c #E8A352",
"t  c #C79463",
"y  c #CA9663",
"u  c #CD9966",
"i  c #C79768",
"p  c #C3996B",
"a  c #CD9C6B",
"s  c #D09B66",
"d  c #D09D6A",
"f  c #C39D75",
"g  c #CD9E70",
"h  c #CFA06F",
"j  c #D2A26F",
"k  c #D8A66D",
"l  c #DFA96C",
"z  c #CEA173",
"x  c #C6A47D",
"c  c #CFA579",
"v  c #D2A373",
"b  c #D1A679",
"n  c #D4AB7D",
"m  c #D5AD7F",
"M  c #D7AE7E",
"N  c #D7AE7F",
"B  c #D9AB7C",
"V  c #D9AE7D",
"C  c #D8AD7F",
"Z  c #D8AE7F",
"A  c #DAAE7E",
"S  c #E2A761",
"D  c #E0AA69",
"F  c #E3B47C",
"G  c #30668D",
"H  c #3D7399",
"J  c #457492",
"K  c #497897",
"L  c #40769C",
"P  c #53819F",
"I  c #4B80A6",
"U  c #5887A4",
"Y  c #618FAD",
"T  c #9B9C86",
"R  c #A7A78F",
"E  c #A8A790",
"W  c #BCAE97",
"Q  c #D5AC80",
"!  c #D6AC80",
"~  c #D7AD83",
"^  c #D6AF84",
"/  c #D8AD80",
"(  c #DAAE81",
")  c #D8AE82",
"_  c #D7B083",
"`  c #D7B184",
"'  c #D9B083",
"]  c #D9B185",
"[  c #DAB184",
"{  c #DBB388",
"}  c #DBB588",
"|  c #DDB489",
" . c #DDB589",
".. c #DFB88B",
"X. c #DEB88C",
"o. c #C4B49B",
"O. c #E0B68C",
"+. c #E1B98A",
"@. c #E1B88D",
"#. c #E1B98F",
"$. c #E4BD92",
"%. c #E5BE93",
"&. c #E5BE94",
"*. c #C1BFA3",
"=. c #E7C095",
"-. c #E7C296",
";. c #EBC397",
":. c #ECC397",
">. c #EBC497",
",. c #E7C298",
"<. c #EBC398",
"1. c #ECC398",
"2. c #ECC39A",
"3. c #EBC599",
"4. c #EAC49A",
"5. c #EBC69B",
"6. c #ECC498",
"7. c #ECC599",
"8. c #ECC49A",
"9. c #EBC69D",
"0. c #CDCBAC",
"q. c #DAD6B6",
"w. c #DDD9B9",
"e. c #EED2AB",
"r. c #E3DEBF",
"t. c #E9E4C6",
"y. c #EBE6C8",
"u. c #EFEACC",
"i. c #F2ECCF",
"p. c #FDF7DA",
/* pixels */
"%.8.3.<.n n / Q b / n n v a a u a ! Q n n ,.<.<.,.-.1.3.<.a u u d b ' Q n N Q Q n / <.8.3.%.{ / / ` ",
"%.8.<.3.n n / Q n Q n Q v u d t u N N n n <.3.3.-.,.1.3.3.a u a d b / N n N Q Q n ' 8.8.3.&.9.<.<.&.",
"%.3.>.<.n n N Q n n N Q v u a u a Q N n n <.3.1.-.,.<.<.1.i y a a z Q Q n N N n n ' 1.8.3.&.<.1.<.&.",
"&.8.3.3.n n ' / N %.@.@.B u u u u Q Q n b n n Q b <.1.<.9.a u a a z Q n n N n N n ' <.3.3.%.<.8.9.&.",
"&.1.3.<.N Q Q /  .8.8.1./ u u u a ^ Q n c N n n n -.1.3.9.u y y a z Q N n / Z Q n b B Z B B <.1.3.&.",
"&.<.<.3.Q / Q /  .9.8.>./ u t u g ^ N n b Z n N n ;.3.3.9.a s t a z / N n n n Q n z u y u a <.<.3.&.",
"&.<.1.9.v z z z ] 8.3.8.[ a u a g Q Q N n N n N Q &.<.,.9.g u i a z N n / N Q Q / z u u s a :.<.3.&.",
"%.<.9.9.a u u u Z 8.;.1.+./ / / c Q Q Q b N n n ! &.<.<.<./ n ! n n / n n N Q Q / z a u u a 1.<.<.&.",
"%.<.<.3.a a a y Z 8.8.:.+.! n / b ! N n b N n Z n ,.1.<.3.Q n Z Q n / n n  .@...O.n a u a a 1.1.<.&.",
"%.<.3.3.a u a y Z 8.>.8.+.! n Q n { { { Q n n Z ! <.8.<.9.Q n Q Q b / Z /  .9.<.1.Q s a u a 1.1.9.&.",
"%.3.<.9.a s d y / ;.3.9.+.N n ] ^ <.3.<.@.Q n ] Q &.1.1.9.n n Z Q n Z n N +.3.3.9./ a s u a <.1.3.&.",
"$.<.<.3.j s d y / 3.8.9.+.n n / ! <.3.3.%.Z n ' n -.1.<.8.n n Z n b Z N Q +.3.3.1./ s d a a <.1.3.-.",
"$.<.<.3.g s d y / 9.3.9...N n / ^ 8.3.3.%.n n / n -.3.<.8.n n N Q v v a g } <.3.9.) d a s g <.1.,.&.",
"] X.O.+.a a d q { 1.3.8.+.n n / Q 8.3.3.@.Z n Q Q  ...X.X.n n Q ! g a y y / 3.<.1.) d a d a 1.9.,.,.",
"n n Q Q a a a q / 1.8.8.@.n n Q Q <.3.3.@.Q n N Q N n N N b n Q ! a s y u Z ;.<.2./ s d a i [ / Q n ",
"n n n Z a a a t Z :.8.8.+.n N n ] 3.<.3.X.n n l r l n N Q c n _ N j u d y Z 8.8.9./ d d s y u u a y ",
"n n / Q a s s y Z >.3.8. .n Q / / 3.8.3.$.B Q S w S n Q Q N n Q Q z d a y Z :.8.8.Z d u u t y s u t ",
"b n Z Q a s a t i v v v b n Z Q ] 9.8.9.O.0 = : , 1 e l / Q n Q Q a a u u A 8.8.>.Z s t u y y u u i ",
"n b N ! i a u y t s u u v n Z Q ] <.8.3.X.9 @ - > 1 w D m b n n Q v a a y A :.8.1.{ v v k a q a j y ",
"b n ] / i u a i t s s u v Z ] ' ] <.3.F @ @ @ @ @ ; , , < j N / ! a d a y Z 1.1.8. .Q n Z b s s u y ",
"n n Q Q g v a a u s s a v Q Q Q ` ;.3.F @ @ @ @ @ ; > > , k / ! / z u a y A 8.8.3. .Z n Z b y j u a ",
"b n / Q @.1.<.1.v u s a A 8.8.8.@.<.1.W G G G H L H G H K *.,.4.1.v a d u [ 1.1.8.X.n n Z c q a d a ",
"n n _ Q O.1.1.1.v a d a ( 8.8.:.$.:.1.o.J J J U Y U K U Y o.3.<.1.v a d a j B / n n n n Z c y a u y ",
"c n N _ &.9.2.%.v u s a / 1.8.8.+.Z Z +.q.q.q.y.p.p.p.p.p.e.3.3.<.v d d y y u s u a n n Z b q s u i ",
"b n _ / @.8.8.8.v u d a / 1.8.8.N t z Q q.q.q.t.p.p.p.p.p.e.4.9.:.v u u u y u s a a n n / b t u u u ",
"b n Q Q @.8.3.3.v u a u / 1.8.8.N z q.q.q.q.q.q.q.y.p.p.p.r.q.9.:.b u s s q u d u a n n / c y u u u ",
"b n N Q @.8.3.3.v u s u ( 8.9.8.N a q.0.E R E *.q.y.p.p.p.r.q.4.;.Z Z Z Z k y d u a n N ' b y u u y ",
"z z c c  .8.9.9.v u a u ( 9.1.8.Z z q.R       + q.y.p.p.p.r.q.4.;.;.8.8.:.Z y d a a Q Q Z c u y y i ",
"t u y u } 1.8.8.v u a u / 9.3.3.Z v q.R   . O T q.y.p.p.p.r.q.9.;.%.;.1.:.Z y a u h Q N Q c u i u i ",
"y s s a  .:.:.9.v u u u / 1.;.3.Z a q.R   O q.q.q.y.p.p.p.r.q.9.;.%.3.3.:.Z y h u z n N Q n Q Q n b ",
"t s u u +.8.:.3.v u y u ( 1.3.1.` a q.R   X + E q.y.p.p.p.r.q.9.>.%.:.8.8.A y a a h n n N c Q Q Q b ",
"y s u d  .8.1.9.n g a v | 9.8.8.' a q.R       + q.y.p.p.p.r.q.9.>.=.:.:.:.A t a u a n Q N N Q N n b ",
"t a u s  .8.1.3.] Q m n X.9.3.3.Z h q.R   X + R q.y.p.p.p.r.q.9.,.$.3.3.:.A y s a a ] ] ] n Q / n b ",
"y a u d  .;.3.3.] Z n n X.9.<.9._ h q.R   O q.q.q.y.p.p.p.r.q.9.3.-.3.3.:.A y s s b 8.8.3.@.Q N n b ",
"y a u a ^ $.$.%.! Q N n  .O.@.@.b a q.R   . O T q.y.p.p.p.r.q.&.%.@.3.<.8.Z y y u n :.8.:.%._ / n n ",
"t u u d c n n n n N N n v u s u i g q.R       + q.y.p.p.p.r.q.p a / 9.9.8.Z u t s v 1.8.<.@._ ] n b ",
"t u y d b N n n b N n n j y a u y z q.R   o E *.q.y.p.p.p.r.q.a a / 9.8.8.Z a i a b 1.3.1.$.Q / n b ",
"t u u d c N n N b Z n n v y d u p c q.R   O q.q.q.y.p.p.p.r.q.a d / 8.8.8.O.N N n ^ 3.3.9.@.Q Q n c ",
"t s u d b Q Q n b Z n n v u d u a ` q.q.0.0.q.q.q.w.w.i.p.r.q.a d | 1.8.8.+.Q Q n / 3.<.1.%./ Q n b ",
"t y y d z / Q N b / n n j y a u a Q q.q.q.q.q.q.q.q.q.i.p.r.q.z d ( 8.8.8.@.Q Z Q / <.1.<.@./ n n b ",
"y y t a c ] n Z n / n n v u a u a ! ^ x 2 6 5 5 5 % % % & p g u d b  . . .] Q / N N <.<.9.$.n n b n ",
"i y t a c / n n n Q n n j t d u j / Q Q f 8 7 3 2 # $ * 4 t u u d v N n Z / Q / m { <.3.3.@.n Q n n ",
"%.8.8.8.^ Q n n b ] n Z v u a a a Q n ' Q 9.<.1.&.,.<.<.<.a u a d v n N N N Q Q Q ] 3.<.<.&.n n Q n ",
"%.8.8.9.Q Q n n c / n Q v t a s a n n ' Q 3.<.9.-.&.9.<.9.a y a s z N / n Z Q Q n Q ;.3.<.&.3.<.;.%.",
"%.:.8.3.! Q n n n Z Z Q j y s s a Z n Q Q 3.8.1.-.&.9.1.9.a a u d z n / Q ' Q N n ' 8.2.9.&.<.3.9.%.",
"%.3.8.3./ / n ! n  . . .b t a a a n n Q Q  . . .{ ,.8.8.<.a u u d z n Q Q Z / n n ' 8.1.,.&.1.<.8.&.",
"%.:.>.3.n / n n  .8.8.9.' y u s a n Q / b Q n Q Q &.8.1.<.a u u a h n / Q / / n n n | B ] { 3.1.3.&.",
"%.8.3.3.Z Z n Z  .9.8.8.Z y y u a n n / n n N / n -.1.8.9.a s u s z n / Q Q Z n n h u t a a 1.9.3.&.",
"$.>.<.3.c b b b } 9.3.1.Z y t t u n n Q n N n N n &.1.<.3.i y i y g n N Q Q Q Z n v a y u a 8.8.8.&.",
"%.<.<.3.a a t u / 3.1.9.<.3.3.<. .n Q Q b Z n Q n ;.3.3.3.Q Q Q Q n n Q Q Q N N n z a u a d 8.1.3.&."
};
