/* XPM */
static char *cochecito_1cochecito511676372864[] = {
/* columns rows colors chars-per-pixel */
"51 51 219 2 ",
"   c #0D0807",
".  c #171510",
"X  c #1A1611",
"o  c #1C1A14",
"O  c #221B14",
"+  c #291A16",
"@  c #222017",
"#  c #24231B",
"$  c #2C221C",
"%  c #2C291E",
"&  c #37271B",
"*  c #32231C",
"=  c #322B1E",
"-  c #3B311F",
";  c #2E2C24",
":  c #382721",
">  c #342D22",
",  c #3A2C23",
"<  c #343124",
"1  c #3A3425",
"2  c #3B3823",
"3  c #33322B",
"4  c #3B352A",
"5  c #3C3A2A",
"6  c #3E3D33",
"7  c #47331F",
"8  c #432E26",
"9  c #492F28",
"0  c #473625",
"q  c #433B26",
"w  c #43342A",
"e  c #4A342B",
"r  c #433E2B",
"t  c #4C3C2C",
"y  c #533721",
"u  c #543A22",
"i  c #52372D",
"p  c #54392E",
"a  c #413F35",
"s  c #4B3E33",
"d  c #543C32",
"f  c #5A3D32",
"g  c #45422E",
"h  c #4B432B",
"j  c #514328",
"k  c #5C452A",
"l  c #554A2D",
"z  c #5D4A2C",
"x  c #454233",
"c  c #4B4533",
"v  c #4E4B37",
"b  c #444239",
"n  c #4B463C",
"m  c #554334",
"M  c #5A4334",
"N  c #574B37",
"B  c #524D35",
"V  c #524439",
"C  c #5E4539",
"Z  c #5A4B3A",
"A  c #565233",
"S  c #545139",
"D  c #5B5638",
"F  c #5A553C",
"G  c #664A2D",
"H  c #624235",
"J  c #644639",
"K  c #644C3B",
"L  c #6B4A3C",
"P  c #724D37",
"I  c #625434",
"U  c #6A5432",
"Y  c #6C5C37",
"T  c #63523A",
"R  c #675839",
"E  c #6B5D3A",
"W  c #735332",
"Q  c #785632",
"!  c #7C5D37",
"~  c #745C3A",
"^  c #7C5D3D",
"/  c #66643F",
"(  c #6E623A",
")  c #73623B",
"_  c #7C623D",
"`  c #756A3F",
"'  c #4C4B41",
"]  c #524E41",
"[  c #565347",
"{  c #5A564A",
"}  c #5B594C",
"|  c #6C4D42",
" . c #665946",
".. c #765646",
"X. c #745C44",
"o. c #635F55",
"O. c #6B6541",
"+. c #6F6744",
"@. c #756441",
"#. c #7C6442",
"$. c #736C43",
"%. c #7B6E43",
"&. c #7B644C",
"*. c #7E6D4B",
"=. c #7B7245",
"-. c #7B754A",
";. c #6A6759",
":. c #7C6B56",
">. c #716D5D",
",. c #747162",
"<. c #797665",
"1. c #7A776B",
"2. c #7E7A6A",
"3. c #835E38",
"4. c #81673F",
"5. c #82683F",
"6. c #926C3F",
"7. c #836848",
"8. c #896E4E",
"9. c #926E4B",
"0. c #827646",
"q. c #867946",
"w. c #867C4B",
"e. c #8A7C4A",
"r. c #927246",
"t. c #99734E",
"y. c #836D52",
"u. c #836F59",
"i. c #8E7354",
"p. c #967756",
"a. c #9C7751",
"s. c #957B5D",
"d. c #9B7B5A",
"f. c #A47B53",
"g. c #847C6B",
"h. c #827F71",
"j. c #8E814C",
"k. c #92844E",
"l. c #878252",
"z. c #8B8453",
"x. c #938954",
"c. c #998A52",
"v. c #9A9258",
"b. c #9B965D",
"n. c #AE8355",
"m. c #B78A5E",
"M. c #A39659",
"N. c #AC9C5C",
"B. c #B09E5E",
"V. c #B3A15E",
"C. c #9D8264",
"Z. c #858272",
"A. c #8B8976",
"S. c #8E8B77",
"D. c #938F77",
"F. c #A38361",
"G. c #A68969",
"H. c #AB8B6A",
"J. c #B48C63",
"K. c #A49E61",
"L. c #B8946C",
"P. c #AA8F71",
"I. c #B99A77",
"U. c #A6A264",
"Y. c #ACA464",
"T. c #B9A662",
"R. c #BDAB65",
"E. c #B8AC66",
"W. c #B4AD6A",
"Q. c #B8B36D",
"!. c #BBB671",
"~. c #BDB973",
"^. c #C69363",
"/. c #CA9663",
"(. c #CD9966",
"). c #C5986B",
"_. c #CD9B6A",
"`. c #D09D6B",
"'. c #CE9F72",
"]. c #C1AE66",
"[. c #CAA56D",
"{. c #C4B167",
"}. c #C4B169",
"|. c #C8B56B",
" X c #C5B86D",
".X c #CABA6E",
"XX c #CFA273",
"oX c #C3A27D",
"OX c #CEA67A",
"+X c #D1A374",
"@X c #D1A779",
"#X c #D5AB7D",
"$X c #D8AC7F",
"%X c #C4BD73",
"&X c #CDBE72",
"*X c #CEC274",
"=X c #C8C478",
"-X c #CAC578",
";X c #D1C575",
":X c #D4CB7B",
">X c #D9D17F",
",X c #9C9985",
"<X c #C8A783",
"1X c #D6AD80",
"2X c #D9AE81",
"3X c #DBB285",
"4X c #DEB58A",
"5X c #DFB88E",
"6X c #E0B587",
"7X c #E0B68C",
"8X c #E2BA8E",
"9X c #E4BD93",
"0X c #D6D180",
"qX c #DAD582",
"wX c #DDD884",
"eX c #E7C196",
"rX c #EAC297",
"tX c #E7C299",
"yX c #EBC499",
/* pixels */
"9XyXyXyX3X@X$X2XOX2X#X#X@X_._.(.(.@X#X#X@XeXeXyXeXeXyXyXyX6X_._.(.`.#X2X1X#X1X#X#X#X2XyXyXyX9X6X6X2X2X",
"9XyXyXyX$X#X$X2X#X$X#X$X@X_._.(._.+X$X#X@XeXeXeXyXeXrXyXyX3X_.(.`.'.@X1X#X#X#X1X1X#X3XyXyXyX9XyXyXyX9X",
"9XyXyXyX1X#X$X1X#X#X$X$X@X_._.(.).XX$X#X#X5XrXrXyXrXyXyXyX6X(.(.`.'.@X1X1X#X#X1X1X#X3XyXyXyX9XyXyXyX9X",
"9XyXyXyX1X#X#X1X2X5X5X8X$X`.(.(._.OXy._ r.r.r.5.=.I.rXyXyX3X_.(._.`.+X1X#X#X#X1X#X1X3XyXyXyX9XyXyXyX9X",
"eXyXyXyX3X$X$X1X3XrXrXrX6X[.(.(._.7.8.n.Q 7 z 6.r. .Z Z Z N p ~ ^._.OX1X#X#X#X1X#X#X@X$X$X$X$XyXyXyX9X",
"9XyXyXyX1X1X#X1X4XyXyXyX6X`./.(._.M 7.W 7 g g z _ R -.b.b.b.b.w.7.).@X1X#X$X1X#X#X#XXX_.`.`.+XyXyXyX9X",
"9XyXyXyX#XXXXXXX2XrXyXyX6X_.(.)._.m 4.j 2 A h h U ) v.:X>X:X XE.z.X.OX2X#X#X$X#X1X#X'._.(.(.+XyXyXyX9X",
"9XyXyXyX+X_._._.$XrXyXrX8X2X#X#X#XN 4.j 2 A h q 3.r.q.Q.:X&Xc.$.!.w.1 O.#X#X#X$X1X1X'._.(.(.`.yXyXyX9X",
"9XrXyXyX+X(.(.(.$XrXrXrX8X3X$X$X#Xz 5.j 2 A A h z ~ %.K..Xc.( Q.qX=XN.=.&.$X4X5X7X7X@X_.(.(.+XyXyXyX9X",
"9XyXyXyX+X(.(.(.$X9XyXyX8X3X#X$X#Xl 5.j 2 A A g h U %.N.|.k.O.=XwX:XR.Q.z.&.8XyXrX9X#X`.(.(.+XyXyXyX9X",
"eXyXyXyX+X(.(.(.$XyXyXyX8X1X#X$X#XN 5.j 2 A A g h U ) v.j./ Y.qX:X{.x.+.x.@ a x s s s p./.^.+XyXyXyXrX",
"8XyXyXyX+X`.`./.$XyXyXyX5X2X#X$X3XN ` j 2 A A g j U ) k.-.$.~.:X Xj.` Q.b.3 o.;.1.1.h. .s m F.<XyXyX9X",
"eXyXyXyX+X_.`./.+XyXyXyX9X$X$X$X#XN 4.j 2 A A h j U ( ( =.U.;XR.j.$.=XqXQ.#.3 4 ] { >.,.,.Z.} V <XyXrX",
"4X8X8X8XXX_.(./.$XyXyXyX9X$X#X$X3XN _ u 2 A A g h U I A w.W.R.j.$.=XwX:X}.K.$.+.P.I.:.4 n A.S.<.> tX9X",
"#X$X1X3X[._._./.$X9XyXyX9X$X$X$X$XC Q 7 2 A A g h G - l N.V.l.-.%X0X:X&XB.k.k.*.G.9Xs.Z ,.g.>.;.w 3X3X",
"#X#X#X1X_._.`./.$X9XyXyX8X$X$X$X$XC W 7 2 A A h 7 k j / v.l.l.=X:X;XV.q.=.$.$.*.P.I.>.2.>. .Z K n.+X_.",
"OX#X$X1X_.(._./.$X9XyXyX8X2X2X2XL.5 u & 2 B g ; - k I =.w.j.Y.*XV.x.0.` z.K.-.:.G.u.2.,. .t.f.f._.(./.",
"#X@X$X2X_._._./.+X2X2X2X2X1X#XF.:.} V # 2 c v [ m z Y $.j.U.K.q.=.-.v.W.!.!.$.c g.g.>. .t.^././.(.[./.",
"#X@X$X2X7.X.^ ^ 3.4.3.#.#.7.7.:.Z.S.2.] 5 ] <.A.<. .D q.B.N.w.=.l.W. X;X*X{.j.5 ;.2. .f./.`.(./._.`./.",
"@X#X2Xy._ ! ~ k O X X X X o o x [ } { b # 6 } } [ g 2 A ` D g / ( =.=.=.` ` / O.>.} c &.L.#X`./.`.(./.",
"@X#X1Xy.z l U 6.P U U U U U U ( #.` ` _ ~ #._ ~ P W G W ! ) ) 4.! Q Q Q Q W l ;.Z.n 9 p c.1XXX/._.`._.",
"#X#X1XI.= ( ) G k z z z z z z z z z z z z z z u y y y u u z z k y y y y y 7 , } Z.x & T L.2X+X/._.(._.",
"OX#X3XOX> N.N.) ( ( ( ( ( ( ( ) ) ) ( ( ( ( ( ( Y Y Y Y E ) ( ( ( ~ Y Y Y Y Y F [ B - 8.OX$XXX/._._./.",
"OX@X2XOX1 =X0X%X{.T.T.T.R. X|.|.R.T.E.{. XE.V.R.T.V.T.T.R.].V.V.V.T.T.T.T.V.L.e.` q.l i.#X2XOX/._._./.",
"#X#X1X1X:.l.:XwX>X&X}.}..X;X;X;X%X}. X&X&X|.{.{.}.}.{.}.}.}.}.}.}.}.}.{.{.}.}.].].V.l i.#X2XXX/.(.(./.",
"@X#X1X2XoXg =XwXwX>X;X}.}.].{.{.}.}.}.[.}.}.}.}.}.}.}.}.}.}.!.}.{.].{.{.}.{.}.}.].B.A d.#X2XXX/.(.(./.",
"@X#X1X1X<XS !.wXwXwX:X.X}.}.}.}.}.}.}.}.}.}.{.}.}.}.}.}.{.R.L.N.N.B.B.V.}.{.{.}.T.q.@.L.#X2XXX(.(.(./.",
"OXXX@X#X<Xz.-.:XwXwX>X*X}.}.}.}.}.}.}.}.}.}.|.{.}.}.}.R.B.c.E I I I R %.B.T.{.{.N.Y 8.#X1X1XXX^./.(./.",
"_._._.'.3X<XF W.qXwXwX;X|.}.}.{.}.}.}.}.}.}.{.{.}.}.T.x.@.K d e e w s K R 0.B.].c.Y p.1X1X#XXX)./././.",
"/.(.(._.3X7Xu.z.:XwXwX=X|.{.}.}.}.}.}.}.}.}.}.{.}.].c.@.m f C s e t f | d K e.N.e.~ J.1X#X1XOXXX'.[.'.",
"/._.(._.3X9XoXO. XqX>X&X{.{.}.}.}.}.}.[.}.}.}.}.].M.@.L H t , % % ; > , f | T =.~ 7.'.#X#X#XOX1X2X#X@X",
"^._.(._.3X9XI.X.w.:X;X|.{.{.}.].}.}.}.}.}.}.}.].c.^ K f w < 5 S S S g % > f | K ~ a._.#X1X#X#X2X1X#XOX",
"^.(.(.`.2XI. .d N W..X}.}.{.{.{.}.}.{.{.{.{.{.N.@.C C w 5 S F F F S v g 5 > p J J 9.'.2X2X1XOX1X1X$X@X",
"/._./._.H. .J e 4 I e.c.c.c.c.c.c.c.c.c.c.c.c.q.I M w 1 S / S 5 5 5 5 g g 5 > i p L ).8X8X4X2X2X#X#X#X",
"/.(.(.a.| | C 1 + # 2 5 q g r r 1 c 5 q g r 5 h C d > c F S 6 b b 6 3 2 g r > , f f F.yXyXtX5X1X#X#X#X",
"/.`./., | L , 5 # 3 ; o @ # % # o ' O o # % @ $ d t 1 S S 5 6 Z.Z.2.' # g g 4 : 9 0 s.yXyXtX5X2X1X#X@X",
"^._.(.  ..& x 4 ' o.3 + $ $ X # { ] > & , , 3 ; e 4 5 S c < n ,X,XD.} . g g 5 ; : e p.yXyXyX8X2X3X@X@X",
"^._.(.  ..X ; b o.V | | K ..e n V i.J.m.J.oXI.| e , 5 c x < b D.D.S.} . g g r % : 8 s.yXyXyX8X$X1X@X@X",
"^.(.(.  H + + V s ..d $ o w ..d ..p.a.d.d.H.C.Z 8 8 > r g < 6 ;.;.;.x # g g 2 > e e s.yXyXtX5X#X2X@X@X",
"^.(./.& L H X : ..i < 5 4 + 8 ..w o ; 3 3 3 ; > p p > 4 g g < o . . % g g r ; 1 H d G.yXyXeX5X2X2X#X@X",
"^.(./.).M J f , f ; ; o o % . d + n 1.h.h.g.,.{ w 8 8 < r g x g x g g x g 4 , 9 i &.3XtXyXyX8X$X#X#X@X",
"^.(.^._.L.s e , f ; % b b 3 o i * + = = = > > , w C f , 4 r g g g x r r 5 1 8 J J i.2XtXyXyX7X#X#X#X@X",
").`._.'.+X).1 + i : O . . # $ f * i.#X1X1X8XyXyX<X&.H f , > 5 r g r r 4 , 8 L K p.#X3XtXyXyX5X#X#X#X#X",
"9XyXyXyX3X1XL.K f f , > % * p C d d.#X1X1X9XyXyXyXI.&.J i & * > > > > + 8 L K p.$X2X3XtXyXtX5X2X1X2X$X",
"9XyXyXyX1X1X2XH.K H p & + i H k a.@X#X#X1X4XyXyXyXeX<X&.C H f * + + 9 P M K s.2X$X@X3XrXyXyX9XyXyXyX9X",
"9XyXyXyX1X2X1X#XH...L J J H K f.).+X#X1X1X9XyXyXyXrXeX<Xu.T f H J M J |  .i.2X2X#X$X3XrXyXtXeXyXyXyX9X",
"9XyXyXyX1X2X#X$X2X4X8X4X$X)./._._.@X#X1X1X1X3X3X2X9XtXyXyX4X_._._.XXXX$X#X1X$X1X#X#X3XrXrXeX9XrXyXyX9X",
"9XyXyXyX2X2X#X$X3XyXyXyX6X_./._._.+X#X1X#X1X#X1X1X5X9XyXyX3X_.(._._.XX#X1X1X1X1X#X$X#X2X2X3X3XyXyXyX9X",
"9XyXyXyX2X#X$X$X3XrXyXyX7X_./._._.+X#X#X#X#X#X#X#X4XyXyXyX4X_._._._.XX1X2X1X#X2X@X#XXX_./.(.+XyXyXyX9X",
"9XyXyXyX#X#X@X@X3XrXyXyX3X_.^./.(.XX#X#X#X#X#X#X#X4XtXyXyX4X/.^./.(.XX@X1X1X#X2X#X#XXX_./.(.+XyXyXyXrX",
"9XyXyXyX+X(././.$XrXyXyXyXyXyXyX8X1X#X$X#X#X#X#X#X4XyXyXyXrX#X#X1X#X#X#X1X2X1X#X#X$XXX).(.(.+XyXyXyXrX"
};
