/* XPM */
static char *_00e31c39b1f4f768d45285723c5e15eWjrnKwkAA3v6rrEO[] = {
/* columns rows colors chars-per-pixel */
"50 50 149 2 ",
"   c black",
".  c #111B1D",
"X  c #221414",
"o  c #1E1E20",
"O  c #152124",
"+  c #18272A",
"@  c #1C2D31",
"#  c #2B2322",
"$  c #203338",
"%  c #3F3537",
"&  c #442928",
"*  c #4A2D2B",
"=  c #51302F",
"-  c #4E3736",
";  c #573432",
":  c #5E3836",
">  c #663E20",
",  c #653C3A",
"<  c #4C483D",
"1  c #664537",
"2  c #6B403D",
"3  c #724F36",
"4  c #6F593F",
"5  c #7A5137",
"6  c #72523D",
"7  c #7B5238",
"8  c #7C5A3F",
"9  c #637A37",
"0  c #202E48",
"q  c #28375D",
"w  c #242E63",
"e  c #2A376B",
"r  c #304173",
"t  c #4B4C43",
"y  c #6E4F43",
"u  c #724441",
"i  c #794845",
"p  c #7F5941",
"a  c #7D5648",
"s  c #7E6F5C",
"d  c #7E705C",
"f  c #615460",
"g  c #6F5E64",
"h  c #65596A",
"j  c #706168",
"k  c #855B48",
"l  c #896146",
"z  c #8B634B",
"x  c #93664D",
"c  c #94684E",
"v  c #8F6356",
"b  c #956A52",
"n  c #946B54",
"m  c #86745E",
"M  c #88745D",
"N  c #9F7551",
"B  c #97725D",
"V  c #99725D",
"C  c #AE7E56",
"Z  c #AE7E5A",
"A  c #B07F59",
"S  c #967660",
"D  c #9A7460",
"F  c #9E7965",
"G  c #A77961",
"H  c #A57E68",
"J  c #2F8412",
"K  c #308413",
"L  c #389319",
"P  c #7E8F3C",
"I  c #629E35",
"U  c #42A220",
"Y  c #6E8A40",
"T  c #64935E",
"R  c #699B62",
"E  c #849B46",
"W  c #A78F4E",
"Q  c #AE825C",
"!  c #B2815B",
"~  c #BB875E",
"^  c #8CA751",
"/  c #8DA851",
"(  c #97B35E",
")  c #A5816E",
"_  c #B88962",
"`  c #B2866F",
"'  c #B78E6D",
"]  c #BA906D",
"[  c #A78371",
"{  c #A88371",
"}  c #B28670",
"|  c #BA9171",
" . c #83AE6A",
".. c #88B46E",
"X. c #B5A569",
"o. c #B1AC73",
"O. c #D1875D",
"+. c #C7925F",
"@. c #C79463",
"#. c #CB9663",
"$. c #CD9966",
"%. c #C79768",
"&. c #CD9C6A",
"*. c #DB9265",
"=. c #D09B66",
"-. c #D09D6A",
";. c #C59C75",
":. c #CD9E71",
">. c #E59E6D",
",. c #CFA06F",
"<. c #D2A26F",
"1. c #CEA273",
"2. c #C1A07E",
"3. c #CFA579",
"4. c #D2A474",
"5. c #D1A679",
"6. c #DFA67C",
"7. c #D4AB7D",
"8. c #D9AD7E",
"9. c #EEAA76",
"0. c #F7B77F",
"q. c #30668D",
"w. c #3D7399",
"e. c #897D80",
"r. c #63AB84",
"t. c #74B787",
"y. c #4B80A6",
"u. c #CCA686",
"i. c #D6AD81",
"p. c #D9AE81",
"a. c #D7B083",
"s. c #DAB184",
"d. c #DDB589",
"f. c #DFB88C",
"g. c #E1B78D",
"h. c #E1B98D",
"j. c #E4BD93",
"k. c #83C28B",
"l. c #E7C296",
"z. c #EBC397",
"x. c #EBC499",
"c. c #FCCD9F",
"v. c #FBD2AB",
"b. c #FCDBBC",
"n. c #98D2F7",
"m. c #A3D6F7",
"M. c #AEDAF7",
"N. c #C5E3F7",
"B. c white",
/* pixels */
"j.x.x.x.8.7.8.8.7.i.7.7.4.$.&.$.$.i.i.7.7.x.x.x.l.l.x.x.x.&.$.$.-.5.p.7.7.8.7.7.7.a.x.x.x.j.g.p.p.p.",
"j.x.x.x.7.5.a.i.5.8.7.i.4.$.$.$.&.i.i.7.7.x.` i i i i x.x.&.$.$.-.3.8.8.7.i.i.i.7.a.x.x.x.j.x.x.x.j.",
"j.x.x.x.7.5.8.i.5.p.7.7.4.$.&.#.&.i.i.7.5.` v 2 2 2 2 ` u.&.$.&.,.1.7.i.7.8.i.7.7.s.x.x.x.j.x.x.x.j.",
"j.x.x.x.8.7.a.i.i.j.h.j.7.$.=.$.&.i.i.7.3.i 2 : : : : i { &.$.$.&.1.a.7.7.7.7.a.7.s.x.x.x.j.z.x.x.j.",
"j.x.x.x.i.i.8.i.d.x.x.x.p.$.$.&.&.i.8.5.5.: % $ $ $ $ : ) &.#.#.&.,.i.7.7.i.7.a.7.5.8.8.8.4.x.x.x.j.",
"j.x.x.x.i.i.8.i.d.x.x.x.8.$.#.#.;.i.7.' B : - % % % % : ) #.=.+.&.1.a.7.8.7.8.7.7.1.$.$.=.&.j.x.x.j.",
"j.x.x.x.1.1.1.1.s.x.x.x.p.&.$.&.1.7.8.B : : : : : : : : H &.&.$.&.3.a.7.7.7.7.i.8.1.$.$.=.&.x.x.x.j.",
"j.x.x.x.&.$.$.#.8.x.x.x.g.i.7.p.V : : : : : : : : : : : : : : V 8.5.a.7.7.7.8.a.i.1.$.$.$.&.x.x.x.j.",
"j.x.x.x.&.&.&.#.8.x.x.x.h.8.7.N a : : ; = : : : : : : : : : : a V 5.8.5.8.d.f.f.d.6.&.$.$.-.x.x.x.j.",
"j.x.x.x.&.&.&.#.8.x.x.x.h.8.7.: : : : = & : : : : : : : : : : : : 7.s.8.7.f.x.x.x.i.-.$.$.-.x.x.x.l.",
"j.x.x.x.&.=.-.#.s.x.x.x.h.V : : : : & = : : : : i i i i 2 : : : : 4.8.5.8.f.x.x.x.i.$.-.$.-.x.x.x.j.",
"j.x.x.x.,.=.-.#.8.x.x.x.h.V : 2 : = = ; : 2 2 2 i i i i u 2 : : : V ] 8.i.f.x.x.x.p.-.-.&.-.j.x.x.l.",
"j.x.x.x.&.&.&.#.8.x.x.x.h.V : i : & : : : i i i i i i i i i : : : : c <.-.g.x.x.x.p.&.&.-.&.x.x.x.l.",
"s.g.f.f.,.&.-.#.s.x.x.x.h.G i i : & : 2 i i i i i 2 : : : : : = & : c #.#.p.x.x.x.s.-.$.$.:.x.x.x.j.",
"8.7.8.i.&.&.&.+.p.x.x.x.F k i 2 ; & : 2 i i u 2 2 , : = = = = * & : x $.#.p.x.x.x.p.&.:.-.#.s.s.a.i.",
"5.7.7.i.&.&.&.+.p.x.x.x.: 2 i : = & : 2 i i 2 : : : : & & & & & & : c $.$.8.j.x.x.p.-.-.=.@.=.#.$.%.",
"5.7.i.i.$.-.&.@.7.z.x.x.: : : & = : : : : : : : & & & >.>.>.>.x & & l &.+.8.x.x.x.8.-.#.$.#.#.&.&.@.",
"7.7.8.i.&.-.$.#.$.4.4.4.= ; : & = : = = = = = = l x x >.>.>.>.~ x & l &.=.8.x.z.x.s.-.+.#.#.#.=.&.@.",
"5.7.i.i.%.$.$.#.@.=.$.$.& = : & = : & & & & & & >.>.>.>.>.>.>.>.>.& l &.+.8.x.z.x.s.4.<.4.<.+.=.=.#.",
"5.7.s.i.&.$.#.#.#.$.-.$.& = : & & & >.9.0.0.0.0.0.0.0.0.0.0.0.9.>.& l ,.$.8.z.x.x.d.8.8.8.4.#.<.&.$.",
"5.7.i.i.&.<.&.:.#.-.Z k & * = X X X 3 ! 0.0.0.0.0.0.0.0.O.8 8 6 3 & 1 z +.8.x.x.x.f.8.7.8.5.+.<.&.&.",
"7.7.i.i.j.x.x.x.4.$.z & & & &         p 0.0.0.0.0.0.0.0.7         & & & #.g.x.x.x.f.7.7.8.3.+.&.&.$.",
"7.7.i.i.h.x.x.x.4.$.z & & & & 0.b.B.q.q.q.0.c.b.b.c.0.q.q.q.B.b.0.& & & &.<.8.8.8.5.7.7.a.3.+.&.$.#.",
"3.5.a.i.h.x.x.x.4.$.z & & y D 0.b.B.w.w.w.c.v.b.b.v.c.w.w.w.B.b.0.& & * +.#.#.=.$.&.7.7.a.3.#.&.$.%.",
"5.7.i.i.f.x.x.x.4.$.z & & S x.0.b.B.y.y.y.b.b.b.b.b.b.y.y.y.B.b.h.* & & #.*.#.=.$.&.7.7.p.3.#.$.&.$.",
"5.7.i.i.f.x.x.x.4.$.z & p.s . . M c.c.c.c.c.c.c.c.c.c.c.c.c.c.M . . # & #.+.=.=.$.,.7.7.8.3.#.$.$.#.",
"5.7.8.8.j.x.x.x.5.$.Z l p.s . . t M m o.c.c.c.c.c.c.c.c.2.M M < . . O # 8.<.#.<.$.,.5.7.a.3.#.$.$.@.",
"3.1.3.3.f.x.x.x.4.$.$.$.p.m . . . . . m c.c.c.c.c.c.c.c.M . . . . . . . z.8.=.=.$.,.8.i.s.3.$.#.#.#.",
"#.$.#.-.d.x.x.x.4.$.$.$.. + $ $ + . . . . O.O.O.O.O.O.. . . . + $ . . . . 4 #.,.$.,.i.7.a.3.%.%.&.%.",
"#.=.$.$.d.x.x.x.4.$.$.$.. O + + + + + o . 6 6 6 6 6 6 . O + + + + . . . 6 N #.&.$.1.7.7.8.3.i.i.7.7.",
"#.$.#.-.g.x.x.x.4.$.#.&.. . o . + $ @ + . . . . . . . . + $ $ + . . . . O.+.#.,.$.,.7.7.i.7.i.i.7.3.",
"#.$.$.-.d.x.x.x.7.,.;.;.O.O.O.. + $ $ $ $ $ $ $ $ $ $ $ $ $ $ + . j.9.O.O.O.@.&.&.&.i.i.8.5.a.i.7.3.",
"@.$.$.-.d.x.x.x.a.i.7.7.*.*.*.. O + $ $ $ $ $ $ $ $ $ $ @ + + t d j.X.P P W @.$.$.:.p.s.s.5.p.p.7.7.",
"#.$.$.-.d.x.x.x.s.i.7.7.>.>.>.. . . $ $ $ $ $ $ $ $ $ $ + . . d x.j.^ J J P @.$.=.4.x.x.x.j.i.i.7.7.",
"$.&.$.&.i.j.j.h.i.8.7.7.d.h.f.j.e.r . . . . . . . . . . 0 r r e.g.g.( U J P #.#.$.5.z.x.x.g.i.p.8.5.",
"@.$.$.-.3.7.i.7.7.i.i.7.<.~ ! Q j r 0 0 0 0 0 0 0 0 0 0 e r r g ! ] o.( L E #.#.$.6.x.x.x.j.i.s.7.5.",
"@.$.$.$.5.i.i.7.5.p.7.7.,.Q c x f r r r r r r e r r r r r r r f b D u.x.U E %.&.$.5.x.x.x.g.i.p.5.5.",
"@.$.$.-.5.i.7.7.5.p.7.7.n c c c c n > > 1 w w w w w w w w w e f n D { { U / i.i.i.p.z.x.x.j.i.i.7.5.",
"@.$.$.-.5.i.8.7.5.s.;.' n x b x b D 7 k p g h h h q e e e e f v n D H { L I ^ i.7.p.x.x.x.g.i.7.5.7.",
"@.$.#.-.1.p.i.7.5.p.] D n x b x n D V D B ) { { [ f r r r r c c b G { { K L U a.7.p.x.x.x.j.7.i.7.5.",
"@.$.@.&.3.p.7.7.5.s.' D n x b x b D S D D [ { ) H x c > > > x x c B 9 J n.M.N.U ^ a.z.x.x.j.7.7.7.7.",
"@.$.@.&.3.p.7.7.5.p.' D B x b x b D B D D { { { [ v c 7 7 5 x x c 9 T r.n.m.M.k. .E x.x.x.g.7.i.5.7.",
"j.x.x.x.i.i.7.7.5.8.' V n x b c b V V D D [ [ { H [ { { H v x n n K r.n.n.n.n.N.t.K x.x.x.j.7.7.i.7.",
"j.x.x.x.i.s.7.7.5.a.' D n z b c n V V D D [ [ { [ H { { [ n c c b J r.n.n.n.n.N.k.U x.x.x.j.x.x.x.j.",
"j.x.x.x.i.i.7.7.5.8.;.| V x x c b B B D F [ [ H H H [ [ [ n x x b 9 R t.n.n.n.k.../ x.x.x.j.x.x.x.j.",
"j.x.x.x.i.p.7.7.i.f.d.f.V x c c b B B D D F F F F [ [ [ [ n x c b n Y U n.n.n.U / p.x.x.x.j.x.x.x.j.",
"l.x.x.x.i.8.7.8.d.x.x.x.s.C x c x B B D B D D D S H [ [ [ n c c c b ' i.U U U 7.7.7.p.p.p.p.x.x.x.l.",
"j.x.x.x.i.i.7.i.d.x.x.x.8.~ C ! ` } B D B D D D S [ [ [ [ b A ! Q _ ;.i.^ ^ ^ i.7.<.$.#.-.:.x.x.x.j.",
"j.z.z.x.3.7.3.5.s.x.x.x.s.@.@.#.%.7.B D B B B D B ) [ [ [ z #.@.$.:.7.8.8.i.8.7.7.1.$.#.$.&.x.x.x.j.",
"j.x.x.x.&.$.#.$.8.x.x.x.x.x.x.x.f.7.7.i.7.8.8.i.7.l.z.x.x.i.i.i.7.u.7.i.i.i.i.7.8.1.&.$.&.1.x.x.x.j."
};
