/* XPM */
static char *laura_1laura511676372864[] = {
/* columns rows colors chars-per-pixel */
"51 51 211 2 ",
"   c #0C0808",
".  c #111B1D",
"X  c #1A181A",
"o  c #2A1B17",
"O  c #302219",
"+  c #131E21",
"@  c #141F28",
"#  c #152325",
"$  c #1A2425",
"%  c #18272A",
"&  c #1A2A2E",
"*  c #1C2D33",
"=  c #1C293C",
"-  c #1F3135",
";  c #2A2826",
":  c #372926",
">  c #2C302D",
",  c #263236",
"<  c #203338",
"1  c #333732",
"2  c #3A3437",
"3  c #452A29",
"4  c #4B2D2C",
"5  c #44372E",
"6  c #52312F",
"7  c #463637",
"8  c #433D34",
"9  c #4D3D31",
"0  c #543331",
"q  c #5A3634",
"w  c #553835",
"e  c #5E3836",
"r  c #613B36",
"t  c #643C39",
"y  c #683E3B",
"u  c #4B463C",
"i  c #5C4638",
"p  c #6A4226",
"a  c #654538",
"s  c #6C423E",
"d  c #684938",
"f  c #774E32",
"g  c #744C3D",
"h  c #78533C",
"j  c #71733B",
"k  c #1F2B43",
"l  c #243252",
"z  c #27375C",
"x  c #283165",
"c  c #2D3B6E",
"v  c #363B66",
"b  c #2E3D70",
"n  c #483D4F",
"m  c #3D405E",
"M  c #3F4F5B",
"N  c #3F505A",
"B  c #304173",
"V  c #504B4B",
"C  c #6C4740",
"Z  c #744542",
"A  c #794845",
"S  c #7C4B47",
"D  c #65594A",
"F  c #7B5444",
"G  c #7A5746",
"H  c #7E5449",
"J  c #775C59",
"K  c #776A4B",
"L  c #7B6A56",
"P  c #454869",
"I  c #5A5165",
"U  c #4F5576",
"Y  c #776368",
"T  c #7B7976",
"R  c #80573E",
"E  c #835A49",
"W  c #835C50",
"Q  c #88634A",
"!  c #93674E",
"~  c #93694F",
"^  c #9A6B4D",
"/  c #81774F",
"(  c #9A704F",
")  c #8C6553",
"_  c #846B58",
"`  c #946750",
"'  c #946952",
"]  c #976A56",
"[  c #976F59",
"{  c #986D58",
"}  c #867259",
"|  c #9C7152",
" . c #97715C",
".. c #99735E",
"X. c #AB7353",
"o. c #A67857",
"O. c #A67A56",
"+. c #A97855",
"@. c #856A63",
"#. c #9A7461",
"$. c #957F65",
"%. c #9E7966",
"&. c #A07462",
"*. c #A27B64",
"=. c #A17D6A",
"-. c #398F19",
";. c #44891D",
":. c #4C9726",
">. c #4C8D3C",
",. c #668E2F",
"<. c #42A220",
"1. c #52A12A",
"2. c #58A634",
"3. c #63A535",
"4. c #53934C",
"5. c #718A49",
"6. c #5AAA50",
"7. c #79AA52",
"8. c #679D71",
"9. c #71AE71",
"0. c #939347",
"q. c #8C9356",
"w. c #AC8B4F",
"e. c #AE815C",
"r. c #AF885F",
"t. c #B88657",
"y. c #B2815C",
"u. c #8CAA52",
"i. c #96A857",
"p. c #938260",
"a. c #A5826F",
"s. c #AA8568",
"d. c #B78A69",
"f. c #B48B6A",
"g. c #A78371",
"h. c #A88371",
"j. c #A1897C",
"k. c #AA9078",
"l. c #B99170",
"z. c #BA9773",
"x. c #BF9673",
"c. c #84B36E",
"v. c #AFAD6A",
"b. c #BCAA7A",
"n. c #CA8D5E",
"m. c #C48C61",
"M. c #D38D63",
"N. c #C69363",
"B. c #CA9663",
"V. c #CD9966",
"C. c #C79C6C",
"Z. c #CE9B6A",
"A. c #D99768",
"S. c #D09D6B",
"D. c #C39A75",
"F. c #CD9F71",
"G. c #E49D6D",
"H. c #CEA06F",
"J. c #CEA273",
"K. c #CBAB76",
"L. c #CEA479",
"P. c #C5A879",
"I. c #D2A374",
"U. c #D2A679",
"Y. c #D5AB7D",
"T. c #D9AC7E",
"R. c #E6A775",
"E. c #E6AA7E",
"W. c #F0AE78",
"Q. c #E9B07F",
"!. c #F7B77F",
"~. c #366C93",
"^. c #44799F",
"/. c #72B99C",
"(. c #72B6A5",
"). c #A39B90",
"_. c #87BF8B",
"`. c #82A4BB",
"'. c #A3A6A3",
"]. c #B7B1A6",
"[. c #CAA584",
"{. c #D6AD81",
"}. c #D9AE82",
"|. c #D4AE88",
" X c #CDB481",
".X c #DCB285",
"XX c #DEB68A",
"oX c #DFB88D",
"OX c #E0B487",
"+X c #E0B68B",
"@X c #E2BA8E",
"#X c #F8BB86",
"$X c #E5BD93",
"%X c #C9BEAF",
"&X c #86C4B9",
"*X c #E7C196",
"=X c #EAC297",
"-X c #EBC499",
";X c #F7C597",
":X c #FCCD9F",
">X c #DBC3A8",
",X c #F9CDA7",
"<X c #FCD4AD",
"1X c #E8CFB6",
"2X c #FDDAB8",
"3X c #8BACC3",
"4X c #8ECCDA",
"5X c #AED7D2",
"6X c #99D2F6",
"7X c #A8D7F2",
"8X c #FEF2E7",
/* pixels */
"$X-X-X-X.XY.Y.Y.Y.{.Y.Y.U.Z.Z.V.V.U.{.Y.Y.@X$X-X$X-X$X-X-X+XA.M.Z.H.Y.}.{.Y.}.Y.Y.Y..X-X-X-X$X.X.X}.}.",
"$X-X-X-XT.Y.}.}.Y.{.Y.Y.I.Z.S.V.Z.I.{.Y.Y.@X[.] A S E =.-X+XZ.Z.V.I.U.T.Y.Y.Y.{.{.Y..X-X-X-X*X-X-X-X$X",
"$X-X-X-XY.Y.Y.{.Y.Y.Y.Y.U.S.V.V.V.I.Y.{.[.D.%.H s y s ) D.L.C.V.Z.F.U.}.{.Y.Y.{.Y.Y..X-X-X-X$X-X-X-X$X",
"$X-X-X-X.XY.Y..X}.XX$X@X}.S.V.B.V.L.{.{.L.{ Z e e e r y ] l.Z.V.Z.Z.U.Y.Y.Y.Y.}.Y.Y.|.-X-X-X$X=X-X-X$X",
"*X-X-X-X}.Y.Y.{..X=X-X-X.XS.V.B.C.Y.{.{.L.Q w 2 , , , 7 W d.Z.M.B.Z.Y.}.Y.Y.Y.Y.}.Y.Y.Y.T.}.OX=X-X-X$X",
"$X-X-X-X{.}.}.{..X-X-X-XOXS.V.B.C.Y.Y.D.s.S w 7 7 2 2 7 W =.Z.V.B.C.U.Y.Y.Y.}.Y.Y.Y.J.Z.S.S.S.-X-X-X$X",
"$X-X-X-XY.J.J.J.}.=X-X-XOXJ.V.Z.Z.U.{.f.F t e w e q q q W f.C.Z.V.J.Y.{.Y.Y.Y..X}.Y.J.V.B.V.I.-X-X-X$X",
"$X-X-X-XI.V.Z.V.T.=X-X-X@X}.U.T.d.H C s e q e e e e e e r y C H f.U.Y.{.Y.Y.Y.Y.{.Y.J.V.V.V.I.=X-X-X$X",
"$X=X-X-XI.V.V.B.T.=X=X=X@X.XY.s.) y q q 0 q e e e e e e q q t C ) f.Y.{.Y.{.XXoX@X.XI.V.V.V.I.-X-X-X$X",
"$X-X-X-XI.V.S.B.T.*X-X-X@X}.Y.E y t q q 3 0 e e e e e q t q q e t ) Y.}.Y.}.@X-X=X=XT.S.S.S.S.=X-X-X*X",
"*X-X-X-XS.S.S.B.T.=X-X-X@Xl.W t e e 0 4 0 q e e y Z C Z y y t e e Q Y.}.Y.}.@X-X-X$XT.S.V.V.I.=X-X-X$X",
"$X-X-X-XI.S.S.B.T.-X-X-X@Xs.Z t e q 4 0 q t y y Z A A A A y t e r H s.D.Y.}.@X-X-X-XT.V.S.S.H.=X-X-X*X",
"$X-X-X-XJ.Z.S.B.Y.=X-X-X*Xs.s s y 0 0 q e y A A A A A A A Z s r e t E o.I.I.+X-X-X-X}.S.V.S.I.-X-X-X$X",
"XX@X@X@XJ.Z.Z.B.T.=X-X-X@Xd.E Z y 4 0 t y Z A A A Z y t t t r q 6 6 g O.V.H.OX=X-X$X{.V.V.S.I.-X-X-X$X",
"Y.}.}..XZ.Z.Z.B.Y.=X=X-XD.{ H Z t 4 0 t Z A Z Z y y r q 0 0 0 0 4 4 g | V.S.OX=X-X=XT.S.S.S.S.OXXXOX.X",
"Y.Y.Y.Y.F.Z.Z.B.Y.=X=X-X) Z Z y 0 4 0 t Z A Z y t t e 0 3 3 3 3 3 4 g O.V.Z.OX=X-X$XT.S.S.V.B.S.S.H.Z.",
"Y.Y.{.{.F.Z.V.B.T.=X-X-XE r y 6 4 0 q e y y y r 0 4 6 h X.X.X.! r 3 a ^ V.S.T.-X-X*XT.H.V.B.B.B.V.V.N.",
"U.Y.T.{.C.Z.V.B.S.T.}.}.S 0 r 4 4 q q 0 6 q 0 0 y g A X.G.G.G.M.^ a e ( V.S..X-X-X-XT.V.B.B.B.B.V.V.V.",
"Y.U.}.{.Z.Z.V.B.B.S.S.Z.d 6 q 4 4 0 0 4 6 4 4 6 E n.n.M.G.G.G.G.M.! e ( H.S..X-X-X=XT.I.H.S.V.B.F.V.V.",
"U.Y.{.}.Z.Z.V.V.B.B.V.S.a 4 e 4 4 4 E X.+.d.+.+.A.W.W.W.W.W.W.R.G.X.i ( V.V.Q.-X-X-X.XY.U.Y.H.B.V.H.V.",
"U.Y.{.{.Z.Z.Z.Z.B.B.m.o.e 4 0 O o o g t.R.#X!.!.!.!.!.!.R.m.e.O.X.h 6 R w.H.OX-X-X=XXXY.Y.Y.J.B.H.V.V.",
"Y.Y.{.{..XOX+XOXI.Z.o.d 4 3 3 X     X C B.#X!.#X!.!.!.#Xm.d O O O O 4 6 h H.OX-X-X*XXXT.Y.T.I.B.V.S.Z.",
"Y.U.{.{.+X-X-X-XY.V.| w 3 3 3 g @.@.M M T }.#X;X;X#X#XP.T N N T L a 3 3 d Z.R.@X@XOXT.Y.Y.T.K.B.C.V.V.",
"Y.Y.{.{.+X-X-X-XI.S.| 6 3 w d S.,X8X`.~.~.).;X<X2X2X=X).~.~.`.8X<X+.3 3 a V.S.I.I.H.K.T.Y.T.I.B.V.V.V.",
"P.Y.{.{.XX-X-X-XI.S.( w 3 F l.OX1X8X3X~.^.].<X2X2X2X<X'.^.^.3X8X,Xr.3 3 a n.B.B.S.V.C.Y.Y.}.J.B.V.V.V.",
"L.Y.{.}.XX-X-X-XY.V.( q G } _ L k.1X>X'.'.>X<X<X<X<X<X%X'.'.%X1Xk.i ; : a B.B.V.V.B.H.Y.Y.}.J.B.V.V.B.",
"Y.Y.Y.}.XX-X-X-XY.V.O.h C.p.> + u a.[.|.;X:X:X:X,X:X:X:X-X XD.a.u . X ; a S.S.V.S.V.J.Y.Y.}.J.B.V.V.B.",
"J.L.Y.Y.XX-X-X-XU.B.N.t.J.p.> + & 8 u _ XX:X:X:X:X:X:X:X|.L V 8 ; . . + u OXI.V.S.V.F.Y.{.}.L.B.V.V.B.",
"C.Z.Z.S.XX-X-X-XY.V.V.V./ V > % % . . 1 K z.}.E.E.Q.E.d.D 1 . . # # . . > } r.V.S.V.I.T.[.T.J.V.B.V.C.",
"B.V.V.Z.}.=X-X-XI.B.V.V.u # & - & # + + . g X.X.X.X.X.a # . # # & & . . $ 8 ~ V.V.V.J.Y.Y.{.K.J.J.H.C.",
"B.Z.V.Z.}.-X-X-XY.V.V.V.1 X + # # & & % # : 9 9 9 9 u ; # # & & % . . . : ^ t.B.H.V.J.Y.Y.Y.Y.}.Y.Y.U.",
"B.Z.V.Z..X-X-X-XY.H.V.S.h i i $ # - < - % # # # $ $ # # % - - - # > D i f M.B.B.V.H.H.Y.{.Y.Y.}.Y.Y.L.",
"N.V.V.S..X-X-X-X.XU.J.U.V.M.M.5 # & * < < < - < < < < < - - * , 1 L XXC.+.t.n.B.F.B.H.T.T.Y.Y. X{.Y.U.",
"B.V.B.S..X=X-X-X.XY.Y.{.A.G.A.5 + . * < < < - - < < < < * % # , L b. Xi.,.,.w.B.V.H.I.XX@X@X.X{.Y.Y.U.",
"B.S.V.S..X$X*X*X.XY.Y.Y.E.R.R._ V = * * & * & & & & * * & = k V k.*XP.7.-.;.0.B.V.V.Y.=X-X*XoX{.}.Y.U.",
"B.V.B.S.Y.XXoXoX{.}.Y.Y.{.}.{.{.j.U k @ # # @ @ @ @ @ @ = z B U j.{.b.u.:.;.0.B.B.V.Y.;X-X-X@X{.{.{.J.",
"N.V.B.S.I.Y.}.Y.Y.Y.Y.Y.F.N.+.+.@.P x l l l l l l l l l z c B P L s.z.b.u.:.0.B.B.Z.Y.-X-X-X@XY..XY.I.",
"N.V.B.S.U.Y.Y.Y.L.{.{.Y.C.+.] ] J I M m v v b b c c b b c c b P J { h.[.v.1.i.F.Z.J.Y.-X-X-XXX}.Y.Y.Y.",
"N.V.V.S.U.Y.Y.Y.Y.Y.Y.L.O.! ' ! ~ ' h p p n b v v x x x x x x P J { =.g.q.1.i.P.Y.}.}.-X-X-X@X{.T.Y.U.",
"N.V.B.S.U.Y.Y.Y.L.}.L.d...! ' ` ~ ] ^ Q Q Y Y Y Y I v c c c P J ) { *.g.p.-.2.i.}.Y..X-X-X-XXX{.Y.Y.U.",
"B.V.B.S.L.{.}.Y.Y.}.z.*.{ ! ' ! '  ...#.#.=.h.h.h._ I P n v D ! ~ [ $.p.5.4.6.7.v.P. X-X-X-XXXY.T.Y.U.",
"N.B.N.Z.J.}.Y.Y.L.}.z.o.{ ~ ' ! ~  .#. .#.=.h.h.a.{ ! R p r f ! ~ } K j 6.6X7X5X2.i.Y.-X-X-X@X}.Y.Y.Y.",
"C.S.C.J.L.{.Y.Y.U.{.z.%.[ ! ` ` ~  ...#.#.=.h.h.h.#.' Q h R E ! ~ K 4.8.(.6X7X7X_.c.q.*X-X-XXXY.Y.Y.Y.",
"$X-X-X-X}.{.Y.Y.U.}.x.*.[ ! ! ' '  .....#.%.h.h.a.a.a.a.a.*.` ` ^ j >.(.6X6X6X6X5X9.:.*X-X-XoX}.}.|.Y.",
"$X-X-X-X}.}.Y.Y.Y.T.D.=.{ ~ ~ ~ ' [  .#.#.=.h.h.h.a.h.h.g.%.' ! ^ j >./.6X6X6X7X5Xc.3.=X-X-X$X-X-X-X$X",
"$X-X-X-X|.}.Y.Y.U.}.U.z...~ ! ~ ' {  .#.#.=.h.=.=.a.h.h.g.%.` ` ~ / ,.8./.6X6X4X_.c.i.-X-X-X$X-X-X-X$X",
"*X-X-X-X}.}.Y.Y.}.XXXXXXf.^ ` ` ' { [ #.#.#.#.%.%.=.g.g.g.=.` ` ` ' _ ,.6.4X4X&X3.i..X-X-X$X$X-X-X-X$X",
"@X-X-X-X}.}.Y.Y.XX-X-X-XOXd.' ~ ` { #.#...#.....#.%.a.g.h.%.` ' ! ] #.D.v.<.<.3.Y.T.Y.}.}.}..X-X-X-X$X",
"*X-X-X-XT.T.Y.Y..X-X-X-XOXN.+.+.d.d.p.#...........%.g.h.h.%.| e.y.y.f.L.P.u.u.i.Y.Y.J.Z.N.V.I.-X-X-X$X",
"$X=X-X-XY.Y.J.Y..X-X-X-XXXC.N.B.V.I.f...........#.%.a.h.h.%.o.B.B.S.I.Y.Y.Y.{.}.Y.Y.J.V.B.V.I.-X-X-X=X",
"$X=X-X-XI.V.B.V.Y.-X-X-X-X-X-X-X+XT.Y.T.Y.Y.Y.Y.Y.XX=X-X-X$XY.Y.{.Y.Y.Y.}.Y.{.T.Y.Y.F.V.V.S.I.-X-X-X$X"
};
