/* XPM */
static char *result[] = {
/* columns rows colors chars-per-pixel */
"50 50 201 2 ",
"   c black",
".  c #161C1E",
"X  c #201A13",
"o  c #152225",
"O  c #172528",
"+  c #1E3035",
"@  c #372D2E",
"#  c #3C2B2C",
"$  c #2D312C",
"%  c #233236",
"&  c #2B3135",
"*  c #203338",
"=  c #2B383A",
"-  c #333434",
";  c #4D2F19",
":  c #442928",
">  c #4C2E2C",
",  c #51302F",
"<  c #583B2A",
"1  c #563432",
"2  c #5A3533",
"3  c #573B34",
"4  c #5E3836",
"5  c #663E20",
"6  c #613A37",
"7  c #633B39",
"8  c #683E3C",
"9  c #3E5915",
"0  c #2D7A17",
"q  c #3A403F",
"w  c #2E5931",
"e  c #286122",
"r  c #71482C",
"t  c #65453B",
"y  c #6D423E",
"u  c #744C35",
"i  c #417729",
"p  c #263C42",
"a  c #26384E",
"s  c #2F2E50",
"d  c #2C3D64",
"f  c #2E3F6B",
"g  c #3E3F66",
"h  c #284046",
"j  c #2B444B",
"k  c #324446",
"l  c #3B4341",
"z  c #2F4B52",
"x  c #3D425A",
"c  c #2F406F",
"v  c #3B446D",
"b  c #304173",
"n  c #3D4971",
"m  c #4C4B43",
"M  c #474254",
"N  c #465555",
"B  c #754643",
"V  c #764C42",
"C  c #794845",
"Z  c #6A5245",
"A  c #7A5446",
"S  c #74534D",
"D  c #436543",
"F  c #76654E",
"G  c #6E6152",
"H  c #736856",
"J  c #494F75",
"K  c #5C5A72",
"L  c #82593F",
"P  c #885747",
"I  c #85574B",
"U  c #825B4D",
"Y  c #905E4A",
"T  c #8B6046",
"R  c #8E644D",
"E  c #92664E",
"W  c #95694F",
"Q  c #98724D",
"!  c #896653",
"~  c #926552",
"^  c #946A53",
"/  c #976D58",
"(  c #8D7456",
")  c #9D7054",
"_  c #97725D",
"`  c #99735E",
"'  c #A87656",
"]  c #A1715C",
"[  c #A3795C",
"{  c #AC7D5A",
"}  c #B17B59",
"|  c #9A7460",
" . c #9E7965",
".. c #8D7570",
"X. c #A37D63",
"o. c #A47B66",
"O. c #2F8412",
"+. c #358D16",
"@. c #409E1E",
"#. c #518C25",
"$. c #769E3A",
"%. c #46A122",
"&. c #54A22A",
"*. c #69A63A",
"=. c #77A03B",
"-. c #509E4E",
";. c #569A50",
":. c #709844",
">. c #79AA45",
",. c #67B04E",
"<. c #A68B57",
"1. c #B6855B",
"2. c #81AE4D",
"3. c #99AA5A",
"4. c #A0A85F",
"5. c #988369",
"6. c #A48366",
"7. c #AC8364",
"8. c #B98A67",
"9. c #BB9868",
"0. c #A78371",
"q. c #A88371",
"w. c #AA8D73",
"e. c #B38D73",
"r. c #BE9572",
"t. c #BD9977",
"y. c #B6967A",
"u. c #A4AC68",
"i. c #B9B776",
"p. c #C2885E",
"a. c #D0875D",
"s. c #C59363",
"d. c #CA9663",
"f. c #CD9966",
"g. c #C5956A",
"h. c #C5986C",
"j. c #CE9C6A",
"k. c #D49166",
"l. c #D09B66",
"z. c #D09D6A",
"x. c #C39C77",
"c. c #CD9E72",
"v. c #C99D7A",
"b. c #E59E6D",
"n. c #CFA06F",
"m. c #D2A26F",
"M. c #CEA274",
"N. c #CEA57B",
"B. c #CBAB79",
"V. c #D2A374",
"C. c #DFA976",
"Z. c #D1A679",
"A. c #D4AB7D",
"S. c #DAAD7E",
"D. c #E7A16F",
"F. c #E8A775",
"G. c #EAAC76",
"H. c #F7B77F",
"J. c #336990",
"K. c #7C8C94",
"L. c #4B80A6",
"P. c #9E968D",
"I. c #B8AB98",
"U. c #A3A4A2",
"Y. c #BAB0A1",
"T. c #CAA98A",
"R. c #D6AD81",
"E. c #D9AE81",
"W. c #C8B881",
"Q. c #D7B083",
"!. c #DAB184",
"~. c #DDB58A",
"^. c #DFB88D",
"/. c #DBB795",
"(. c #EDAF80",
"). c #E6B78B",
"_. c #E1B98E",
"`. c #F8B983",
"'. c #F4BC8C",
"]. c #E4BD93",
"[. c #E7BD99",
"{. c #CDBBA4",
"}. c #8BC7BE",
"|. c #F9C28F",
" X c #E7C296",
".X c #EAC297",
"XX c #EBC499",
"oX c #F6C192",
"OX c #F6C799",
"+X c #FCCD9F",
"@X c #E3CAAC",
"#X c #FED3A9",
"$X c #AED1CD",
"%X c #9FCBE4",
"&X c #ADCEE0",
"*X c #A3D6F6",
"=X c #C7D0D3",
"-X c #F8DFC7",
";X c #C5E3F6",
":X c #FEF2E7",
">X c #E7EDF3",
/* pixels */
"].XXXXXXS.A.S.A.A.R.A.A.V.f.j.j.j.A.R.A.A. XXXXX X XXXXXXXj.f.8.s.g.v.v.v.N.R.A.A.E.XXXXXX.X!.~.E.R.",
"].XXXXXXA.A.Q.R.N.S.A.R.V.f.f.f.h.S.S.A.A.XX XXX XXXXXXXXXf.d.A 4 4 B B C ) R.A.A.R.XXXXXX].XXXXXX].",
"].XXXXXXA.A.S.R.Z.S.S.R.V.f.f.f.h.R.R.A.Z.XXXXXX X XXXXX5.H F t 4 4 8 8 t I o.N.S.E.XXXXXX].XXXXXX].",
"].XXXXXXS.A.R.R.R.]._._.S.f.f.f.j.R.!.A.B.Q.A.A.A. XXXXXk * + 1 4 4 6 4 6 8 C v.A.!.XXXXXX]..XXXXX].",
"[.XXXXXXA.R.R.R.~.XXXXXXE.f.f.k.j.R.R.A.U y y y B Z B 3 : @ + * & : 1 6 4 4 7 v.A.Z.S.S.A.A..XXXXX].",
"].XXXXXXR.R.S.R.).XXXXXXE.f.{ ] [ 6.7.X.V 4 4 4 2 2 1 > > # & * % : > 1 4 4 4 o.g.c.f.f.k.z..XXXXX].",
"].XXXXXXV.M.M.M.!.XXXX[.E.j.C y 4 2 2 4 4 4 4 4 2 4 4 4 > : : & % : : : 4 4 4 B ~ c.f.f.f.j.XX.XXX X",
"].XXXXXXj.f.f.d.S.XXXX[.e.~ C C B B B 2 4 4 4 4 4 4 4 4 1 1 2 - % & # : 4 4 4 8 U v.f.f.f.j.XXXXXX].",
"]..XXXXXj.f.f.d.S..XXX.X] C C C C B 8 4 4 4 7 7 4 4 4 4 4 4 4 - & * @ : 4 4 4 4 I A.j.f.l.z.XXXXXX].",
"].XXXXXXn.f.j.f.S..XXXXX] C C C C 7 4 4 4 7 C 8 4 4 4 4 4 4 6 > : * @ : 4 4 4 4 I R.z.j.f.z.[.XXXX X",
" XXXXXXXj.j.l.d.R.XX Xo.I C C C C 4 4 4 4 4 C B B 4 4 4 4 4 4 1 1 @ : : > , 4 4 S !.z.f.f.j.XXXX X].",
"_.XXXXXXm.l.j.d.R.XX~.C C C C B B 7 4 4 4 7 B B B 6 4 4 6 4 4 4 2 : : : : , 4 4 U !.j.z.f.j.XXXXXX X",
" X.XXXXXM.j.j.d.R.XX~.C C C C y 4 4 4 4 4 4 4 y C C y 4 2 4 4 4 2 : : : : > 4 4 U E.z.z.z.j.XXXXXX X",
"!.^.~.~.j.j.j.d.).XX/.8 y 8 y 7 4 4 4 4 4 4 4 y C C y 4 6 4 4 4 2 , : : : , 4 | y.E.z.f.f.c.XXXX X X",
"A.A.A.R.j.j.j.d.S.XX~.4 4 4 4 6 4 4 4 4 6 4 4 y C C y 6 4 4 4 4 6 6 , : : , 2 ~.XXE.z.z.f.d.!.S.!.R.",
"A.A.S.S.j.j.j.s.A.XX~.4 4 4 4 I k.k.k.k.C 4 4 4 7 C B B 6 4 4 4 2 : : : 1.X.4 /.XXE.f.z.f.d.l.f.f.s.",
"Z.A.S.R.j.z.j.d.E.[.]./ ~ ! Y } b.b.b.b.' I 6 6 2 y y y 4 4 4 4 4 : : : d.8./ ].XXR.z.f.f.d.d.j.l.s.",
"A.A.S.R.h.f.f.d.f.M.m.M.Z.A.b.b.b.b.b.b.b.k.6 2 6 6 4 4 4 4 4 4 4 : : : f.S..XXXXXR.l.d.f.d.d.f.j.s.",
"Z.A.R.R.f.f.f.d.d.l.f.f.M.A.b.b.b.(.'.'.'.'.p.P 2 4 4 6 4 4 4 , : : : : d.S..XXXXX!.V.j.m.n.d.j.l.f.",
"Z.A.!.E.g.z.d.d.d.f.z.f.m.R.b.D.F.T.g.T.[.+XF.] I , 1 1 1 2 1 > : : 3 t f.S.XXXXXX^.R.R.S.V.d.j.j.d.",
"Z.R.R.R.c.z.j.c.d.l.z.j.V.R.b.(.+XX     t.+X+X(.b.: : : : : : : : : Q j.d.S.XXXXXX^.A.A.S.Z.d.f.j.j.",
"A.A.R.R.].XXXXXXV.f.j.j.E.XX'.T.K.U.P. .~.+X#X'.'.: : : o.T.P.2 : : Q z.f.!.XXXX.X^.A.A.Q.M.d.j.l.j.",
"Z.A.R.R._.XXXXXXV.f.j.l.R.XX+XI.J.>X:X+X+X+X+X+X+X: , 3 [.#X+XA : 3 ' j.j.m.S.S.A.A.A.A.S.Z.d.j.j.f.",
"Z.A.R.R.).XXXX[.V.j.z.j.!. X+XY.L.>X:X+X+X+X+X+X+X: P H.H.H.`.B 3 m.j.m.d.d.f.l.f.j.A.S.Q.Z.d.j.f.s.",
"Z.A.R.Q.^.XXXXXXV.l.z.f.E.XX+X{.U.-X#X+X+X+X+XOX|.) 8.H.' ' ) _ 6.V.j.l.d.d.f.l.f.j.A.A.!.M.d.f.f.f.",
"Z.A.Q.R.^.XXXXXXZ.f.z.f.E.XXXXXX+X#X#X#X+X+X+X'.H.H.H.H.3 : : x.XXV.f.f.d.l.f.j.f.n.A.A.S.N.d.f.j.s.",
"A.A.A.Q._.XXXXXXV.l.j.f.E.XXXXXX!.n.F.`.`.`.`.z.k.l l l % + . y..XS.S.S.S.m.f.j.f.n.A.A.!.N.j.f.f.s.",
"M.M.M.Z.).XXXX@X{.I.I.j.(.XX XXXS.d.z.G.F.G.F.{ E = p p % + O H w. XXXXXXXC.d.m.d.n.S.Q.Q.M.s.f.f.d.",
"d.f.d.j.~..XXX@X;X*X%Xf.G.XXXXXXS.d.j.z.d.f.a.Z * z z z * * * o $  X XXXXXS.d.j.f.n.S.A.Q.M.j.s.f.s.",
"d.l.f.f.~..X2.,.,.-.;.=X&X&XXXXXQ.d.j.z.s.s.m k j z z z j h * o $  X XXX.XS.d.j.j.M.A.A.Q.Z.Q.R.A.A.",
"d.f.f.j._.XX>.*.*.#.*.$X}.}.i.W.S.d.j.z.<.( * j z z z z z j * O = e.Q.XX.XS.d.n.f.n.A.A.R.Z.R.R.A.Z.",
"d.j.d.n.).XXXXXXA.h.9.@.+.0 +.:.R.d.z.z.m * * h z z z z z j * * + . 5.XXXXS.s.j.j.n.A.R.A.Z.Q.S.A.A.",
"d.f.f.l.).XXXXXXQ.S.B.3.4.u.u.3.>.$.$.=.i e * G 6.[ H z z j * * = Q T..XXXS.d.f.j.c.!.~.!.A.R.R.S.A.",
"s.j.f.l.~.XXXXXXQ.S.A.A._.XXXXi.&.&.%.@.+.0 q [ D.b.7.N z j * * q b.)..XXXS.d.k.z.V.OXXX X].R.S.B.A.",
"d.l.j.j.!./._./.Q.S.A.A.~.^.^.^.M.d.<.O.O.#.H.H.H.b.D.b.N j + * p D.).oXXXS.d.f.f.V.XXXXXX_.R.R.A.Z.",
"s.f.d.n.Z.A.S.A.B.Q.Q.A.n.s.1.1.1.<.Q 9 w D H.H.H.G.g.H k p * a M p.v.T.XXE.d.d.f.V.XXXXXX].R.!.A.Z.",
"d.f.f.l.V.S.A.S.A.R.A.A.n.d.W W R W u ; s v H.H.H.H.6.* * * * d J | q.q.XXE.h.f.f.Z.XXXXXX^.R.R.Z.Z.",
"s.j.f.n.N.R.A.A.Z.S.A.A.7.) W W R / _ R < : J J J J n f f c d c v | q.q.e.t.R.Z.S.R.XXXXXX].R.R.A.A.",
"s.l.f.l.N.Q.A.A.Z.!.Z.r.[ E ^ E ^ | ` ` A t K J v b b b b g M g M | o.q.0.w.T.R.A.E.XXXXXX_.R.A.A.V.",
"d.d.d.j.V.Q.A.S.A.S.N.` ^ R ^ W ^ | | | _ w.q.K b b b b b x 5 5 r o.q.q.o.o._ v.R.R..XXXXX].A.R.Z.A.",
"s.f.d.c.Z.E.R.A.N.S.N._ / E ^ E ^ | | _ | 0.0.....H S 3 3 < 5 L Y _  .X. .| | Z.A.!.XXXXXX^.R.A.Z.A.",
"s.d.s.j.Z.R.A.A.A.R.N._ ^ E ^ W ^ ` _ | | 0.0.q.o.R L r r r r T ^ / | ` | | _ N.A.!.XXXX X].R.R.A.A.",
" XXXXXXXR.R.A.A.Z.!.M.` / R W E ^ _ _ | | 0.0.0.0.0.q.0.q.^ E E ^ ^ | ` | | ` Z.R.!. XXXXX].A.A.R.A.",
"].XXXXXXR.E.A.A.N.S.N.| ^ E ^ W / ` _ | | 0.0.0.0.o.q.q.q.^ E E ^ / ` ` _ ` _ T.A.R.XXXXXX].XXXXXX].",
"].XXXXXXR.R.A.A.Z.S.N.X.) E ^ W ~ _ | | | 0.0.0.0.0.0.0.0.^ W ^ ^ / _ ` _  .X.N.S.!..XXXXX].XXXXXX].",
"].XXXXXXR.R.A.A.A.^.~.^.7.E E W ^ _ _ | _  . . . .o.0.0.0.~ E E ^ ^ _ | _ e.S.A.A.E.XXXX X].XXXXXX].",
"].XXXXXXR.S.A.A.~.XXXXXXv.{ E W ^ | | | _ _ _ |  .o.0.0.0.^ ^ E W / _ | e.c.R.A.A.Z.R.E.E.!.XXXXXX X",
"].XXXXXXR.R.S.A.^.XXXXXXS.d.E W ~ _ _ | _ | | | | 0.0.0.0.^ E W W / _ | R.R.R.A.A.V.z.d.z.c.XXXXXX].",
"].XXXXXXA.A.M.A.~.XXXXXX!.s.1.s.s.N.r.| _ ` ` ` ` 6.q.0.0.~ R 1.s.g.M.B.R.R.R.R.A.M.f.f.f.j.XXXXXX].",
"_.XXXXXXj.f.d.d.S..XXXXXXXXXXXXX^.S.Z.S.B.R.A.!.A. XXXXXXXR.A.R.R.Z.A.R.R.R.S.A.R.M.f.f.f.M.XXXXXX[."
};
