/* XPM */
static char *result[] = {
/* columns rows colors chars-per-pixel */
"50 50 194 2 ",
"   c black",
".  c #111B1D",
"X  c #142124",
"o  c #19282B",
"O  c #1B2B30",
"+  c #1E3034",
"@  c #3C2B2B",
"#  c #2D2F32",
"$  c #332E30",
"%  c #253136",
"&  c #293034",
"*  c #203339",
"=  c #373738",
"-  c #4F2E1A",
";  c #5D2A1C",
":  c #52321D",
">  c #4A2E23",
",  c #442928",
"<  c #4B2D2C",
"1  c #4E312F",
"2  c #5E3D26",
"3  c #51302F",
"4  c #553230",
"5  c #5A3634",
"6  c #573A33",
"7  c #5E3836",
"8  c #663E20",
"9  c #613A37",
"0  c #633B39",
"q  c #683E3C",
"w  c #3A413F",
"e  c #316A2C",
"r  c #5A493B",
"t  c #6A4225",
"y  c #71482C",
"u  c #6C413E",
"i  c #764734",
"p  c #774E32",
"a  c #7E563C",
"s  c #253945",
"d  c #283A55",
"f  c #2A3B5D",
"g  c #3B3D53",
"h  c #263065",
"j  c #2D3E68",
"k  c #2E3F71",
"l  c #483F4E",
"z  c #2A444A",
"x  c #2D484F",
"c  c #374241",
"v  c #3A4343",
"b  c #2F4B52",
"n  c #2D4061",
"m  c #36466B",
"M  c #304173",
"N  c #4C5856",
"B  c #6B4C40",
"V  c #744542",
"C  c #794845",
"Z  c #655644",
"A  c #635A4B",
"S  c #795744",
"D  c #7D5348",
"F  c #7A5A49",
"G  c #7E5F52",
"H  c #726554",
"J  c #736A5B",
"K  c #677855",
"L  c #444466",
"P  c #4C4F70",
"I  c #4D5272",
"U  c #82593F",
"Y  c #91573B",
"T  c #825345",
"R  c #835B43",
"E  c #85564E",
"W  c #865D48",
"Q  c #88594B",
"!  c #905E4A",
"~  c #8D624A",
"^  c #92664E",
"/  c #95684F",
"(  c #836353",
")  c #8D6853",
"_  c #936652",
"`  c #956A53",
"'  c #9D6C53",
"]  c #946C5B",
"[  c #84755F",
"{  c #9D7053",
"}  c #97725D",
"|  c #99735D",
" . c #A16B51",
".. c #A47154",
"X. c #AA7B55",
"o. c #AD7D5A",
"O. c #B47B57",
"+. c #847D6B",
"@. c #9A7460",
"#. c #9E7965",
"$. c #A47664",
"%. c #A17B64",
"&. c #42A220",
"*. c #58A62F",
"=. c #B5825D",
"-. c #BC8A5D",
";. c #9E8165",
":. c #A5816E",
">. c #AB856B",
",. c #AD8A6E",
"<. c #B38B6C",
"1. c #BC8D68",
"2. c #A78371",
"3. c #A88371",
"4. c #AE8C76",
"5. c #B79174",
"6. c #BC9675",
"7. c #B8957C",
"8. c #ACB86C",
"9. c #B7B973",
"0. c #C3845F",
"q. c #D1875D",
"w. c #CB8D63",
"e. c #C79463",
"r. c #CA9663",
"t. c #CD9966",
"y. c #C9956A",
"u. c #CE9C6A",
"i. c #D29165",
"p. c #D79868",
"a. c #D09D6B",
"s. c #DE996A",
"d. c #C39B77",
"f. c #CE9E70",
"g. c #E59E6D",
"h. c #CFA06F",
"j. c #CEA273",
"k. c #CBAE74",
"l. c #CFA579",
"z. c #D2A374",
"x. c #D9A070",
"c. c #D1A679",
"v. c #D4AB7D",
"b. c #DAAD7E",
"n. c #E7A16F",
"m. c #E3A472",
"M. c #E8A776",
"N. c #ECAD7C",
"B. c #F0AE78",
"V. c #EDB079",
"C. c #F6B77F",
"Z. c #31668D",
"A. c #7C8C94",
"S. c #4C80A6",
"D. c #8B9397",
"F. c #9F9F9F",
"G. c #A4A28A",
"H. c #8D9CA3",
"J. c #CBA586",
"K. c #D6AD81",
"L. c #D9AE81",
"P. c #D7B083",
"I. c #D9B184",
"U. c #D7B28B",
"Y. c #DDB58A",
"T. c #DFB88C",
"R. c #C9B39A",
"E. c #D0B597",
"W. c #DBB490",
"Q. c #E1B98E",
"!. c #E8B88A",
"~. c #F3B784",
"^. c #F4BD8E",
"/. c #F8BF8B",
"(. c #E4BD93",
"). c #CBB5AA",
"_. c #D0BAA0",
"`. c #BAC18C",
"'. c #F9C18E",
"]. c #E7C296",
"[. c #EAC297",
"{. c #E7C098",
"}. c #EBC499",
"|. c #F6C697",
" X c #FCCD9F",
".X c #FCD2A9",
"XX c #E2CBB0",
"oX c #FFD7B0",
"OX c #A4D3C1",
"+X c #B6CBD9",
"@X c #D0CDC5",
"#X c #FEECDB",
"$X c #C5E3F7",
"%X c white",
/* pixels */
"(.}.}.}.v.v.b.v.v.L.v.v.z.t.f.y.t.v.L.c.v.}.}.}.].].|.].}.u.t.u.a.z.P.K.v.b.v.v.v.P.}.}.}.(.Q.Y.L.L.",
"(.}.}.[.v.v.P.K.c.b.v.K.y.......` | | | ] (.[.}.].].}.}.}.u.r.t.h.l.L.v.v.v.K.K.v.P.}.}.}.(.(.}.}.(.",
"(.}.}.}.v.v.b.K.J.b.K.K.1.C C C 9 7 9 7 7 U.].}.].].}.}.}.u.t.u.a.j.K.K.v.P.v.K.v.I.}.}.}.(.}.}.}.(.",
"].}.}.}.v.v.K.L.K.Q.Q._ D 0 9 0 9 7 7 3 < w c w [ ].}.}.}.u.r.u.u.j.K.v.v.b.K.v.v.I.}.}.}.(.}.[.}.(.",
"(.}.}.}.v.K.K.L.Y.(.Y.E u 7 7 9 5 5 5 1 @ % * & H U.Y.U.U.1.-.t.u.j.b.v.v.K.K.K.b.z.v.b.b.v.[.}.}.(.",
"(.}.}.}.L.K.v.K.Y.$.C 0 9 7 7 9 , , , $ * * * , 3 7 7 7 7 7 7 O.u.j.L.v.v.K.K.K.v.j.t.r.t.t.[.}.}.(.",
"(.}.}.}.j.z.j.j.L.@.q 9 9 7 3 3 , , $ & * # $ 3 5 7 7 7 7 7 7 W ` ` } ' d.b.K.K.L.j.t.t.t.a.}.[.}.(.",
"(.}.}.}.u.t.t.r.b.] 9 7 7 7 < , , @ + * * , < 7 7 7 7 7 7 7 7 7 9 7 7 9 <.v.K.K.K.j.u.t.t.a.}.}.}.(.",
"(.}.}.}.a.u.u.=.S q 7 7 5 < , , # % * # @ 3 5 5 7 7 9 7 7 7 7 7 9 V V V E ] (.W.Q.c.u.t.a.a.[.}.}.].",
"(.}.}.}.a.t.u.=.7 7 7 5 4 , , , % * % @ , 5 9 9 7 7 7 7 9 9 7 7 0 V V C C E }.^.}.L.a.t.r.a.[.}.}.{.",
"(.}.}.}.h.t.t.o.9 9 7 , , , , , % # , 3 9 9 7 7 7 7 7 0 C q 7 7 7 7 q C C E (.(.}.L.a.t.u.u.}.}.}.(.",
"(.}.}.}.h.t.a.-.) u 3 , 6 F 6 , $ $ 3 3 7 7 7 7 9 7 0 q C q 7 7 7 9 q C C T J.J.}.L.a.a.t.u.}.}.}.(.",
"].[.}.}.u.u.u.r.b.( , , B v.F @ , < 7 7 7 7 7 7 7 7 V C C q 9 9 7 7 q C C C C $.}.L.a.u.t.u.}.}.}.].",
"I.T.T.T.u.u.u.r.P.( , ,.j.v.F , , < 7 7 7 7 7 7 0 V C C q 9 7 7 7 7 9 0 V C C $.}.L.u.u.u.u.}.}.{.].",
"v.v.v.K.u.u.u.r.b.] 6 U.T.c.F , , < 7 7 7 9 9 9 q C C C 7 7 7 9 7 9 7 7 u V C $.}.L.a.a.a.y.!.I.I.K.",
"v.v.v.L.u.u.u.r.b.}.}.}.T.K.F , 5 7 7 7 7 7 7 9 q C C V 7 7 7 7 7 7 7 7 9 9 C $.}.L.a.a.r.e.r.t.t.r.",
"v.v.K.K.u.a.u.r.b.}.}.}.Q.v.F , 3 5 7 7 7 7 9 q V C V q 7 7 7 E ! ! D 7 7 9 V @.}.I.a.t.t.y.r.t.t.r.",
"c.v.K.K.t.t.t.r.t.z.h.z.z.v.F , , < 7 7 7 7 9 C C C 9 7 7 9 9 0.g.g.O.7 7 7 7 ] (.I.u.e.t.r.r.t.h.r.",
"c.v.K.K.t.u.t.r.e.r.t.t.z.v.F , , < 7 7 7 7 0 0 0 0 7 7 9 Q 0.s.g.g.i.0.i 7 7 ] }.L.z.h.z.u.r.u.u.r.",
"c.v.P.K.t.t.r.y.r.a.a.t.z.v.F , , < 7 7 7 7 7 7 7 7 7 7 9  .g.g.g.g.g.g.T 7 7 ] }.Y.K.L.b.z.r.a.h.r.",
"c.v.K.K.f.h.u.f.y.t.t.a.z.L.F , , , , 3 7 7 7 7 7 9 7 u g.~. X X X X^.s.n.i.9 ] }.T.v.v.L.z.r.t.t.t.",
"v.v.K.K.Q.}.}.}.z.t.a.a.L.}.,.( < , , < 4 4 4 4 4 4 T ' ~.~. X3.;.;.1.~.n.s.] 5.}.T.v.v.K.c.r.a.t.u.",
"v.c.P.K.Q.}.}.}.x.a.a.t.L.}.}.}.5 , , , , , , < , , i.n. X X X,     r  XM.n.b.b.K.v.v.v.P.c.r.u.u.r.",
"c.c.P.K.Q.}.].}.z.u.a.t.L.}.}.}.5 , , G G.d.$.< , , L.|. X X X6.;.F.D.A.W.~.t.a.r.u.v.v.P.z.r.t.u.r.",
"c.v.b.P.T.}.}.}.z.t.a.u.L.}.}.}.6 , , ;.oXoX}.< , , (. X X X X X.X%X+XZ.R.|.t.t.r.u.v.v.P.l.r.t.t.r.",
"c.v.v.P.Q.}.}.}.z.a.a.t.L.}.}.}.K.X., { C.~.C.C.' , !. X X X X X.X%X+XS._.|.t.a.t.h.v.v.b.c.r.u.t.r.",
"c.v.v.P.(.}.}.}.z.r.u.u.N.}.}.}.L.-.a / =.=.0.~.0.~ !.|.|. X X X.X#X@XH.E.!.r.a.t.h.v.v.P.c.r.r.t.y.",
"l.l.j.c.T.}.}.}.z.r.u.t.P.}.].}.b.y.u.~ , , 6 C.~.C.C.C.C.'. X X X X X.X}.b.r.a.r.h.v.P.b.l.y.r.r.r.",
"r.t.r.t.T.}.}.}.z.r.t.t.P.}.}.}.Z r r r # # = H H H p.g.g.M././.'.|.|.|.|.b.r.u.u.h.v.v.P.l.t.r.y.r.",
"r.t.r.u.Y.].}.}.z.t.t.t.P.}.}.}.# . . X * * * * * % O.q.q.g.C.C.~.(.[.}.[.b.r.h.u.j.v.v.P.c.K.K.v.v.",
"r.t.p.u.Q.}.}.}.z.t.r.t.P.}.A . . X + + * * * b b b * w q.).$XXX}.(.[.}.[.b.e.u.t.h.v.v.K.c.K.K.v.k.",
"r.a.r.t.Q.}.}.}.v.j.h.j.I.}.A . . X + + * * * b b b * v ..G.OX`.9.].}.}.}.b.r.u.u.h.v.P.v.v.K.K.v.v.",
"r.t.t.u.Y.}.[.}.P.P.v.v.Q.}.A . . X * * * * s b b b b b * e &.&.*.(.[.[.}.b.r.a.t.a.Y.Y.L.v.L.v.v.c.",
"r.u.t.a.T.}.}.}.I.b.v.v.Q.N.Z . o O * * * * * b b b b x z K 8.8.9.(.}.}.}.b.r.t.a.z.}.}.[.Q.K.b.v.v.",
"r.u.r.u.P.(.T.(.K.v.v.v.b.g.r . + * * * * * * b b b b b x +.Q.Q.Q.Q.}.}.}.b.r.r.t.c.}.}.}.Q.K.P.v.v.",
"e.u.t.a.l.v.P.v.c.P.P.v.x.g.p.w.= * * + + * * b b b b N r.m.C.B.V.Y.}.}.}.b.t.r.t.z.}.}.}.(.K.I.v.c.",
"e.t.r.a.z.P.K.v.c.K.v.v.a.i.i.i.g s s s * * * z x b N J n.B.C.M.x.l.Y.W.(.L.u.y.u.c.}.}.}.Q.K.L.c.c.",
"r.r.t.a.l.K.v.v.c.b.v.v.y.) / ~ m k k d * * * * s b i.g.C.C.C.X.` @.3.3.W.Q.K.v.v.L.}.}.}.(.K.K.v.c.",
"e.t.t.a.c.P.v.v.c.I.v.<.o.^ U p r l M j f f f f n m a Y ^ ..0. .` $.:.3.7.6.K.v.v.L.}.}.}.Q.K.v.v.z.",
"r.r.r.a.l.b.v.v.c.P.v.#.` ^ p 8 t 6 M M M M M M M M 3 ; ; i ^ ^ ` @.3.3.2.3.K.K.v.K.}.}.}.Q.v.L.v.v.",
"r.r.r.u.l.K.K.v.c.5.#.| ` / p 8 8 r k M M M k h h h > - - : : R / } #.#.#.@.#.<.v.P.}.}.}.(.v.v.c.c.",
"e.y.e.u.l.L.v.v.c.<.| | ] ^ a y t 6 g L P I P L L g 6 2 2 2 8 R ` ] @.| @.@.@.<.K.I.].}.}.Q.v.K.v.v.",
"].}.}.}.K.I.v.v.c.<.| | ` ^ / / t 8 t U @.3.2.3.%.3.2.2.2.` / ) ` ` @.@.| @.@.>.K.I.}.}.}.(.v.v.v.v.",
"(.}.}.}.K.P.v.v.c.<.| @.] ~ / / U a a ) @.3.3.3.2.3.2.2.2.` ^ / ` ` | | | @.@.<.c.I.}.}.}.(.}.}.}.(.",
"(.}.}.}.K.K.v.v.c.<.@.@.{ ~ ` / ` } } @.@.2.2.2.%.2.3.3.2.` / / ` ` @.@.@.@.@.<.b.I.}.}.}.(.}.}.}.(.",
"(.}.}.}.K.b.c.K.K.5.#.%.} ^ / / _ } } @.} #.#.#.#.3.3.3.2._ / / ` ` | @.@.| @.>.v.P.}.}.{.(.}.}.}.(.",
"].}.[.}.K.L.v.v.T.J.4.3.@.^ / / ` @.@.@.} @.} @.#.3.2.3.2._ / ^ / ` @.@.@.@.%.<.v.c.L.L.L.Y.}.}.}.].",
"(.}.}.}.K.K.v.v.T.{.}.4.| ~ ^ / _ } } @.} } @.@.@.#.2.3.2._ / ^ / ] } @.} %.L.v.v.z.t.r.t.f.}.}.}.(.",
"(.[.}.}.c.c.c.c.I.}.}.U.<.~ ~ ) _ } | | | | | @.| :.3.2.2./ ) ^ ^ ] } | ,.6.b.v.v.z.u.r.t.u.}.}.}.].",
"(.[.[.}.u.u.r.r.P.}.}.}.}.}.}.}.Q.v.v.v.c.v.v.P.v.].[.}.}.K.v.v.v.c.v.P.v.P.b.v.v.j.u.t.u.h.}.}.}.(."
};
