/* XPM */
static char *suelo_1suelo511676372865[] = {
/* columns rows colors chars-per-pixel */
"51 51 29 1 ",
"  c #C79462",
". c #CA9664",
"X c #CD9966",
"o c #CE9B6A",
"O c #D09B67",
"+ c #D09E6C",
"@ c #CD9F70",
"# c #CEA06F",
"$ c #D1A06F",
"% c #CFA173",
"& c #CFA578",
"* c #D2A474",
"= c #D7A877",
"- c #D2A779",
"; c #D5AB7D",
": c #D8AB7D",
"> c #D6AD80",
", c #D9AE81",
"< c #DBB285",
"1 c #DEB58A",
"2 c #DFB88D",
"3 c #E0B487",
"4 c #E0B68A",
"5 c #E2BA8E",
"6 c #E5BD92",
"7 c #E8BF95",
"8 c #E7C095",
"9 c #E9C296",
"0 c #EBC499",
/* pixels */
"6000:;:>;>;;*ooXX->;;28008008<ooo$-,>;;>;;<0006<<<>",
"7000,;>>;;;>*ooXX%>;;600888001oXo#-:;:>>>;<00080006",
"7090,;;,;>:>-ooXX&>;>20008000<XX##&>;;>>;;<00070006",
"7000>;;,>255,+XXX&>>&&>;;10001oXo#-,;;;;>;<00060006",
"8000,;;,<999<#XXo&>>&;>;:10001o.X#%>;;>>;;&<:::0007",
"8000<>>>1000<o.Xo;>;;;:;;18004o. #*>;;;;;;%ooo*9006",
"6000;%%%<9003%XX@&>;-;;>>18001oXX#->;;:>>>%XoO*0906",
"6000%ooX:9005,;:&>>;;;;;>18006;-;;;>;;;>>;%X.O$0006",
"6090*XX.:8005<::&>;;&;;;:18002>;>;;:;>114<-OXO$0008",
"6000$oOX:8005,;>>><<<;;;;20006;;>;;>;>2007:OXX*0007",
"8000*OOX:9005,;>>2882<;>,19896;;>>;:;,5000>OOo*9007",
"6000$O$.:0006>;>>6008<;>>10006>;>>;,;<5007>OOo$9006",
"6000%#o.:9006<;><2006<;>>10082>;,;%*@=3009,ooO$0007",
"1226%oo.:9005:;>>6006<;>><226<&;>-ooX*3907>ooO*0008",
">>>,ooo.;9005>:>>5006<>;>>>>>>&>>-oo.o3900>O$o#:1<<",
";;;,ooo.:8005,;>>6006<;;;;>;>>&>,-oXoo3007>OOo.$%#X",
"-;>>ooo =0006>->>6008:::;;;;>>;;:;#XX$3008:$XX .XX.",
"-;:,oooX$:,,:>>>>8008=##%-;;>>;;:-#oXo:000:O....o#.",
"-;>>ooX Xooo$-;>>6008$..X%-;>>&>;-$oo#:008:$##X.oX.",
"-;>>ooo. ooo$;>>>6008=.OX%;;>>&;:-oooo<000<:==#.X$X",
"->>>@@oo.XOO$:>><6008=..X#-;>>;>::oo$$:0001;;:%X$Xo",
">->>,534$o+o-56626008=#OX%-;><2253#oO$30081;;;%.XXo",
"&;>>4707=ooo=70088002=#..#;;><6803$X$O=354<;;;-.ooX",
";;>>5007=ooo=7006255:=#..#;;><8005$O$.$$*$%:;:-.oo ",
"&;,>2000=o+o=7004=**$oooX%;;;<6095$OO..OX##;;>% XX.",
"&;>>2000-ooo=7003+Oo.ooo.%;;>16093$OO..X#X#;;>% XX.",
"&;>>2000=Ooo=7004+oO.ooX.%;:><6098=$$$$O..#;;>& .X.",
"&-&;1900-XXX:7004$oo.ooX.%&&>>60983853$O#O*;>>&..X.",
"ooo$<000=XXX:7004+O+XXoXXoooo;60099088*X$O$:>;&....",
".XXX<000-XXO=7004+oO.XXXXXXXX&60998998=X..%:;>&%%##",
".oXo<700-XXX:7004+oOXXXXXXXXX:69098998=XO#%;;;;>;;;",
" ooo<000;oXo:6004+oOXo$$ooXoo-60998998=.X##;>>&>>;&",
" OXo<000,&%&<8002oooo:332*ooo=60097006=XXX$>>>>>;;&",
" XX+<000<,>;18001@ooo3000;XXO*50097007=.OO*622>>;;;",
".oXo,688<>;;1609<@.oo4007:XoO=57767007=.XO-0002>,;;",
" XXO>122>>;;>,<<;o.Xo4000=XXO*:,,<6076=XXX=0075>,;&",
" o.+*->;;;;;*o.....Xo3007:.XOo ..*4009=X o>0005><-*",
" XXO%:;;-:;;%ooO.XoXo2007:X.XX...*5007>@o@>0002>>;&",
" XX+&>:;-,;;$ooXX@%%-2000:XXoo XO*50003>>><0004>>-&",
" X.+->;;;;;:*oOXo->>>6007:XXXX XO*3000<>>-<0072>>;-",
" X o%>;;->;;*Xooo;>>>2000:..XX.Xo*1886<>>>>0002>>--",
" . @&>>;->>;*oXXX->>>2000,..XX.Xo$;<<<<;>-19001>>&;",
"o#X%&>;;->;;*XX#o;;>>2008,oooo.XX+->>>>>>>>0002>>>>",
"6000<>;;;;;>*.Xoo*;>>600889001oXO+*;>;>>>><0072>>>;",
"6000>>>;;:;>*X#Xo-;>>609080001oXo+*>;;>>>;>00060007",
"6000<>;;;;>>*XXXo*;>>299880003ooo+*;>>,>>><00060006",
"8000<>;;>221>XXXo-;>>><1129001oooo*>>>>>-><70760006",
"8000>>>;<0001#XXo&->;>>>>1900<ooo@*-;>>>;;><>><0006",
"6000,,;:10001# oo*;>;;;;;10001# Xo&;>>>>;;@o.X*0007",
"5800;&-&,000<X .X%;;;;;;;18001XX o%->>>>;;%X.X*0007",
"8000#X.o:00000002,;;;;;;;20005;;>>->>>>:;:@oXX*0008"
};
