/* XPM */
static char *suelo_1suelo51_1suelo521676381302[] = {
/* columns rows colors chars-per-pixel */
"52 52 29 1 ",
"  c #C79463",
". c #CA9664",
"X c #CD9966",
"o c #CE9B6A",
"O c #D09E6C",
"+ c #CE9F70",
"@ c #CEA06F",
"# c #D1A06E",
"$ c #CFA172",
"% c #CFA679",
"& c #D2A374",
"* c #D5A877",
"= c #D3A779",
"- c #D5AB7D",
"; c #D9AC7D",
": c #D6AD80",
"> c #D9AE81",
", c #D7B082",
"< c #DBB185",
"1 c #DEB58A",
"2 c #DFB88D",
"3 c #E0B486",
"4 c #E1B68A",
"5 c #E2B98D",
"6 c #E5BE92",
"7 c #E8BE93",
"8 c #E7C095",
"9 c #E9C196",
"0 c #EBC499",
/* pixels */
"6000<-;,-:-:=ooXX$--%189998908-Xoo&-:--:--:100061<<:",
"6000<--:----=ooXX$--:<89999008-Xoo&-:---:--100077006",
"6000<--,-:--=ooXX$=::169098907-ooo$-:--::--<00060007",
"6000<-;,:166<&oXX$-:%%:-:,6906-XXo+%:------100770006",
"7000<-:>>6073&XXX$::%----,6906*XXX$-,--:----,<330006",
"6000<:-:17004&X.X%---%--:<5007;XXX+=------=$OOO*0006",
"6000:%&=>7004*ooo%:------<2906-oXX$-,---::-@XXX*0006",
"6000=ooX*7006>=--%-:-----<6008<--==-----::-@OXO&0006",
"6000*XX.*7006<:----------<66081-:-==::,1413&OXX*0007",
"6000*ooX*7006<;:-:<:::---<69081::::::-<5775*OXX*0007",
"8000*XOX*7006<:;:>666<--:<60991-=:--;-<6707*XOX*0006",
"6000*Oo.*7006>-::26061:::,6898<--::--:<6007;XOo&0006",
"6080*oO.*7008<-::26082:-:,69082--:-=*&:5007:ooo*0006",
"2666=ooX-7006<-:>29062:-:,2262,---$+oO*5006:oXo*0006",
"::<1$oo.*7006<--:48081:-::,,,,:%-:&oXX&4707:oO@$5543",
"-:::oooX*7006<::,18061:--::::::-:-&oXo&5076;oOXX==&$",
"=:>:+oO.=7077>:::19083;------:-%--*ooo#4008;oXX.XooX",
"==;:+oo.#355<>=:>2908<==%=--::::--&ooo#4998;o.X..XX.",
":=::+XX.o###=::::2907<#XX+%-::%---&Ooo#4006;@X@..Xo.",
"==>:+X.. oOX+&::<5608>OXXo==-::---&ooo#4099,&&@@.#oX",
"-:::+o.X.XXoO=>::2997;OXXo=--::-;;*oXO*;009<---&.X#X",
":=:::>>:+ooo&>3416908<#XXX$--::<3;*#X##9099<---@.XXX",
"=-::4777&OoX*57066907;#oXo$-::1697;#OO#;665,---&.oXX",
"%-::5777>ooO&70066665;#oXX%-::1809;#XXO#;;;---;&.oo.",
"--::1700;Xoo&57073>>-&+oXo%-->1708;#OXXX@@@$--:$.XX.",
"%%::1700;ooo&5005;OOooooX++-::2798;#XXXX.XX$--:$.XX.",
"=-::2700>XXO*5705*ooXXooXo%::,2709;####XXoX$---$.X..",
"%=::1000;OXX*5705*ooXXoXXo%%::16995;;;*OXXX$---$..X.",
"+$$=<700>XXX*5005*OOXXXXXoo&+=160988883#ooX#-:,$  X ",
"ooo+,700;XXX&7005*OXXXXXXXoO++>60999905&Xoo&:--%@ooX",
" X.o<700;XXX&5005*XXXXXXXXX.o#>70999094&.oo#:--%%%&@",
" X.o<000>OXX*5775*XOXXXoXXXXo+>70989094&XX#&------**",
" XXO>000>&@o-5005=OXXO==*&OXOO;70077005&XOX&;:::,:-%",
" XXO>900<*==,6006=XOo;456>OXX&>70060005&XXO&>>::,--=",
" XXO>6901::-<6902=oXo;6004&XXO>60697075&.XO*664<:--=",
" X.O:466,:--:2561$XXo;7004&XXO;45666074&.XO;0071,--%",
" O.O*31<::---*-;%oXXo;6974#XOO#=-;36075&..o:0075:::=",
" X.O&=:-%-:-=oXXX .XX:8003OXXXX..o*6005&oXO:0075::=%",
" X.O$-----:-&oXXXXoXo>6004#.XXX.XO*6007:+++10002::-=",
" ..O&:-----**oOXX@$=%19074&XXXXXXO;6007<:::10072::==",
" XXo$::-=:--=ooXX$-::28004& XXX XO;5096<::-<9092:===",
" X o%-:-%:--=XoXX=-::19001#X.XX.XO*16621::-19072:::=",
" X o$::-=:-:%ooXo$-::18094&X.XXXXO=:<<>::--10072:%:%",
"o&+$%:------=oooo$---19005*$++oXXX$=---::-:<0072::::",
"60001:----;-=oXoo&=::160098006;oOX#--:-::::<7002<<<,",
"6000<:--=-:-=XXoo&=-:290068006;oXO+=--:::::100060002",
"8000<:---:,,=oXXo$=-:166669007;ooo#=-::::%:100060006",
"60001>--:222,@XXo+-:-:1,116096;oXX+=-::-:::166620007",
"60001>--<9005&XXo$=:-----<8908;oXO+=:::::--->>>10007",
"6000<:--<0004&XXo@=-:--:-<5998-XXX+==::::==+oXX*0007",
"6000:===,0004+  X+=------<8998=.. ++=::::-=#X.o=0007",
"6090=oXX*80000005<-------,28092-::--::::--:+oXO*0007"
};
