/* XPM */
static char *_ff8f5ff6c714eb1b756d256d2d79744Apw5VLmxYYri4sDu[] = {
/* columns rows colors chars-per-pixel */
"50 50 32 1 ",
"  c #C7925F",
". c #C8935F",
"X c #C79463",
"o c #CA9663",
"O c #CD9966",
"+ c #C79768",
"@ c #CA9768",
"# c #CE9C6A",
"$ c #D09B66",
"% c #D09D6A",
"& c #CD9E70",
"* c #CFA06F",
"= c #D2A26F",
"- c #CEA273",
"; c #CFA579",
": c #D2A373",
"> c #D1A679",
", c #D5AB7D",
"< c #DAAE7E",
"1 c #D6AD81",
"2 c #D9AE81",
"3 c #D7B083",
"4 c #DAB184",
"5 c #DDB589",
"6 c #DFB88C",
"7 c #E0B78C",
"8 c #E1B98D",
"9 c #E4BD93",
"0 c #E7C195",
"q c #EAC296",
"w c #E7C298",
"e c #EBC499",
/* pixels */
"9eee,><<;1,,:#%O#1<>,weewweee#OO%:31,,,1,3eeee7721",
"9eee,,31,<,1:O$@O11,,ewewweee#OO*;2<,111>3eee99ee9",
"9eee,,<1,1<<:OO@#11,>eee0wqee#O##-3,,<1,,4eee99ee9",
"0eee,,111868,OOO+13,;1,,,0qee#o##-<,,<,1,4eee9qee9",
"9eee<1<15eee<Oo@*33,>,,<,weqe#@oO-3,,,1,,:,<<,eee9",
"9eee11,18eee<Oo@&1,>><,3,wqee#ooO-3,<1,1<-OO$Oeee9",
"9eee;:--4eee4#+#&11,><,<<0wee&#+#;3,,,<11-@O$#e0e9",
"9eee#OOo<eee81<1>11,>3,,,0eew<,<,,3,,,<11-OOO#eee9",
"9eee#O#o<eee7<,<>,,,><,1,0eee1,<1>2,,5887:###%eee0",
"9eee*O#o<eee8<,<,5551,,<1weee<,<1>21<8eee2##$%qeew",
"9eee#O%o4eee7,,11eew81,310eee,,,1><,,60ee2$$@#eee0",
"9eee=$#o2eee8,,11eee91,3,0e0e,,11>2116eee2#$##9ee9",
"9ewe##%o<eee81,13eee8311,0eee1>11&:#%7eee2%#$#eee0",
"4766###.2eee8,,21eee8,,1156661>31##o@2eee4$#%&eee9",
",,<<###o2eee8,,<3eee83,1,,,33>>32&$oo2ee92#%#+243,",
",,<,###X2eee7,,23wee8,,,1,><1>,31#%$$<eee2%%$X$OO+",
",>21@%@o2ee97,1<4eee8<,<,,,,1;111-O#o<eee2%oOoo$O+",
">,,2@$$o#::=:,,23eee8#X#+,,<21,<1##%o<eee<$oooo$*+",
",>22##$o.$@#:,225eee7%.O+,,<1,,,1&%#o<eee4>%:=oO$o",
">,22@@@@o$$#%1223eee8%o$+,,,1;,,<&##o<eee5<<<>.$OO",
">111%=%:@$$#=<253qee8%oOo,,11,,12###.<eee6,,<;O**#",
"1>119e9e:@%$7e9e8eee8=OOX,><19wwe:$#o7eee5,,<;.$$O",
">,219e9e:$%#<9ee8eee7$o#o,,,18eee>O%O=<<<,,,<;.OO+",
">,119ee9:@%#7ee98<<<:=$= ,,119eee:%%o$o$@#,,3;o*O@",
",,136eee:@%$29ee<o$$X=%@X,,,18eee:$$o$o%@#,,4;oOO@",
";,119eee:#%@5eee<o#$@%o%.,,<19eee:$$.$o%O*,,<>oOOo",
">,<18eee:$#$2eee<o%$X%o%o,,119eeq<<<<=$$O*,,4;ooo@",
"---;6eee=o#@2eee2o%$+%o%o-&;;8e0qqeee<$$o*,3<;@ooO",
"ooo#5eee:O@O5e9e<O%$o%oOo$o$@6eee8eee<oOo*3,<;++@+",
"oo$O5eee:O$O2eee2O%%XOo$oo$o%8eee0eee<o*O-,,3>31,,",
"o$$#7eee:@o$<eee2o%%X%ooo$###8eee8eeq<o#O*<,,,<<,,",
"X%o%7eee1:%%5eee2o#$#222<o%#%6eee9eee<X*O*,,,>3,,;",
"X$o%5eee411,6eee<o#%#eqe0o%O%7qee9eee<o%O%722,22>>",
"o%o%5eee41,,6eee<o#O#eee0o#O$8eee9eee<o$$>eee81,,,",
"+#O%199811,,5889>o#$&eee0o#O%48888eee<ooO>qee812,>",
".%o%;,1,,<,,*@O#@oo$#eee0o#O#o$.%4eee<oX$>eqe914,:",
"Xoo%>21,;<,,=@OOX+oo#ee09o$o=o$.%2eee2@##,9ee812,;",
"X$o%;<,,><,,:o%O#&#-:eee0oOo#Xoo%7eee81,22eee912,>",
"X$o%>1,<,1,,=o%O#1131eee0oOo#XoO%2eee822,2eee711,>",
"X$o%;1,,,1,<=o*O&1131eee0oOo%ooO%2eee82,,1eee8,1,;",
"ooX#;4,,;<,,:+%o*111,eeew@OX*X@O%>555411,2eee9,,,,",
"X@X#;1,,;3,,=o%$#1,11eee0+oXOoO@%-1,,11,,5wee6111,",
"0eee13,,,3,,:o###1<11eee00eeq#O#%:1,<11114eee8,,,>",
"9eee12,,;<,1:o###,,31wee00eee#OO%-<<,<11>1eee9eee9",
"9eee11,,,<<1=oO$#,,11eee00eee*#O%*,<1111<2eee9eee9",
"9eee11,,,556>oO##,11>5555weee#@O%-,11<1,,2eee9eee9",
"9eee1<,<5eee4oO$#,12,1,<<0qee##O#-,1112,,,2224eee0",
"9eee11,15eee<@oO#,,1>1,1,0eee#OOO&,<,12,,&%X%&eee9",
"9eee,,;:5eee4X X#,,1>,,<,0qee+@X+#,,111,<-#oO#eee0",
"8eee#Oo@<eeeeeee5,,<>3,3,0eee1,,1,,11<<,1-@OO-eee0"
};
