/* XPM */
static char *suelo531676381465[] = {
/* columns rows colors chars-per-pixel */
"53 53 28 1 ",
"  c #C79463",
". c #CA9664",
"X c #CD9966",
"o c #CE9C6A",
"O c #D09E6D",
"+ c #CE9F70",
"@ c #CFA06F",
"# c #D1A06E",
"$ c #CFA172",
"% c #CFA478",
"& c #D3A475",
"* c #D6A877",
"= c #D2A779",
"- c #D5AB7D",
"; c #D9AC7D",
": c #D6AD80",
"> c #D9AE81",
", c #DCB285",
"< c #DEB589",
"1 c #DFB98D",
"2 c #E0B486",
"3 c #E0B68A",
"4 c #E2B98D",
"5 c #E5BD92",
"6 c #E8BF94",
"7 c #E7C095",
"8 c #E9C296",
"9 c #EBC499",
/* pixels */
"5999,---:--:=+oXXo-:-:199979991@XXO&::--:--:49975<,>:",
"6999,-::-----+oXX+=-%-19997999<oXo$&-:-:::-:499769995",
"6999,--::-;-*&XXXo=:::18997999<@Xoo%-:--::-:499869995",
"6999,--::,44,&XXX+%:--::::1799<@Xoo$-----:-:499869995",
"7999,--:,4774*XXX+-::%----<9993@XXX%---------,,><9995",
"7999,:::,5994*o.X+%:-%----<899,@XXX$---::--=&@#&-9995",
"7999:=%=>5995*oXo$-:-%::-:<8993@XXo%-:---:-=oXXo=6996",
"5999=@oo*4995,-=%--:------<8994=%=%=:---:::=ooXo*9995",
"5999*XXX*4895<>---------:-<8997-:------>,<>:#XXO=9996",
"5999*ooX*2995<;--::,::---:<9997---:-:-:,5663&XXO=6996",
"7999*XoX*4896<::::111<:--,<8995--::---:,5994&OOX*9996",
"7999*#oX&4996<;-:<5971,-::<9995---:--::<5964*XXX*9996",
"1999=#o.&48982:-:<5991<::-17995-----==;,5994*OXO*6996",
"1777=oo.*49972>-:<7795:-:-<5751----&@o&;5894&XXO*6966",
",<,<@oo.&4997<---,5991:--::<<1,-=:-@oXX*4974*OoO&4444",
"-:::@oo.*2997<---<5995:--:-:-::%---#oXO*4994&XOo+>>>*",
"=--:+OX &4997,-:-<5994,----------:=@ooo*4994*oXX.o@oo",
"--::ooXX#2454,:-:17977;==-=--::--:-$ooo*4974*X.....X ",
"=--:+oXXo&*;---:-<7974=@@@$--::---=$ooo*4994=XXX..oo ",
"-=::+XXX.XXoO&-::<5974&X..$--:-----@ooX*5794-@@@X.o@.",
"%-::+XXX.XXXO&-::<5971*XX.@---:-;;-@#XX*4994;--*@.oo.",
"=-::$+++XXXoO&:>:<5977#XX.@--::-;;-&XX#*5997,;;=@.oo.",
"--::>134*XOOO246557977#XX.@=-::1442*#XX*4997,---#.XXo",
"-=-:4669>OOX&269777973*#X.$=-:,1994;X###;42;;---#.oX.",
"%-::1799>OOO#28964244>+O@Xo--:,1894*#XXX###@=---&.oXX",
"%-::<799>OXX#26962*&&OO+oX@--:<1994*X#X.X.#.%---#.XXX",
"%=::<799>OXO&2696;OXXXooXX+=::<1887*XXX.XX.@$---$.XX ",
"---:<799>OOX&2696;OXXXooXX$--:<1887;**##XX@@$---$.X.X",
"%-=-<799>OXX&2996;OOX.XXXXo=%=,18982727;#X#X%---%. X ",
"oo+$:799;OXXO2696;OXXXXoXXoO$@-18987888;#X#X%:--%... ",
" XXo>6992OXX#2696;OXXXXXXXXXXX&58988888;#XX#%---%@o$+",
" X.o>599;OXX&2996;OXXXXXXX.XOX&19888888;#.#X%--:%---%",
" oXo;799,#oX#<796>oXoXo#OOXXXO&489668982OXoO&---%:::%",
" o.o,499<-%$=4996>ooXo*,,;&oXO*489968972OXXo&-:::>:-%",
".X.O,7992---:5996:+Xo+3667*XXX&499969962OXXO-<<<>:--=",
".o.o:579<,--:4775:oXo+4999*XXO&377667972O.X#,771,::--",
".XXo;211,:---<23,=XXX+1998;XXO&>33347962OXXo,9974::-%",
".XXo&;:,:-:--&##$o.XXo4888*XXXXo#O&27962O.X&,996<::-=",
" X.o&-------&#oXX.XXX+1998;XXXO...#>7993&XX&<998<::=%",
" .Xo$-------*#XoXXooo&5998*XXXXXX.#27994-&&-<9961:--=",
" X.X%---=-:-%@o.Xo%==-1999-X.XX XX#>7994>:-:1997<:::+",
" X.@%-:--::-=@ooX$-:::5997-X.Xo .X#,7974>:::1997<::==",
" . X%=--=---*@.oX$=::,5997-X..oXXXO;<41<,:-:1997<::+:",
".X @%-:---:-=oXoX$=:::5999-XXXXXXX#=:,,,::-:1997<:::=",
"%--;-::---:-=oooo&=-::59972;;;*XXXO+---:-:::19971:::-",
"7999<:-----:-oXXXo=-::59997999<oXOO&--:-::::17971<,,:",
"7999,:--=---=@Xoo&=-->499777993oXXOO=:--::::189869995",
"7999,,----,:-@XXX+=-::455559993#XOX&=:::::-:199759995",
"7799,;---<1<<&XXo@%---,,1<17993#XOo$-::::;-:366556996",
"7999,--;,5994-X.X@=-------1779,@XXo$-:-::----:;:,9996",
"4999,---,7995-..X$%-----;;<7991@X.o+=:::::-=oX.O*9996",
"7999:-%--7994*.. o%-------<999<@..X+==:::--=OXXX*9996",
"7999=o..&49999977<--------17797-:::=-:::::-=+X o:9995"
};
