/* XPM */
static char *dbe8cba53cae4b93c4a9dc6f119f9115BXHD3vM9e1pM9FVK[] = {
/* columns rows colors chars-per-pixel */
"50 50 173 2 ",
"   c #060904",
".  c #0A0805",
"X  c #130D03",
"o  c #170B0B",
"O  c #0E130C",
"+  c #191306",
"@  c #1B130F",
"#  c #110D15",
"$  c #1B0F10",
"%  c #1C1312",
"&  c #161A14",
"*  c #1F1A15",
"=  c #31170C",
"-  c #1E2B1A",
";  c #30250E",
":  c #292017",
">  c #2E241B",
",  c #27351F",
"<  c #1C0D37",
"1  c #251622",
"2  c #200F3D",
"3  c #2A1536",
"4  c #273721",
"5  c #37233F",
"6  c #671E19",
"7  c #402603",
"8  c #5E3805",
"9  c #6F241F",
"0  c #5E2824",
"q  c #4D3725",
"w  c #622C27",
"e  c #6A2F2A",
"r  c #7A2823",
"t  c #35452E",
"y  c #554317",
"u  c #624508",
"i  c #644E1A",
"p  c #564633",
"a  c #5D4F3D",
"s  c #4E5331",
"d  c #664B25",
"f  c #77562A",
"g  c #614A34",
"h  c #764336",
"j  c #63503D",
"k  c #7F5E3E",
"l  c #2C1C4D",
"z  c #351B4E",
"x  c #2B1355",
"c  c #341669",
"v  c #371870",
"b  c #3B1976",
"n  c #3D1B78",
"m  c #421F7E",
"M  c #42227B",
"N  c #502B71",
"B  c #7E4D42",
"V  c #7E5F41",
"C  c #566F4B",
"Z  c #4D7645",
"A  c #4D7843",
"S  c #507B46",
"D  c #8B2924",
"F  c #992C25",
"G  c #AF362D",
"H  c #8D5505",
"J  c #976408",
"K  c #BD6F00",
"L  c #BB7001",
"P  c #B47313",
"I  c #C64037",
"U  c #C3443B",
"Y  c #CD4339",
"T  c #805F40",
"R  c #BC4840",
"E  c #826343",
"W  c #8D6946",
"Q  c #81664A",
"!  c #846A4D",
"~  c #9A734E",
"^  c #866C50",
"/  c #877052",
"(  c #9B7752",
")  c #937A5D",
"_  c #9A7C5B",
"`  c #A07E5B",
"'  c #937B61",
"]  c #C64A41",
"[  c #CF584F",
"{  c #DB5349",
"}  c #E66357",
"|  c #EC665B",
" . c #6B9951",
".. c #6D9956",
"X. c #CB8305",
"o. c #DF9F0D",
"O. c #E09F0D",
"+. c #DFA00F",
"@. c #DFA013",
"#. c #E0A010",
"$. c #DFB138",
"%. c #E8AB20",
"&. c #E0B138",
"*. c #EBBB3D",
"=. c #F6C23D",
"-. c #F9C43D",
";. c #9F805E",
":. c #A5835E",
">. c #B4885E",
",. c #9E8164",
"<. c #A18361",
"1. c #A68C6E",
"2. c #AC8B69",
"3. c #AF9373",
"4. c #B79978",
"5. c #C7925F",
"6. c #C69463",
"7. c #CA9663",
"8. c #CD9966",
"9. c #C79768",
"0. c #CD9C6A",
"q. c #D09B66",
"w. c #D09D6A",
"e. c #CC9E71",
"r. c #CFA06E",
"t. c #CEA273",
"y. c #CEA579",
"u. c #D2A372",
"i. c #D1A67A",
"p. c #D5AB7D",
"a. c #D8AD7E",
"s. c #D9AE7E",
"d. c #92C17A",
"f. c #492980",
"g. c #633C86",
"h. c #623194",
"j. c #6A3997",
"k. c #6E379D",
"l. c #6E3A9D",
"z. c #713C9D",
"x. c #7745A6",
"c. c #814DB5",
"v. c #8453B6",
"b. c #8757B8",
"n. c #8C5BBD",
"m. c #8B56C1",
"M. c #905FC2",
"N. c #D5AC80",
"B. c #D6AD80",
"V. c #D7AE82",
"C. c #D9AE81",
"Z. c #D7B083",
"A. c #D9B184",
"S. c #DDB589",
"D. c #DFB88C",
"F. c #E0B68D",
"G. c #E1B98C",
"H. c #E4BD93",
"J. c #E5BD93",
"K. c #E5BE94",
"L. c #9DCB85",
"P. c #9FCE89",
"I. c #E7C196",
"U. c #EBC397",
"Y. c #E7C298",
"T. c #EBC398",
"R. c #EBC39A",
"E. c #ECC39A",
"W. c #EBC499",
"Q. c #EBC59A",
"!. c #EBC69B",
"~. c #ECC499",
"^. c #ECC49A",
/* pixels */
"J.^.W.W.p.p.s.N.i.C.p.p.u.8.0.8.8.C.N.p.p.Y.R.W.I.I.^.U.U.8.8.8.w.u.Z.N.p.p.C.p.p.Z.^.^.^.K.S.C.Z.N.",
"J.^.W.W.p.p.Z.N.p.C.p.N.u.8.0.8.0.N.p.p.p.E.W.W.I.U.E.W.^.0.8.8.u.t.C.N.p.N.N.N.p.Z.U.^.^.K.W.R.W.J.",
"J.^.U.W.p.p.s.N.p.p.p.N.u.8.0.7.8.N.N.N.p.W.W.^.I.Y.^.W.R.0.8.0.w.u.N.p.p.A.s.p.p.A.^.^.U.K.E.E.E.K.",
"K.^.U.^.p.p.C.C.N.G.J.G.s.8.8.8.0.N.N.p.y.N.p.N.p.J.E.W.W.0.8.0.0.u.Z.p.p.p.p.N.p.Z.U.^.R.J.U.U.W.K.",
"K.E.^.Q.p.N.N.C.S.^.^.E.C.8.8.8.0.A.N.p.i.p.N.p.p.K.W.W.W.0.7.7.8.u.Z.p.p.p.p.Z.p.u.p.s.s.p.U.E.W.J.",
"K.E.Q.Q.C.N.p.C.S.^.^.W.C.8.7.8.e.Z.p.p.p.Z.p.s.N.U.W.R.W.0.7.7.8.t.Z.p.s.A.p.p.s.t.8.8.q.q.U.R.W.J.",
"K.R.W.Q.u.t.t.t.A.^.^.^.C.8.8.0.e.N.N.i.u.Z.p.s.p.K.R.W.^.e.0.9.0.y.Z.p.p.p.A.p.C.t.8.8.q.0.^.U.Q.K.",
"J.E.W.^.0.8.8.8.s.^.W.^.G.N.p.C.N.N.N.p.p.p.p.p.p.R.E.W.W.N.p.N.p.p.Z.p.p.p.p.Z.N.t.0.8.8.8.E.R.Q.K.",
"J.U.U.W.0.8.0.7.s.^.W.^.G.p.p.s.p.p.p.p.p.s.p.p.p.I.E.U.^.p.p.C.p.p.s.p.p.S.G.D.F.p.8.8.8.0.^.E.W.K.",
"J.U.W.^.0.8.0.8.s.^.W.W.G.C.p.C.p.S.S.S.N.p.<._ ) 1.1.1.1.) ) _ ) 1.s.p.p.D.!.W.E.C.w.8.8.0.U.E.W.Y.",
"K.^.W.W.0.w.w.7.A.^.^.W.G.p.p.N.N.W.W.Q.,.^ e w w w w w w w w w = B s.p.p.D.U.W.W.C.w.8.w.0.U.E.W.I.",
"J.^.W.W.0.q.w.7.C.W.^.W.F.p.p.C.N.W.1.' h 0 } | | | | | | | { U r j s.s.Z.G.!.W.^.C.w.0.8.0.R.E.W.K.",
"K.R.W.W.0.0.0.7.C.E.W.W.G.p.p.C.2.' B e [ | | | | | | | { ] G F 6 g u.r.u.A.U.R.W.C.w.0.w.0.W.E.Y.I.",
"C.D.D.G.0.w.w.6.C.E.W.W.G.p.p._ h 6 R { { { { { { { { R G F F F 6 p q.7.7.C.W.W.W.C.w.8.8.e.R.R.W.K.",
"p.p.p.C.0.0.0.7.C.E.^.^.G.p.p.p r Y Y Y Y Y Y Y Y Y I F F F F F 6 g 8.8.8.s.R.U.^.C.8.u.w.7.C.A.C.N.",
"p.p.p.p.0.0.0.7.C.^.^.W.G.p.p.p r Y Y Y Y Y Y Y Y Y I F F F F F 6 g 8.8.8.s.R.^.R.C.w.w.q.6.8.8.8.7.",
"i.p.C.N.0.w.8.7.s.^.^.^.D.p.p.p r Y Y Y Y Y Y Y Y Y I F F F F F 6 g w.0.8.s.^.U.^.s.w.7.8.7.7.8.8.6.",
"p.p.s.Z.0.8.8.7.8.u.u.u.u.p.N.p r Y Y Y Y Y Y Y Y Y Y F F F F F 6 g w.0.7.s.^.U.U.Z.8.7.8.8.7.q.8.8.",
"i.p.N.N.9.8.8.7.6.8.8.8.u.N.N.p r Y Y Y Y Y Y Y Y Y I F F F F F 6 g 0.0.7.s.U.^.^.A.u.r.u.0.7.r.w.8.",
"i.p.A.N.0.8.7.0.7.8.w.8.u.p.Z.p r Y Y Y Y Y Y Y Y Y I F F F F F 6 g 0.0.7.s.^.^.^.S.C.A.s.u.7.w.8.8.",
"i.p.N.N.e.r.0.0.7.w.w.8.u.A.N.p r Y Y Y Y Y Y Y Y Y I F F F F F 6 g 0.0.8.p.W.U.U.S.p.p.s.i.7.q.0.0.",
"p.p.N.N.G.^.E.W.u.8.w.8.Z.W.^.a r Y Y Y Y Y Y Y Y Y I F F F F r X % > > : :.W.W.W.D.p.p.p.p.7.0.8.0.",
"p.p.Z.N.G.W.R.U.:.@ % % % * * % r Y Y Y Y Y Y Y Y Y I F F r   3 l.v.v.x.z Q p.s.p.p.p.p.s.u.7.0.8.8.",
"i.p.N.C.J.^.4.& d &.&.$.$.&.&.y r Y U Y Y Y Y Y Y Y Y D # q l.x.m.c.h.M 2 k 8.8.8.0.p.p.Z.i.7.8.8.9.",
"p.i.N.N.A.* s *.*.-.-.-.-.-.-.i X $ o o $ % $ $ % # $ 1 z.b.b.v.h.M n b 2 V 0.r.7.e.p.B.N.i.6.0.0.7.",
"u.p.y.+ : =.=.-.*.-.-.-.-.-.%.X.K P q # g.l.n.b.m.M.m.M.m.b.j.M f.M n v < V 6.0.0.0.i.i.C.y.6.9.8.7.",
"p.p.X @.O.o.+.+.O.O.O.O.#.O.X.K K ; N k.k.k.k.k.k.k.k.k.l.h.b M b v l & & & & & & & & & & & O   8.9.",
"t.t.X +.O.O.O.O.O.O.O.O.O.O.X.K K ; N k.k.k.k.k.k.k.k.k.k.h.b n b l s P.P.P.P.P.P.P.P.P.L.L...  7.7.",
"7.8.X +.O.O.O.O.O.O.O.O.#.#.X.K K 7 N z.k.k.k.k.k.k.k.k.k.h.b v l C P.P.P.L.P.P.P.L.P.P.L. .Z   8.9.",
"7.8.X o.O.O.O.O.O.O.O.O.O.#.X.K K 7 N z.k.k.k.k.k.k.k.k.k.h.b x t d.d.d.d.d.d.d.d.d.d.d...A Z   p.p.",
"7.8.X o.O.O.O.O.O.O.O.O.O.O.X.K K 7 N k.k.k.k.k.k.k.k.k.k.h.b x ,  . . . . . . . . . . .S A Z   p.y.",
"7.8.X o.O.O.O.O.O.O.O.O.O.O.K K K 7 N k.k.k.k.k.k.k.k.k.k.h.b x ,  . . . . . . . . . . .A Z Z   p.i.",
"7.w.X +.O.O.O.O.O.O.O.O.O.O.X.L L 7 N k.k.k.k.k.k.k.k.k.k.h.b x ,  . . . . . . . . . . .S Z Z . p.y.",
"6.8.X +.O.O.O.O.O.O.O.O.O.O.X.L K 7 N l.k.k.k.k.k.k.k.k.k.h.b x ,  . . . . . . . . . . .S Z Z   p.i.",
"9.8.X +.O.O.O.O.O.O.O.O.O.O.X.K L ; N k.k.k.k.k.k.k.k.k.l.h.n x ,  . . . . . . . . . . .S Z Z   p.p.",
"7.8.X +.O.O.O.+.O.O.O.O.O.+.X.K H = N k.k.k.k.k.k.k.k.k.l.h.c < 4  . . . . . . . . . . .S Z Z   p.i.",
"6.8.X O.O.O.+.O.o.o.+.+.O.O.J 8 d : 3 z z z z z z z z z z z 5 q ,  . . . . . . . . . . .S Z Z   i.i.",
"6.8.. u u u u u u u u u u u f T >._ Q Q ! ' ' ) ) T E T V k W ~ ,  . . . . . . . . . . .S Z Z   p.p.",
"6.8.T E ! ^ ! ^ Q / ! ! Q T >.7.0.N.N.C.N.^.^.U.E.7.8.7.0.6.7.~ ,  . . . . . . . . . . .S Z , / i.i.",
"6.q.5.w.u.N.p.p.p.s.p.s.r.8.w.q.e.N.V.V.N.W.W.W.K.7.8.7.0.7.8.~ ,  . . . . . . . . . . .S 4 ! p.p.p.",
"6.8.7.0.y.A.p.p.i.s.p.p.u.7.0.8.0.N.N.p.N.^.E.U.Y.8.8.6.0.6.9.~ O 4 , , , , , , , , , , - ' N.p.p.i.",
"6.7.6.0.y.C.p.p.p.s.p.p.u.7.w.8.r.C.p.Z.N.^.^.E.K.6.8.6.0.7.8.6.( ( :.<.` <.<.<.;.,.3.3.3.G.N.C.p.p.",
"K.W.W.^.N.A.p.p.y.s.p.p.u.7.0.0.0.N.p.C.N.^.^.^.I.I.R.W.R.0.8.8.w.t.N.s.C.N.N.N.p.A.U.W.R.J.p.p.N.i.",
"K.^.^.W.N.C.p.p.y.s.p.Z.u.7.0.w.0.p.p.Z.N.^.^.^.I.K.W.R.W.0.9.0.w.t.p.s.p.s.N.N.p.Z.W.W.R.K.W.W.W.K.",
"K.E.W.^.C.C.p.p.p.s.p.N.u.7.8.q.e.p.p.Z.N.W.^.E.I.K.W.E.Q.0.0.8.w.t.p.s.N.A.A.p.s.Z.R.^.W.J.R.W.W.K.",
"J.^.^.W.p.A.p.p.p.S.G.D.p.7.0.8.0.p.p.N.p.S.S.S.S.Y.W.^.E.0.8.0.w.t.p.p.N.p.C.p.p.Z.^.^.W.K.R.W.W.K.",
"J.^.U.W.N.s.p.p.S.^.^.^.Z.7.7.q.0.p.p.C.i.N.p.C.N.K.W.E.W.0.8.8.0.r.p.C.p.N.A.p.p.i.C.C.A.S.W.^.W.K.",
"J.^.W.W.N.Z.p.p.S.^.^.W.s.8.7.8.0.p.p.C.p.p.p.C.p.I.E.E.W.0.w.8.w.t.p.N.C.p.s.p.p.t.8.7.8.0.E.^.W.J.",
"J.U.R.^.y.p.y.i.A.^.W.^.C.6.6.7.0.p.p.Z.p.p.p.p.p.I.U.W.W.9.7.7.7.e.p.p.N.C.C.p.p.u.0.7.8.0.^.^.^.U.",
"J.W.W.W.0.8.7.8.s.E.^.^.W.W.W.R.S.p.p.p.p.p.p.Z.p.U.U.W.^.N.p.N.p.p.p.N.N.N.s.p.N.t.0.8.8.u.U.^.W.J."
};
