/* XPM */
static char *Group_1_1toy511676372864[] = {
/* columns rows colors chars-per-pixel */
"51 51 187 2 ",
"   c #060904",
".  c #130D02",
"X  c #1F1413",
"o  c #2D1B12",
"O  c #272719",
"+  c #281C34",
"@  c #363F26",
"#  c #322335",
"$  c #52191D",
"%  c #631D19",
"&  c #4D2E15",
"*  c #6A2C15",
"=  c #4A1E38",
"-  c #482A3A",
";  c #4E3031",
":  c #5B3C35",
">  c #642323",
",  c #652E23",
"<  c #732622",
"1  c #732925",
"2  c #69362B",
"3  c #6C3429",
"4  c #6F3F34",
"5  c #3A452B",
"6  c #3E5B35",
"7  c #6E4201",
"8  c #67400C",
"9  c #76500E",
"0  c #6A4C16",
"q  c #6B4E19",
"w  c #52462F",
"e  c #415B32",
"r  c #79572C",
"t  c #6B4634",
"y  c #734336",
"u  c #734439",
"i  c #6B5339",
"p  c #6E5B3C",
"a  c #74573C",
"s  c #71593E",
"d  c #43653C",
"f  c #7D6325",
"g  c #2E184C",
"h  c #311D59",
"j  c #2B2142",
"k  c #3E2644",
"l  c #362956",
"z  c #35176B",
"x  c #36196A",
"c  c #3A1975",
"v  c #472B48",
"b  c #492A49",
"n  c #4A304F",
"m  c #472957",
"M  c #4D3353",
"N  c #401F79",
"B  c #533566",
"V  c #573969",
"C  c #432178",
"Z  c #542C7D",
"A  c #444E4A",
"S  c #745E45",
"D  c #526949",
"F  c #4D7645",
"G  c #4F7A46",
"H  c #567D44",
"J  c #5A744E",
"K  c #756149",
"L  c #7A6248",
"P  c #862620",
"I  c #8F2B25",
"U  c #992C25",
"Y  c #98362F",
"T  c #A5322A",
"R  c #B0362D",
"E  c #AD3831",
"W  c #B33A32",
"Q  c #915808",
"!  c #91660F",
"~  c #B66C00",
"^  c #BC6F00",
"/  c #AC710D",
"(  c #BD7202",
")  c #95443B",
"_  c #B7483F",
"`  c #856A29",
"'  c #A17F2F",
"]  c #C07401",
"[  c #C87F07",
"{  c #C4463C",
"}  c #CC4339",
"|  c #D0473D",
" . c #9C4A40",
".. c #8B6946",
"X. c #85664A",
"o. c #8B6A4A",
"O. c #926D47",
"+. c #946E4A",
"@. c #98734E",
"#. c #876C55",
"$. c #926E59",
"%. c #8D7457",
"&. c #977755",
"*. c #95795A",
"=. c #9A7C5B",
"-. c #A37C56",
";. c #C3544A",
":. c #C9574E",
">. c #D8544B",
",. c #DF584D",
"<. c #D95E54",
"1. c #E55F54",
"2. c #EB665B",
"3. c #598044",
"4. c #5E8A4E",
"5. c #68954F",
"6. c #679550",
"7. c #689550",
"8. c #6B9951",
"9. c #7FA86A",
"0. c #BF880B",
"q. c #A2822F",
"w. c #C78709",
"e. c #D08A07",
"r. c #DF9F0C",
"t. c #DD9D17",
"y. c #E09F0D",
"u. c #DFA00F",
"i. c #DEA622",
"p. c #EBB024",
"a. c #EAB93B",
"s. c #F2BD37",
"d. c #F9C43D",
"f. c #9D805F",
"g. c #A7825B",
"h. c #B78A5D",
"j. c #9F8160",
"k. c #A58563",
"l. c #A88A68",
"z. c #BA946C",
"x. c #A98D70",
"c. c #AE9273",
"v. c #B89B78",
"b. c #82AF6B",
"n. c #83B16A",
"m. c #C79463",
"M. c #CA9663",
"N. c #CD9966",
"B. c #CE9B6A",
"V. c #D09D6C",
"C. c #C69D73",
"Z. c #CFA06F",
"A. c #CFA273",
"S. c #CBA47A",
"D. c #D2A374",
"F. c #D2A779",
"G. c #D5AB7D",
"H. c #D8AC7F",
"J. c #97C57F",
"K. c #4C2683",
"L. c #532789",
"P. c #582B88",
"I. c #5C3393",
"U. c #62318B",
"Y. c #653A89",
"T. c #6D379D",
"R. c #6A3A99",
"E. c #6E3FA2",
"W. c #7644A6",
"Q. c #7D4AAD",
"!. c #7E4BB1",
"~. c #8151B1",
"^. c #CDAC86",
"/. c #D6AD80",
"(. c #D9AE81",
"). c #DCB285",
"_. c #DEB589",
"`. c #DCB68D",
"'. c #E0B587",
"]. c #E2BA8E",
"[. c #E4BD93",
"{. c #98C781",
"}. c #9AC982",
"|. c #9FCE88",
" X c #E7C095",
".X c #E9C297",
"XX c #EBC499",
/* pixels */
"[.XXXXXX).G.H.H.F./.G.G.F.N.B.N.B.F.G.G.G.`.XXXXXX XXXXXXX_.B.N.B.Z.G./.H.G.G./.G.G._.XXXXXX].).).)./.",
"[.XXXXXXH.G.H./.G.H.H.G.F.B.B.N.M.F.H.G.G.[.XXXXXX X XXXXX_.B.N.B.Z.F.H.G.G././.G.G.).XXXXXX XXXXXXX[.",
"[.XXXXXX/.G.G./.G.H.H.H.F.B.B.N.N.F.H.G.G.`.XXXX X X XXXXX'.N.N.Z.Z.G./.G.G.H./.G.G.).XXXXXX XXXXXXX[.",
"[.XXXXXX/.G.H./.).`.`.].H.V.B.M.B.F./.G.S.G.G.G.G.`.XXXXXX).B.N.N.B.S.H.G.G.G.G.G.G.).XXXXXX XXXXXXX[.",
"[.XXXXXX/.H.G./.)..XXX.X).V.N.N.B.F././.F.G.G./.G.`..XXXXX'.N.N.N.N.F.H.G.G.G.H.G.G.G.H.H.H.H.XXXXXX X",
"[.XXXXXX)./././.)..XXXXX).V.M.N.B.F./.G.F.G./.G.H.`..XXXXX'.B.M.M.Z.F.H.G.G.H.G.G.G.A.B.B.V.Z.XXXXXX[.",
"[.XXXXXXG.A.A.A.)..XXX.X).A.N.N.C.F./.G.G.G.G.G.H.`. XXXXX`.N.N.M.C.G./.G.G.G.H././.A.N.N.B.Z.XXXXXX[.",
"[.XXXXXXD.B.B.B.H..XXX.X].).G.G.F.G./.G.F.G./.G.H._. X XXX[.G.G.G.G.G./.G.G.G.G././.Z.N.N.B.Z.XXXXXX[.",
"[.XXXXXXD.N.N.N.H. X.X.X].).G.H.F./././.F.G.G.G.G._..X.XXX].H.G.H.G.G.H.G.H.).`.].H.D.V.N.V.D.XXXXXX[.",
"[.XXXXXXD.V.N.N.H. XXXXX].).G.H././.).`.(.G.C.k.f.l.c.c.c.x.f.j.j.l.v.H.H./. X XXX XH.N.V.N.V..XXXXX X",
" XXXXXXXD.N.B.M.H..XXXXX]./.G././.`.[.[.S.=.X.y t y u u y 4 t 4 2 : =.H.G./. XXXXX.XH.V.N.N.D..XXXXX[.",
"[.XXXXXXD.N.V.N.H.XXXXXX[./.G.G./.[.^.c.$.u ) :.:.:.:.:.:.:.;._ Y 2 %./.G./.].XXXX.XH.V.V.N.Z.XXXXXX X",
" X.XXXXXD.V.B.M.D.XXXXXX].H.G./.C.c.$. .) ;.<.2.2.2.2.2.1.>.;.R I 2 o.D.D.H.].XXXX.XH.N.B.N.D.XXXXXX[.",
"_.].`.[.A.V.B.M.H..XXXXX XH.F.z.o.4 Y _ >.,.,.,.,.,.>.>.{ W T U P , o.B.N.D.H.XXXX.XH.V.B.B.D.XXXXXX[.",
"G.H././.B.V.B.M.H..X.XXX].H.H.X.3 Y _ ;.| | | | | | } W T U U U P , ` N.N.N.'.XX.X.XH.B.V.B.Z.H.`.'.).",
"G.G.H./.B.B.B.M.H..XXXXX].H.H.L 3 R } } } } } } } } } R U U U U P 3 +.N.N.N.H.XXXX.XH.V.V.B.N.V.Z.V.B.",
"G.G.H./.B.V.B.M.H.XXXXXX].H.G.K 3 E } } } | } } } } } T U U U U P , ..B.N.Z.'.XXXXXXH.N.N.N.M.M.N.N.M.",
"G.G.H./.B.B.B.M.V.H.H.)./.H.G.K 3 E } } } } } } } | } R U U U U P , ..B.N.B.H.XXXX XH.N.M.N.M.M.B.N.N.",
"F.G.H./.V.N.M.M.M.B.B.B.D.G./.K 3 E } } } } } } } } } R U U U U P , ..N.B.B.H.XX X.XH.D.B.V.N.M.B.B.m.",
"G.S././.Z.N.B.M.M.N.B.N.B.G./.K 3 E } } } } } } } } } R U U U U P , ..N.B.Z.'.XXXX.X_.H.F.G.Z.M.V.B.N.",
"F.G.G./.Z.V.N.B.M.N.V.N.A.G./.K 3 R } } } } } } } } } R U U U U P , ..N.N.N.).XXXXXX).H.G.H.D.M.B.V.N.",
"G.G./././.].`._.Z.B.N.V.G.[.[.K 3 E } } } } } } } } { R U U U P % o ; i i L S.XXXX X).G.G.H.Z.M.B.N.N.",
"G.G.G./.`..XXXXXB.a a a K #.L w > E } } } } } } } } } R U U < $ - m B V m ; k.]. X'.H.H.G.H.F.M.B.N.N.",
"S.G././.`.XX`.f.s r f ` f f f & , E } } } } } } } } } R < > = m Y.!.Q.W.K.k @.D.Z.D.D.H.G.G.F.M.B.N.N.",
"G.G.H.H.`.f.%.f ' a.a.a.a.a.a.` & , < < < < < < < < 1 > b B Y.~.!.W.I.K.z # O.N.N.N.Z.G.G.H.D.M.N.N.M.",
"S.G.G.L L ` q.d.s.d.d.d.d.d.s./ 9 * & X + m B B B B B V Y.~.~.E.I.K.N c z # o.N.B.N.B.F.G.G.A.m.N.N.N.",
"F.G.p 9 f i.i.p.p.p.p.p.p.p.t.[ ( Q 2 m Z T.E.~.Q.Q.Q.Q.Q.W.T.Z N N c h + + w i S p S S K K S i i M.M.",
"S.F.. u.u.u.u.u.y.y.y.y.y.y.e.] ( 7 b U.T.T.T.T.T.T.T.T.E.T.L.c c x l M J J J J J J J J J J F 6   m.M.",
"V.V.. u.u.u.u.u.y.y.y.y.y.y.e.] ( 7 v U.T.T.T.T.T.T.T.T.T.T.L.c x l D b.|.|.|.|.|.|.|.|.|.J.9.4.  m.m.",
"M.N.. u.u.u.r.u.y.y.y.y.y.y.e.] ~ 7 b U.T.T.T.T.T.T.T.T.T.T.L.z h A b.}.}.}.}.}.{.{.}.{.J.n.4.G   Z.Z.",
"M.B.. y.r.r.r.r.y.y.y.y.y.y.e.] ^ 7 b U.E.T.T.T.T.T.T.T.T.T.L.z j F n.n.n.n.n.n.n.n.n.n.9.4.F F   ^.G.",
"M.N.. y.y.r.r.r.y.y.y.y.y.y.e.] ^ 7 b U.T.T.T.T.T.T.T.T.T.T.L.z j e 8.8.8.8.8.8.8.8.8.8.5.G F F   G.F.",
"m.N.. u.y.y.y.y.y.y.y.y.y.y.e.] ~ 7 v U.T.T.T.T.E.T.T.T.T.T.K.z j e 7.7.8.8.8.8.8.8.8.8.5.G F F   G.S.",
"m.B.. u.y.y.y.y.y.y.y.y.y.y.e.] ( 7 b U.T.T.T.T.T.T.T.T.T.R.L.z j e 7.7.8.8.8.8.8.8.8.8.5.G F F   G.F.",
"M.B.. u.u.r.u.u.y.y.y.y.y.y.e.] ( 7 b U.T.T.T.T.E.T.T.T.T.T.L.x j e 8.8.8.8.8.8.8.8.8.8.8.G F F   G.F.",
"M.B.. u.r.u.u.u.y.y.y.y.y.y.e.] ( * b U.T.T.T.T.T.T.T.T.T.R.L.x + e 8.8.8.8.8.8.8.8.8.8.7.F F F   G.F.",
"m.B.. u.u.u.u.u.r.r.r.r.r.u.w.~ Q & # Z U.U.U.U.U.U.U.U.U.P.C g # e 8.8.8.8.8.8.8.8.8.8.7.G F F   G.F.",
"m.B.. w.0.0.0.0.0.0.0.0.0.0.! 8 r w - v b n n M M n b b b b v : w e 8.8.8.8.8.8.8.8.8.8.7.F F F   F.F.",
"m.N.o 0 0 0 0 0 q q 0 q 0 0 ` o.-.h.=.*.*.k.x.x.l.-.+.+.+.+.+.@.p e 5.8.8.8.8.8.8.8.8.8.8.G F d O F.F.",
"m.M.O.+.&.f.f.*.*.=.=.*.&.+.h.M.B.F./././.[.XXXX[.(.N.N.N.N.N.h.p e 8.8.8.8.8.8.8.8.8.8.6.G 6 5 f.G.F.",
"M.N.m.B.A././.G.G././.G.D.N.B.B.B.F./././.[.XXXX XH.N.N.N.N.M.h.p 5 3.3.4.d 3.H 3.3.H 3.G e w *.H.G.F.",
"m.M.m.B.S./.G.G.F./.G.G.D.N.B.N.B.F.G././.].XXXX XG.N.m.N.B.M.h.p O 5 5 @ 5 @ 5 @ @ @ 5 5 5 l.^./.F.F.",
"B.B.B.A.S.(./.G.G./.G.G.A.N.B.N.B.F.G.G./.].XXXXXX/.B.B.B.N.M.N.h.f.g.k.h.k.l.k.k.k.l.v.v.v.`.H././.F.",
"[.XXXXXX)./.G.G.F.H.G./.D.N.N.B.V.F.G././.[.XXXX.X XXXXXXX`.B.N.N.N.F.G.H.H./././.H.).XXXXXX`./././.G.",
"[.XXXXXX)././.G.F.H.H.G.F.N.B.N.B.F.G.(./.[.XXXXXX XXXXXXX'.B.B.N.Z.D.G.G.G././.G.G.)..XXXXX XXXXXXX X",
"[.XXXXXX(./.G.G.G.H.H./.D.B.N.B.B.F.G./.G.]..XXX.X[.XXXX.X].B.N.N.Z.D.G././././.G.H.)..XXXXX XXXXXXX X",
" XXXXXXX/.(./.G./.`.`.`.H.B.N.N.B.D././.G.(.)._._.`.XXXXXX'.B.M.N.Z.D.G.H./././.G.G.). X.X X[..XXXXX X",
"[.XXXXXX/./.G.H.).XXXXXX_.B.N.N.B.F.F.(.F./.G.G./.`..XXXXX'.B.B.B.Z.D.G././././.G.G.G.(.).).)..XXX X[.",
"[.XXXXXX).G.H.G.).XXXXXX].B.M.M.B.F.G.G.G.G.G.G.G.`. XXXXX_.B.N.N.V.A.G.H./.H./.G.G.Z.B.m.N.D.XXXXXX X",
"].XXXXXXG.G.F.S.).XXXXXX).B.m.m.N.D.G.G.G.G.G.G.G.`. XXXXX_.M.M.M.B.A.G.G./././.G.G.Z.N.N.N.D.XXXXXX X",
"[.XXXXXXZ.B.M.M.H..XXXXXXXXXXXXX].H.G.G.G.G.G.H.G.`.XXXXXX XG.G.G.G.G.G././.H.H.G.G.A.B.N.N.F.XXXXXX X"
};
