/* XPM */
static char *b91f248a00374cf9cd55814795bb30a3yGp7HTZz238FAlAA[] = {
/* columns rows colors chars-per-pixel */
"131 131 32 1 ",
"  c None",
". c #CA955F",
"X c #C69462",
"o c #CB9664",
"O c #CD9966",
"+ c #C89768",
"@ c #CE9C6A",
"# c #D09D6B",
"$ c #CC9F70",
"% c #CEA06F",
"& c #D1A06F",
"* c #CEA173",
"= c #CFA678",
"- c #D3A473",
"; c #D7A877",
": c #D2A779",
"> c #D5AB7D",
", c #D8AD7E",
"< c #D6AD81",
"1 c #D8AE81",
"2 c #D7B083",
"3 c #DBB285",
"4 c #DDB58A",
"5 c #E1B586",
"6 c #E1B78B",
"7 c #E3B98D",
"8 c #E5BE93",
"9 c #E8BE94",
"0 c #E6C095",
"q c #EAC297",
"w c #E6C199",
"e c #EBC499",
/* pixels */
"                                                                                                                                   ",
"                                                                                                                                   ",
"                                                                                                                                   ",
"                                                                                                                                   ",
"                                                                                                                                   ",
"                                                                                                                                   ",
"                                                                                                                                   ",
"                                                                                                                                   ",
"                                                                                                                                   ",
"                                                                                                                                   ",
"                                                                                                                                   ",
"                                                                                                                                   ",
"                                                                                                                                   ",
"                                                                                                                                   ",
"                                                                                                                                   ",
"                                                                                                                                   ",
"                                                                                                                                   ",
"                                                                                                                                   ",
"                                                                                                                                   ",
"                                                                                                                                   ",
"                                                                                                                                   ",
"                                                                                                                                   ",
"                                                                                                                                   ",
"                                                                                                                                   ",
"                                                                                                                                   ",
"                                                                                                                                   ",
"                                                                                                                                   ",
"                                                                                                                                   ",
"                                                                                                                                   ",
"                                                                                                                                   ",
"                                                                                                                                   ",
"                                                                                                                                   ",
"                                                                                                                                   ",
"                                                                                                                                   ",
"                                                                                                                                   ",
"                                                                                                                                   ",
"                                                                                                                                   ",
"                                                                                                                                   ",
"                                                                                                                                   ",
"                                                                                                                                   ",
"                                        8eqe3:11><::;-+@O<2:>8eee8eee7o&OO<2>,,<:<3eeee4443                                        ",
"                                        8eqe3:1<><<<;@OOX><:>8eee7eee7o#O@<<>>,<<,3eeqeeee9                                        ",
"                                        8eqe3<<<>>,,;@OOO><><0eee8eeq7o#%O>,<<>2>>3eeeqeee9                                        ",
"                                        9eee3:1<<8484@OOO<2<>><><3eeq7o#O@23:<>2>>3eeeeeee8                                        ",
"                                        9eee3<,<3eee7&oOO<<>>,><,3eeq7O@oO>>>>:3<<:;;;1eee9                                        ",
"                                        9eee4<:<3eee7@.o+<<>,,<>,4qeq7oOoO>2>,<<><@OO#-eee9                                        ",
"                                        99ee<=::3eee7@X++><><,:<13eeq7OO++<<=,<<<<@@O#&eee9                                        ",
"                                        9eee-OOo;eeq8,<,<><><,<<<3eee0<,2:<,><<<<<#O#O-eee8                                        ",
"                                        8eee-OOO;eee91<<<:<<2,:<13eee0>>2>2>>>23:1*O#O&eee9                                        ",
"                                        8eee;OOO;eee91:,,<323>><,4eew0,>>>>3>>0eqe:##O-eee9                                        ",
"                                        8eee;O#o>eee91:1>0eee3><13eew0<>3>>>>>0eee;O#O-eee9                                        ",
"                                        9eee-O@O;eee81:1,0eee3>2<4eew8<>,,>>>>0eee,O#O&eee9                                        ",
"                                        8qqe;@@O;eee8,>:<8eqe3:<<3eee0>>>>=;::0qee,#&+-eee8                                        ",
"                                        8eee;O@O:eeq8,:1,0eee3,<,4eee8>>3>O.Oo7eee:##O;eee9                                        ",
"                                        >>,<@@@O,eeq81:320eee3,<>><>>>>>2,OOOO7eee,O#@&eee8                                        ",
"                                        >,:<&#OO;eee8:>3<0eee3:<>><>2>2>2>O.%.7eee:O&OoOXOX                                        ",
"                                        >>:<&@OO;qeq8:<1<9eee3:<2><><<2<2>@OOo7qee>OOOoO@Oo                                        ",
"                                        >><<&@OO-3555<:1<weqe,;-==>><2<:,,+O#o7eee>@oOoo@@o                                        ",
"                                        >><<&@OO.OOO$<:<29eee-#oO%><<,<>>>@@&.7eee>@oO@o@OO                                        ",
"                                        :>12@OoOoo#O@<<<<8eqe-OoO%>>2,>>><@O@o7eee3<,,:o#@O                                        ",
"                                        :>3<$#oOoo#o#<<<<8qee-#OO@<>1,,><:O#&.7eee3>,,;O#OO                                        ",
"                                        =<<<4767;o#O*98888eee-@@O@>>,38887OO@o8eee3<>1;o#@@                                        ",
"                                        <><<8eee;O#O;eeeq8eee-@@+%>>14eqe9OO#O7eee3>><:O&O+                                        ",
"                                        =><<7eee;o##-eeeq4778-@@O%>>14eeqqO##OoOO+@,<<:o@OO                                        ",
"                                        ><1<9eee;O#O;eeeqoooOO@-o%>><4eee0OO@OOOO@%;<<:o%OO                                        ",
"                                        >:<<8eee>o##;eqeqoOO@@#Oo%>><4eqq0OO+OoO#O%,>3>oOOO                                        ",
"                                        =><<8eee1O@O-eeqqoOO#@##+@><<3eeqqoOOOO@O@%>>2>oOOO                                        ",
"                                        >><19eee,o@#;eeeq.@O#+O#O@><<4eeqq7787#O@O%,<2>oOOo                                        ",
"                                        +@@$7eee;OO#-eeqq.OO#OO@OX+@$:eeq0eeee&@O&%,<1:+oOX                                        ",
"                                        XoOO6eee,oOO;eeqqoOO#OO@OoOOO;eeqqqqee&@O#%,:<1=*@*                                        ",
"                                        oOOO6eee,OoO-eeeqoOO#OOOo.o#O;eeeqqqee&@@@*><<2<<>:                                        ",
"                                        oOO#7eee,OoO-eee0o@O#OOOO.o##-eee8qeee&@@O%,<<<<,>:                                        ",
"                                        oOO#6eee3;::<eeeeXOO&6908;o&O-qee0eeqe#OO##<<<2<>>>                                        ",
"                                        o@O#6eee41<:3eee0oOO#7eee;o#O;qeeqeeee-OO#-4744<<>>                                        ",
"                                        +OO#6eee4<<<4eeeeXOo#7eee;o#@;eee8eeee-OoO,eee9<<>>                                        ",
"                                        o@O#1444<<<;<111<oOo#7eee;o#@#1,,,qeee-Oo#,eee9<2>:                                        ",
"                                        oOO&;1<,:<<<:@OOOoOo@7eee;o#O#ooOOeeee-ooO:eee8<2>:                                        ",
"                                        XOO#>:<<,<<::o#OOOO.@7eee;o##oo#o+eeee:&@*1eee9<2;:                                        ",
"                                        oOO#><<::<<;;O#O+:-=>8eee;oO@@oOO$9eee4<<,3qeq8<,>>                                        ",
"                                        ooO@;<,<:<<;;o#O+>><29eee;oO@#o#OOeeee1,1:3qee8<,>:                                        ",
"                                        +Oo@:3<,>,>>>o#OO,<2<8eee,oOO#o#OO0eee4<<:3qee0,,>=                                        ",
"                                        oOo#:3<>=<>>>o#OO:>2,8eee:OoOOo#OO222411<,3qee0><>>                                        ",
"                                        @@+*<2>>>,:,-o@OO>>2<0eee,#O$@o#OO>><:1<<>4eee0,<>,                                        ",
"                                        8eee4<>>><,1>o&O@>,>20eee8eee7o#OO,><<13<<3eee8<2<>                                        ",
"                                        9eee31>:=<:<;o#OO>:,20eee9eee7o#oO,>,222<,3eeeeeee0                                        ",
"                                        8eee3<<<>1<<;o#OO>:3>0eee9eee7o#@O>>,2>3::3eeeeeee8                                        ",
"                                        9eee31:1<4443O@OO:>,232244eee7o#OO>>2,,>:14eeeeeee9                                        ",
"                                        8eee33:13eee8XOO+>=>>2,,<3eee7o#@+>:,<,3<::3134eee8                                        ",
"                                        8qee3,>,4eee8oOoO:>1<,,2<4e9e7OOOo>>,<,<::*@oO-eee9                                        ",
"                                        9qee<>==1eee6+oXX>>1<,><<4eee4OooX>>3<<2<<-OOO-eee0                                        ",
"                                        8eee-OoO;eeeeeeee>:<2,,<<4eee0<<>>>>1<<1:<@O#O;eee9                                        ",
"                                                                                                                                   ",
"                                                                                                                                   ",
"                                                                                                                                   ",
"                                                                                                                                   ",
"                                                                                                                                   ",
"                                                                                                                                   ",
"                                                                                                                                   ",
"                                                                                                                                   ",
"                                                                                                                                   ",
"                                                                                                                                   ",
"                                                                                                                                   ",
"                                                                                                                                   ",
"                                                                                                                                   ",
"                                                                                                                                   ",
"                                                                                                                                   ",
"                                                                                                                                   ",
"                                                                                                                                   ",
"                                                                                                                                   ",
"                                                                                                                                   ",
"                                                                                                                                   ",
"                                                                                                                                   ",
"                                                                                                                                   ",
"                                                                                                                                   ",
"                                                                                                                                   ",
"                                                                                                                                   ",
"                                                                                                                                   ",
"                                                                                                                                   ",
"                                                                                                                                   ",
"                                                                                                                                   ",
"                                                                                                                                   ",
"                                                                                                                                   ",
"                                                                                                                                   ",
"                                                                                                                                   ",
"                                                                                                                                   ",
"                                                                                                                                   ",
"                                                                                                                                   ",
"                                                                                                                                   ",
"                                                                                                                                   ",
"                                                                                                                                   ",
"                                                                                                                                   "
};
