/* XPM */
static char *_8732dcff73c4687a7426e413caee6a3DbdjeB6wG9V9QhhR[] = {
/* columns rows colors chars-per-pixel */
"50 50 178 2 ",
"   c #111B1D",
".  c #131E21",
"X  c #161F2D",
"o  c #211F21",
"O  c #162326",
"+  c #1A2A2E",
"@  c #1C2D31",
"#  c #1E3034",
"$  c #242021",
"%  c #2A2222",
"&  c #332424",
"*  c #3A2626",
"=  c #203338",
"-  c #353733",
";  c #442928",
":  c #4C2E2C",
">  c #48332E",
",  c #413A2E",
"<  c #4E3E32",
"1  c #563332",
"2  c #5B3634",
"3  c #563933",
"4  c #5E3836",
"5  c #663E20",
"6  c #613A37",
"7  c #643C3A",
"8  c #683E3C",
"9  c #306C19",
"0  c #47433A",
"q  c #5A4738",
"w  c #674A31",
"e  c #6D413E",
"r  c #71513D",
"t  c #1F2951",
"y  c #222C5A",
"u  c #2C305B",
"i  c #353252",
"p  c #242E63",
"a  c #273267",
"s  c #283569",
"d  c #323560",
"f  c #304173",
"g  c #4C4949",
"h  c #544A5D",
"j  c #59535C",
"k  c #6E4840",
"l  c #754643",
"z  c #794845",
"x  c #695548",
"c  c #7F5B43",
"v  c #7D5649",
"b  c #695155",
"n  c #464467",
"m  c #5B596D",
"M  c #665765",
"N  c #7A666B",
"B  c #84593E",
"V  c #85584E",
"C  c #8B634C",
"Z  c #886C4E",
"A  c #92664E",
"S  c #95684F",
"D  c #986B4F",
"F  c #876556",
"G  c #8F6452",
"H  c #8E6953",
"J  c #926552",
"K  c #946A53",
"L  c #9A6B55",
"P  c #8F775A",
"I  c #9E7153",
"U  c #97725E",
"Y  c #99735E",
"T  c #A27254",
"R  c #A4765A",
"E  c #B97A55",
"W  c #8E6C61",
"Q  c #9A7460",
"!  c #9E7966",
"~  c #A47B66",
"^  c #A47D65",
"/  c #2F8412",
"(  c #34861A",
")  c #409E1E",
"_  c #4C912D",
"`  c #5E9434",
"'  c #42A220",
"]  c #54A22A",
"[  c #4DA83B",
"{  c #67A439",
"}  c #6CAA3E",
"|  c #64837F",
" . c #6DB66D",
".. c #908F46",
"X. c #959749",
"o. c #AE825E",
"O. c #B3825C",
"+. c #BD8959",
"@. c #AE9A55",
"#. c #8FA850",
"$. c #AB8267",
"%. c #A5816E",
"&. c #AC896E",
"*. c #B48862",
"=. c #B2856F",
"-. c #B58C6C",
";. c #BF996B",
":. c #A78371",
">. c #A88371",
",. c #B48D72",
"<. c #B79072",
"1. c #BD9471",
"2. c #BD9777",
"3. c #AFB371",
"4. c #D1875D",
"5. c #C6915F",
"6. c #C28E62",
"7. c #C79463",
"8. c #CB9663",
"9. c #CD9966",
"0. c #C79768",
"q. c #CE9C6A",
"w. c #D69768",
"e. c #D09D6A",
"r. c #DF9969",
"t. c #C19974",
"y. c #C59B76",
"u. c #CC9E71",
"i. c #C79E7A",
"p. c #CFA06F",
"a. c #D1A26F",
"s. c #CEA273",
"d. c #CEA47A",
"f. c #D2A474",
"g. c #D1A679",
"h. c #D4AB7D",
"j. c #D9AD7E",
"k. c #C0BC7B",
"l. c #E7A976",
"z. c #EFB57F",
"x. c #F7B67F",
"c. c #6E7D90",
"v. c #7DBEBD",
"b. c #D6AD81",
"n. c #D9AE81",
"m. c #D9AF81",
"M. c #D7B083",
"N. c #D9B184",
"B. c #D6B08B",
"V. c #D6B08D",
"C. c #DDB589",
"Z. c #DFB88C",
"A. c #E1B78D",
"S. c #E1B98D",
"D. c #F4BA86",
"F. c #F2BD8C",
"G. c #E4BD93",
"H. c #E5BD93",
"J. c #E5BE94",
"K. c #94C69D",
"L. c #8EC8A6",
"P. c #D6C089",
"I. c #E7C296",
"U. c #EBC297",
"Y. c #EBC39A",
"T. c #ECC39A",
"R. c #EBC499",
"E. c #EBC59A",
"W. c #EBC69B",
"Q. c #ECC499",
"!. c #ECC49A",
"~. c #86A9C3",
"^. c #93CCC1",
"/. c #B3D9DB",
"(. c #98D2F7",
"). c #A3D6F7",
"_. c #B4DCF7",
"`. c #C5E3F7",
/* pixels */
"H.!.R.R.h.h.j.b.g.b.h.h.f.9.e.9.9.b.j.h.h.E.E.E.G.Y.Y.Y.T.q.9.9.e.g.m.b.b.b.h.b.h.m.T.!.!.H.C.m.j.b.",
"H.!.Q.R.h.g.b.b.h.j.h.b.f.9.9.0.q.b.b.g.b.T.j.~ =.:.=.=.=.T R E e.f.m.b.h.h.b.h.h.m.E.E.!.H.R.R.E.J.",
"H.!.!.Q.h.h.j.b.g.b.h.j.f.9.q.9.q.b.m.h.h.F.~ z z z z z z z z L q.s.m.b.g.b.b.h.h.j.T.T.R.H.T.T.E.G.",
"J.!.!.Q.h.h.b.M.b.G.S.S.h.9.9.9.q.b.m.U z z z z z 8 6 4 8 z z z z z G g.m.j.h.b.h.N.E.!.!.H.U.U.E.G.",
"H.!.E.E.j.b.b.m.C.E.E.!.j.9.9.0.q.b.^ V z z z z 8 e 8 8 8 8 z z z z V ~ y.h.b.b.h.g.j.j.j.g.U.T.E.J.",
"H.E.E.E.b.b.h.b.C.!.!.R.j.9.8.8.q.i.z z z z z z 4 e z z k 4 z z z z z z t.b.b.b.h.s.9.9.w.q.R.R.E.G.",
"H.R.E.E.f.f.s.s.N.!.R.U.N.q.q.q.y.i.z z z z z z 4 e z z e 4 l z z z z z 1.h.b.b.m.s.9.9.9.q.E.T.E.J.",
"H.!.E.E.q.9.9.8.j.!.R.E.S.b.j.m.-.$.z z z z l e 6 8 z z l 4 e e z z z z T 1.b.b.b.s.9.9.9.9.E.R.E.J.",
"H.U.T.T.q.q.9.8.j.R.R.R.A.j.h.j.G z z z z z 8 4 4 8 z z e 2 4 8 z z z z z J A.A.G.g.e.9.9.q.Q.U.E.J.",
"G.Y.R.R.a.9.e.9.j.!.!.R.A.j.h.j.z 7 z z z z 8 4 z z z z z z 4 8 z z z z 7 V E.E.T.m.9.q.9.e.U.T.E.I.",
"H.!.!.R.q.9.9.9.m.!.R.E.A.j.g.j.v 6 l l z z 8 4 z z z z z z 6 8 z z l l 6 k ,.A.E.j.e.9.e.q.E.!.E.J.",
"G.!.R.R.a.9.e.9.m.!.!.E.A.m.g.j.v 4 4 e z z 8 4 z z z z z z 6 8 z l l 4 4 4 4 ,.T.m.9.e.9.q.U.!.R.J.",
"G.R.E.E.u.q.e.5.j.E.R.E.S.j.1.v 8 4 4 7 7 7 6 4 z z z z z z 6 6 7 7 7 4 4 4 4 <.E.m.q.9.9.q.!.!.R.I.",
"N.Z.C.Z.q.q.q.9.m.!.R.E.Z.h.-.2 4 4 4 4 4 1 2 4 z z z z z z 6 4 4 4 4 4 4 2 2 ,.E.m.q.e.q.p.!.E.E.H.",
"h.h.j.b.q.q.q.5.m.T.!.!.Z.h.-.6 4 4 4 4 2 ; 1 4 z z z z z z 6 4 2 6 4 6 4 1 ; >.E.m.e.e.q.0.l.Z.m.j.",
"f.j.j.b.q.q.q.5.m.Y.!.k.{ { ` : 2 4 4 4 2 ; ; : 7 e z z l 8 : : : 2 4 2 6 1 ; &.T.m.e.e.9.7.9.9.9.0.",
"h.h.b.b.9.e.9.8.j.I.P.3.[ [ _ ; 1 2 4 4 2 ; ; ; 4 e l l e 4 : ; ; 2 6 2 2 1 ; &.E.j.9.9.9.5.9.9.q.8.",
"d.j.j.b.q.q.9.8.0.d.]  .(.(.~.; ; ; 4 4 1 ; ; ; 2 4 4 4 4 4 ; ; ; 2 2 6 : ; ; &.I.N.9.8.9.5.9.9.q.9.",
"g.j.b.b.0.9.8.8.@.{ K.^.(.c.M ; ; ; : : : ; ; ; : 1 6 4 2 : ; ; ; : : : : ; ; r H N.f.a.f.p.9.9.q.9.",
"d.h.N.M.9.9.8.q.#.( /._.(.h ; ; ; ; ; ; ; ; ; ; ; : 2 2 1 ; ; ; ; ; ; ; ; ; ; ; 3 Z.b.j.j.f.8.9.p.5.",
"g.h.b.b.s.a.e.q.X./ /._.(.j ; ; ; ; ; ; ; ; ; ; ; ; ; ; ; ; ; ; ; ; ; ; ; ; ; ; 4 Z.h.h.M.d.9.p.9.q.",
"h.h.b.b.S.Q.U.R.0... .L._.~.| 9 Q ~ ; ; ; ; ; ; ; ; ; ; ; ; ; ; ; ; ; ; C Z ; ; q Z.h.h.j.d.5.p.9.q.",
"g.j.b.b.S.!.Q.Q.f.9.]  .`.).v./ 3.B.; ; ; ; ; ; * ; ; ; ; ; ; ; ; ; ; ; R O.; ; 3 d.j.h.j.d.5.9.9.9.",
"g.g.b.M.S.Q.Q.Q.f.w.a.X.' ( ` E.Z.t.  & ; ; ; ; ; ; ; ; ; ; ; ; ; ; &     , 9.9.q.q.j.h.M.g.9.9.9.9.",
"g.h.b.b.Z.E.E.E.f.9.e.@.#.` { E.P r   o % % * ; ; ; ; ; ; ; ; * $ % $     - 9.9.9.p.h.h.j.d.9.9.9.9.",
"g.h.M.b.S.E.E.E.f.q.e.9.N.} } !.,           % ; ; ; ; ; ; ; ; &         . , 9.e.9.p.h.h.j.g.5.9.9.0.",
"h.h.b.M.S.W.R.E.f.8.9.e.N.} 9                                                 Z 9.q.h.h.M.g.8.9.9.8.",
"s.s.s.g.Z.E.E.E.f.8.e.9.j.{ ( . O O O O O                         O O + .     Z 9.p.h.M.j.g.9.0.9.7.",
"8.9.9.9.C.E.!.R.f.9.9.8.j.` 9   @ # # # # . .         .         O @ # # O     Z 9.p.b.h.M.s.q.0.9.0.",
"8.9.9.9.C.E.T.T.f.8.9.e.j.8.+.E - O # # # # O         .       O # # # .   > E 7.9.s.h.h.M.g.b.b.h.g.",
"8.9.9.e.A.!.U.!.f.9.8.9.j.l.r.r.c < # @ @ # @ O O O O O O O O + # @ - x q r 4.8.9.p.h.h.h.h.b.M.h.g.",
"8.e.9.9.C.!.!.R.b.u.e.u.m.D.x.D.w.E     O = # = = # = = = = # # #   g E.w.4.4.0.9.p.h.b.h.g.M.j.h.g.",
"8.9.9.e.Z.Q.R.R.M.j.b.h.Z.D.x.x.x.l.+.j t   . . # = = = # = = # = . 0 Y.Y.j.5.9.9.e.C.N.N.h.b.b.h.g.",
"7.9.9.e.C.R.R.R.M.b.h.j.Z.U.D.D.z.l.q.M p O X X @ @ @ @ + @ = @ @ O g T.!.j.8.w.9.g.!.!.!.S.b.j.h.h.",
"0.9.9.q.M.G.G.G.b.b.h.h.C.Z.Z.Z.g.8.9.M p p p p     .             p m T.T.j.7.8.9.f.!.!.E.H.b.N.b.g.",
"5.q.9.e.d.d.h.h.j.b.h.h.a.9.7.T I I I F b p p p t t t t t t t y t p n 2.A.j.0.8.9.f.!.!.R.S.b.N.g.g.",
"8.9.9.q.f.j.b.j.g.j.h.h.a.6.O.A G A A A F i i i p p p p p a s s p p n >.V.b.1.7.9.d.T.T.Y.A.j.b.h.f.",
"8.9.9.e.d.b.h.h.g.j.h.h.a.T S S H K K K J 5 5 5 p p p p s f f f s a n :.~ :.b.b.b.j.R.E.T.H.h.b.h.g.",
"7.9.9.e.d.b.j.h.g.N.h.y.o.S K A K Y Y Q U H H H N b b b h s s s s M W :.:.~ ,.b.j.b.R.R.E.A.b.b.h.g.",
"8.8.8.q.f.M.j.h.g.N.h.1.L A K S K Q Q Q Y :.:.:.~ G K G b u u u d W :.:.:.! Q 2.h.M.R.Y.E.G.h.j.h.g.",
"7.9.8.q.d.N.b.h.g.N.g.1.I A K A K Y Y Q Q :.:.:.%.C A A A A w 5 w H ! ^ ! Q Y t.h.M.R.R.R.G.h.h.g.h.",
"8.9.7.q.d.m.h.h.g.M.h.1.L C K A K Y Y Q Q :.:.>.%.A A S A A B B B K Q Y Q Q Y 1.h.N.R.R.E.A.b.j.h.h.",
"G.R.E.R.b.N.h.h.g.N.h.t.K A K D K Y Y ! Q :.:.:.%.%.:.:.%.J A S A K Y Y Y Q Y 2.b.M.E.R.E.H.g.b.j.d.",
"G.R.E.E.b.b.h.h.g.j.h.2.L A K K K Y U Y Q :.:.:.%.%.:.:.%.K A A K K Y Y Q Y Y 2.j.b.E.R.R.J.Y.Y.R.G.",
"G.T.R.R.b.b.d.h.d.j.h.d.*.D D A K Y Y Y Y :.:.:.%.%.>.>.:.K A K K K Y Q Q ! <.d.h.j.T.T.R.G.R.E.R.I.",
"G.R.!.E.b.b.b.h.j.Z.C.Z.g.I A K K Y Y Y U ! ~ ! Q %.>.>.%.K S A S L Y Q Q $.m.h.h.N.!.T.E.G.T.Y.E.H.",
"H.!.R.E.j.b.h.j.Z.E.E.E.N.8.+.K K Y Y Q U Y Y Q Y %.>.>.:.K A A K K Y Q i.j.m.g.h.h.m.m.N.N.R.T.E.H.",
"H.!.R.R.b.j.b.h.C.E.E.E.j.8.7.O.o.,.-.^ Y Y Y Q U %.>.>.:.K S I O.*.-.<.d.m.m.h.h.s.e.8.9.q.T.E.E.H.",
"H.Q.R.!.d.h.d.f.N.W.W.W.N.8.8.8.0.j.h.=.U Y Y Y Y %.:.%.:.C A R 9.u.h.h.M.M.b.h.h.s.q.9.9.q.!.!.R.H.",
"H.U.R.R.q.9.8.9.j.E.!.W.R.E.E.H.Z.h.h.h.d.j.h.j.h.I.!.R.E.M.j.b.b.g.h.b.b.h.j.h.M.s.q.9.9.p.E.E.E.H."
};
